<svg version="1.2" xmlns="http://www.w3.org/2000/svg" viewBox="0 0 900 747" width="900" height="747">
	<title>AdobeStock_261425763 (1)-ai</title>
	<style>
		.s0 { fill: #ffffff } 
		.s1 { fill: #cc8629 } 
		.s2 { fill: #000000 } 
		.s3 { fill: #d8ff8d } 
		.s4 { fill: #f9afc7 } 
	</style>
	<g id="cats">
		<g id="cat 9">
			<g id="&lt;Group&gt;">
				<path id="&lt;Path&gt;" class="s0" d="m469.9 346.4c10 27.9 29.8 45.8 51.5 61.7 61.5 45.1 129.9 42.1 137.8 41.7 0 0 72.5-4.2 135-60 19.9-17.8 27.4-33.1 30-39 2.4-5.3 8.8-20.9 9-42 0.3-21.5-6.1-29.5-12-57-3.4-15.8-4.2-28.6-6-54-3.5-51.9 2-61-6-87-4.2-13.8-13.1-42.7-30-45-21.4-3.1-46.7 38-51 45-13.4 21.8-16.7 39.9-30 42-5.8 0.9-6.9-2.4-18-6-28.4-9.5-59.8-1-63 0-8.1 2.3-14.9 5.3-24 3-7.6-2-12.5-6.7-15-9-25.1-24.4-31.4-41.3-51-54-6-4-22.7-14.8-39-9-2.1 0.7-10.2 3.9-15 12-6 10.2-1.5 19.6 3 42 1 4.7 3.2 25.4 7.7 66.9 1.5 14 2 18.9 1.7 26.1-0.6 12.9-3.3 25.5-8 39.8-9.4 28.6-18.6 51.3-7.7 81.8z"/>
				<path id="&lt;Path&gt;" class="s0" d="m836.4 608.7c-0.6-2.1-2.7-3.6-4.9-3.4-11.9 0.6-14.6-6.7-25.6-12.7-18.5-10.1-34.2-6.2-53.6-0.1-18.1 5.6-104.1 29.8-97.2 58.9 7 29.2 81.6 9.3 98.5 6.4 21.2-3.6 92.5-12.1 82.8-49.1z"/>
				<path id="&lt;Path&gt;" class="s0" d="m831.9 504.6c1.6-7.8 2.2-14.6 2.1-21.1-0.3-15.3-3.8-24-7.5-37.1-10-36.3-5.8-57.8-14.3-59.6-0.9-0.3-2.3-0.3-12 6-8.5 5.5-12.8 8.2-21 15 0 0-4.7 3.9-30 21-26.4 17.8-66.4 22.6-78 24-6.1 0.7-78.5 8.6-129-21-13.8-8.2-20.7-12.2-27-18-10.7-10-22.8-25.8-36-30-5.8-1.9-8.4-0.4-9 0-3.9 2.5-3.7 8.8-6 9-1.2 0-2.4-1.7-3-3-2.1-5.5 4.2-12.6 6-15 10.3-14.2-9.9-38.9-12-66-2.6-34.9 26.7-44.9 21-72-4.6-22.5-28.6-35-42-42-54.3-28.5-112.7-15.9-164.1-4.8-33.1 7.1-94.5 25.5-149.9 66.5-39.7 29.5-60.5 66.9-69.3 115.2-5 27.8-3.1 55.2-3.9 83.3-0.9 28.9-3.9 65.1 5.2 92.8 14.5 43.9 78.4 51.7 117.1 63.5 24.3 7.3 42.4 24.2 66.4 31.6 24.6 7.6 53.9 9.5 79.7 8.6 2.5 0 4.4-2 4.5-4.5 1.4-33.2 2.7-63.4 18.3-94 13.7-26.8 34.4-52.3 54.6-75.3 3.4-3.8 9.5-0.4 8.1 4.5-6.6 22.1-41.7 57.2-48.8 69-14.1 23.3-28.4 68.1-15.1 95 13.3 27 66.4 25.2 91.9 26.8 39.8 2.5 79.8 1 119.7 0.5 20.5-0.3 73.3 11.9 86.9-8.7 6.6-10-4.7-30.3-13.5-38.7-13.7-13-32.6-14.2-50.3-16.4-36.4-4.4-76-4.4-111.6-12.7-14.8-3.4-24.9-11.9-40.3-9.8-12.4 1.6-24.2 8.3-36.4 13-4.8 1.9-8.7-4.3-4.9-7.8 14-13.2 45.2-21.1 58.7-19.4 9.7 1.2 20.4 8.6 30 11.2 14.2 3.8 29.6 4.3 44.2 5.9 29.8 3.3 62.7 3.8 91.7 12.2 10.3 3.1 21 6.4 28.6 14.6 4.1 4.3 6.2 13.2 9.1 19.4 1.5 3.1 5.7 3.6 7.9 1 21.9-27 55.3-40.2 87.8-51.7 37.5-13.3 58.6-16.7 90 3.6 2.7 1.8 6.4 0.3 7.1-2.9 3.1-13-4.2-10.5-9.2-25.3-6.2-17.9 3.7-38.1 7.5-56.4z"/>
			</g>
			<g id="&lt;Group&gt;">
				<path id="&lt;Path&gt;" class="s1" d="m389.2 317.8c-11.2 21.3-30 56.9-69.3 77.9-35.5 19-69.6 16.4-84.1 15.3-10.9-0.8-22.4-2.4-31.1-9.1-16.8-13-15.9-38-15.8-59.3 0.1-10.7-0.6-22-6-31.3-5.4-9.2-16.8-15.8-27-12.4-12.4 4.1-17.3 20.2-29.3 25.4-10.6 4.6-24-5.1-30.4-14.3-12.3-17.9 0.3-40.3 2-43.2 5.3-9 12.2-13.9 30-24 24.1-13.7 36.1-20.5 54.8-28.1 41.5-17 75.4-24.6 83-26.3 33.3-7.4 60.4-13.3 95.8-11 41.5 2.7 93.2 16.8 93.4 32.4 0.1 5.7-6.8 8.8-15 15-30.9 23.1-29.1 51.5-51 93z"/>
				<path id="&lt;Path&gt;" class="s1" d="m779.2 275.8c12.9 4.3 23.2 3.5 30 3 7.2-0.7 18.7-1.6 20.9-7.7 1.6-4.2-2-9.1-2.9-10.3-6.2-9-8.2-24.4-13.2-90.4-1.5-19.3-6.9-91.1-22.8-102.7-5.8-4.2-12-4.9-12-4.9-7-0.9-12.6 1.8-15 3-15.6 7.6-22.2 26.9-42 54-10.5 14.3-14.3 16.7-18 27-5.2 14.6-3.7 27.5-3 33 2.3 17.4 9.8 29.1 18 42 2.1 3.2 11.5 17.6 28.2 32.6 11.1 10 18.9 17 31.8 21.4z"/>
			</g>
			<g id="&lt;Group&gt;">
				<path id="&lt;Path&gt;" class="s2" d="m216.6 233c7.6 8.1 20.2 11 30.5 6.9 7.1-2.7 13.4-8.5 21-8.4 8.7 0.1 15.6 7.8 24.2 9.3 4.7 0.8 9.5-0.3 14.2-1.6 24.9-7 50.5-21.4 58.4-46 0.9-3.1 1.6-6.5 0.7-9.6-2.5-8-13.3-9.3-21.6-8.3-23.2 2.7-45.4 11.2-68.7 13.6-19.7 2-96 4.2-58.7 44.1z"/>
				<path id="&lt;Path&gt;" class="s2" d="m479.2 320.8c17.9 12.5 42.8 3.1 56.9-2.3 27.5-10.4 41-32.6 78.4-64.5 51.8-44.2 51.9-70.6 50.6-84.8-0.5-4.9-1.8-19.4-11.9-25.4-4.1-2.5-8.2-2.7-15-3-10-0.5-17.7 1-27 3-9.9 2.1-14.9 3.2-21 6-10.6 4.8-12.2 9.1-21 15-18.9 12.7-27.3 3.8-42 15-2.3 1.7-3.9 3.4-5.2 5-0.8 1-1.5 2-2.3 3.1-0.6 1-3.9 6-5.6 10.6-2.9 7.8 0.2 10.3-1.9 14.3-4.4 8.4-20.8 0.6-30 9-8 7.4 0.2 17.5-6 39-4.8 17-13 20-12.9 30.6 0.2 11.7 7.1 23.1 15.9 29.4z"/>
				<path id="&lt;Path&gt;" class="s2" d="m76.6 414c12-10.6 10.5-29.5 16.9-44.2 5.4-12.3 16.2-21.2 25.5-30.8 9.3-9.6 17.6-20.5 22.1-33.1 4.6-12.6 5.1-27-0.7-39-2.9-5.9-7.7-11.5-14.1-12.6-6.5-1.2-12.9 2.2-18.3 6-21.2 14.8-36.6 36.9-47.4 60.4-10.8 23.6-17.3 48.9-23.7 74-5.2 20.3 25.5 32 39.7 19.3z"/>
			</g>
			<g id="&lt;Group&gt;">
				<path id="&lt;Path&gt;" class="s3" d="m556.2 322.5c9.6 3.5 19.8 5.2 30 5 10.4-0.2 22.4-3.7 25.9-13.4 3.1-8.6-2.4-18.5-10.2-23.2-11-6.7-41.9-11.4-52.9-2.6-12.2 9.7-5.9 29.4 7.2 34.2z"/>
				<path id="&lt;Compound Path&gt;" fill-rule="evenodd" class="s2" d="m532.6 285c-3.6-2.1-7.1-3.9-9.6-6.6-3.2-3.5 0.2-9.1 4.7-7.7 7 2 13.3 4.2 21 4.9 10.7 1 21.5-5.2 32.4-2.6 13.1 3 38.5 21.1 35.5 38.2-3 17-37.1 21.6-50.3 19.4-21.6-3.7-32.6-20.1-31.4-41.2 0.1-1.8-0.8-3.5-2.3-4.4zm72.5 24.2c-1.6-8.3-6.5-14.7-13.5-19.1-2.7-1.8-6.4-0.3-7.1 2.9-2.3 9.8-5.3 19-17.4 17.3-12.5-1.7-5.8-10.1 1.1-17.6 3.1-3.3 0.1-8.6-4.3-7.8-14.6 2.8-27.4 8.2-14.8 26.6 12.5 18 37.4 11.6 53.6 2.9 1.8-1 2.8-3.1 2.4-5.2z"/>
			</g>
			<g id="&lt;Group&gt;">
				<path id="&lt;Path&gt;" class="s3" d="m694.5 303.2c-0.4 3.5-0.2 7.3 1.5 10.3 4 7.2 14 7.8 22.2 7.1 3.7-0.3 7.5-0.7 11-2 4.1-1.5 7.7-4.1 11.2-6.7 5.3-3.9 10.7-7.9 14.8-13 4.1-5.2 6.9-11.7 6.3-18.2-0.1-0.9-0.3-1.8-0.9-2.4-0.6-0.7-1.5-0.9-2.3-1-22.7-4.6-61.2-5-63.8 25.9z"/>
				<path id="&lt;Compound Path&gt;" fill-rule="evenodd" class="s2" d="m772.4 275.5c-2.2 0.4-3.9 2.3-3.9 4.6 0 22.7-19.3 39.5-40.7 44.2-6.8 1.4-22.7 3.9-28.9-0.1-9.3-5.9-8.6-23.5-3.5-34.5 10.3-22.4 30.2-23.1 51.1-23.1 6.9 0 34.1-5.4 36 0.5 1.9 6-4.6 7.4-10.1 8.4zm-53.4 11.9c4.3-3.3 0.4-10.3-4.6-8.1-16.8 7.3-17.3 41.5 12 36.8 25.4-4 40.3-30.6 15-39.5-3-1-6.1 0.9-6.4 4-1 11.8-3.9 32.3-17.7 20.1-7.6-6.7-2.9-9.8 1.7-13.3z"/>
			</g>
			<g id="&lt;Group&gt;">
				<path id="&lt;Compound Path&gt;" fill-rule="evenodd" class="s4" d="m628.5 360.2c-1.5-2.5-0.1-5.6 2.6-6.6 10.1-3.6 22.1-6.7 32.7-3.9 20.9 5.6 8.9 7.2 1.4 22.8-7.3 15.3-6.5 16.8 7 26.5 7.8 5.5 16.8 10.6 26.3 13 5.1 1.3 4.5 8.9-0.8 9.2-14 0.7-29.2-16.6-44.6-15.1-12.6 1.1-29.9 19.3-40.9 12.9-3.9-2.4-2.3-8.5 2.3-8.7 15.6-0.7 36-7.3 35.8-24-0.1-11.9-17.3-18.3-21.8-26.1zm26.7-1.5q-1 0.1-2 0.2c-4.4 0.3-5.9 6.1-2.3 8.6 2.9 1.9 5 1.6 7.6-0.4 3.6-2.9 1.3-8.8-3.3-8.4z"/>
				<path id="&lt;Path&gt;" class="s4" d="m539.9 178.7c-1.5-0.2-3.2-0.2-4.1 1-0.9 0.9-0.8 2.3-0.8 3.6q0.5 7.5 1 15c-1.1-1-3.9-3.6-8.3-4.3-3.9-0.6-9.6 0.1-12.5 3.8-3.5 4.5-0.4 10.3-3 12-2.5 1.5-8.2-2.1-12-6-11-11.5-3.8-24.1-9-57-1.7-10.9-4-19.3-3-33 1.3-17.2 6-19.8 7.3-20.4 4.5-2 10 0.9 14.9 4.2 19.7 13.2 37 29.9 50.7 49.2 4.9 6.8 9.5 14.3 10.4 22.7 0.5 5.4-1.7 18-8.4 19.6-5.3 1.2-15.7-9.6-23.2-10.4z"/>
				<path id="&lt;Path&gt;" class="s4" d="m758.5 168.7c-0.7 3.8-1.3 7.9-0.2 11.6 1.2 3.7 4.7 7 8.6 6.6 2.3-0.3 4.3-1.9 6.5-2.8 2.1-1 5.1-1 6.4 0.9 1.3 2 0.1 4.5-0.3 6.8-0.8 5 2.6 9.8 7 12.3 4.3 2.5 9.5 3.1 14.4 3.7q-0.5-34.9-1-69.7c-0.3-15.2-0.9-31.7-10.2-43.7-4.7-6-12.5-10.7-19.7-8.3-5 1.7-8.3 6.3-11.2 10.7-12.7 19-23.6 39.3-32.5 60.3-2.9 6.7-9.1 20 2.8 19.4 3.5-0.2 8.3-4.1 11.7-5.3 5.6-1.8 11.7-2.6 17.7-2.5z"/>
			</g>
			<g id="&lt;Group&gt;">
				<path id="&lt;Path&gt;" class="s2" d="m500.2 95.8c0.5-2 2.7-2.9 3-3 5.1-2.2 12.4 3.2 24 15 5.9 5.9 21.3 21.5 30 30 11.5 11.1 15.2 13.7 18 21 1 2.4 5 13.7 0 24-0.9 1.8-3.4 7.1-9 9-1.7 0.5-5.1 1.3-6 0-1.2-1.9 4-5.4 6-12 1.5-4.8 0.7-8.8 0-12-2.1-10.8-9.1-18-21-30-4.9-5.1-46.2-37-45-42z"/>
				<path id="&lt;Path&gt;" class="s2" d="m725.9 164.2c-0.3 1.1-0.3 2.2 0.1 3.2 4.5 12.2-5.7 13.3-9 4.9-5.3-13.8 5.9-24.8 12.8-36 4.6-7.5 19-40.5 33.7-51.7 4.7-3.6 10.3 3.5 5.8 7.4-20.7 18-35.3 47.3-43.4 72.2z"/>
				<path id="&lt;Compound Path&gt;" fill-rule="evenodd" class="s2" d="m845.5 621.6c-15.2 46.2-84.1 45.1-124.3 52.3-22.4 4.1-36.6 2.3-58.4 0.8-0.6 0-1.2-0.2-1.7-0.4l-7.9-3.9c-1.7-0.9-3.8-0.5-5.3 0.7q-6.5 5.8-14.7 9.1c-8.9 3.9-18.8 4.8-28.4 5.8-47.6 5-100.7 1.6-148.7 0.2-26.6-0.8-52.5-4.8-78.6-9.4-18-3.1-32.5-11.2-49.3-14.7-22.5-4.7-49.2-1.5-72.5-4.4-29.2-3.6-45.7-12.4-70.7-26.3-37.7-20.8-84.1-21.1-121.4-45.6-40.4-26.6-34.3-79.3-32.5-122.1 2-49.8 2.5-108.6 26.6-153.8 22.1-41.6 65.6-70.4 105.5-92.9 50.6-28.7 95.9-38.1 153.1-45.9 59.5-8 99.3-0.7 149.1 29.2 3.5 2.1 6-2.3 7-3.3 5.9-5.4 3.5-14.1 0.8-41.2-1.8-19.1-1.1-19.9-3-27-2.8-10.6-5.4-12.8-6-21-0.2-3.2-0.9-15 6-24 8.6-11.2 23.8-12 27-12 28.4-0.8 59.6 29.1 75 51 4.2 5.8 10.1 15.2 21 18 7.4 1.8 12.2-0.6 24-3 0 0 15.7-3.2 36-3 28.7 0.2 32.3 10.2 45 6 14.2-4.8 13.2-18.5 30.6-42 7.3-9.9 32.4-43.8 53.8-39.6 21.7 4.3 30.7 45.6 32.6 54.6 5.4 24.7-1.5 31.1 4.8 68.7 1.2 7.4 3.1 16.4 4.2 30.3 1.6 18.1-0.2 19 1.3 30.7 2.3 17.7 6.6 17.2 11.9 42 4.1 19.4 5.2 34-2.8 52.3-10.3 23.6-19.2 29.5-11.8 56 6.4 23 16.4 45 22.6 68 6.5 24.1 0.3 40.2-6.2 63.9-6.6 24.2 2.6 22.9 9.1 43 4.7 14.6 2 38.4-2.8 52.9zm-375.6-275.2c10.2 28.5 30.8 46.7 51.5 61.7 63.2 45.6 134.4 39.6 143.8 38.7 0 0 72.6-7.3 130.1-62.6 12.3-11.9 21.2-20.9 27.3-35.9 12.2-30 4.1-63.1-4.7-100.4-4-17.3-2.1-32.1-6.1-49.4-6.3-27.5-1.2-57-6.1-84.8-2.6-15-9.4-41.6-27.3-42.8-17.3-1.2-37.7 27.8-50.2 46.3-14.6 21.3-19.1 36-33 38.6-7.5 1.3-8.1-2.6-24-6-7.3-1.6-30-6.5-54 0-6.9 1.8-14 4.7-24 3-5.5-1-10-3.1-13.6-5.2-21-12.4-27.5-37.1-48.6-51.5-11.1-7.5-31.8-21.2-46.1-12.9-17.3 10-6.3 40.8-3.8 56.6 3.3 20.2-0.3 39.3 2.8 58.9 3.7 23.3 1.5 42.3-6.3 65.9-9.4 28.6-18.6 51.3-7.7 81.8zm266.6 239.2c37.5-13.3 58.6-16.7 90 3.6 2.7 1.8 6.4 0.3 7.1-2.9 3.1-13-4.2-10.5-9.2-25.3-6.2-17.9 3.7-38.1 7.5-56.4 4.6-22.1 1.3-36.8-5.4-58.2-11.2-36.1-6.6-52.2-14.7-54.5-4.7-1.3-8.6 3.3-20.6 12.9-12.3 9.9-26.1 17.7-39 27-39.8 28.6-104.8 29.9-109.5 29.9-10.3 0.1-44.2-0.2-82.5-14.9-11.3-4.4-27.9-10.9-45-24-12.4-9.6-18.6-14.4-24-21-6.4-8.1-10.2-15.7-15-15-5.3 0.7-6.6 11-12 11-2.9 0-5.2-2.9-6.5-4.9-3.3-4.9 6.2-19.7 6-23.2-1.5-22.4-18.2-39.5-15.2-64.9 2.7-22.6 23.1-38.7 23.6-61.6 0.5-22.8-20.8-34.8-39.7-45-49.6-26.7-109.2-16.2-162.3-8.2-54.5 8.1-105.6 33.6-149.9 66.5-39.7 29.5-60.5 66.9-69.3 115.2-5 27.8-3.1 55.2-3.9 83.3-0.9 28.9-3.9 65.1 5.2 92.8 14.5 43.9 78.4 51.7 117.1 63.5 24.3 7.3 42.4 24.2 66.4 31.6 24.6 7.6 53.9 9.5 79.7 8.6 2.5 0 4.4-2 4.5-4.5 1.4-33.2 2.7-63.4 18.3-94 13.7-26.8 34.4-52.3 54.6-75.3 3.4-3.8 9.5-0.4 8.1 4.5-6.6 22.1-41.7 57.2-48.8 69-14.1 23.3-28.4 68.1-15.1 95 13.3 27 66.4 25.2 91.9 26.8 39.8 2.5 79.8 1 119.7 0.5 20.5-0.3 73.3 11.9 86.9-8.7 6.6-10-4.7-30.3-13.5-38.7-13.7-13-32.6-14.2-50.3-16.4-36.4-4.4-76-4.4-111.6-12.7-14.8-3.4-24.9-11.9-40.3-9.8-12.4 1.6-24.2 8.3-36.4 13-4.8 1.9-8.7-4.3-4.9-7.8 14-13.2 45.2-21.1 58.7-19.4 9.7 1.2 20.4 8.6 30 11.2 14.2 3.8 29.6 4.3 44.2 5.9 29.8 3.3 62.7 3.8 91.7 12.2 10.3 3.1 21 6.4 28.6 14.6 4.1 4.3 6.2 13.2 9.1 19.4 1.5 3.1 5.7 3.6 7.9 1 21.9-27 55.3-40.2 87.8-51.7zm99.9 23.1c-0.6-2.1-2.7-3.6-4.9-3.4-11.9 0.6-14.6-6.7-25.6-12.7-18.5-10.1-34.2-6.2-53.6-0.1-18.1 5.6-104.1 29.8-97.2 58.9 7 29.2 81.6 9.3 98.5 6.4 21.2-3.6 92.5-12.1 82.8-49.1z"/>
			</g>
		</g>
	</g>
</svg>