<svg version="1.2" xmlns="http://www.w3.org/2000/svg" viewBox="0 0 1416 1152" width="1416" height="1152">
	<title>AdobeStock_261425763-ai</title>
	<style>
		.s0 { fill: #ffffff } 
		.s1 { fill: #cc8629 } 
		.s2 { fill: #000000 } 
		.s3 { fill: #f9afc7 } 
		.s4 { fill: #d8ff8d } 
	</style>
	<g id="cats">
		<g id="cat 8">
			<g id="&lt;Group&gt;">
				<path id="&lt;Compound Path&gt;" class="s0" d="m102.3 343.4c1.7-3.3 7.7-3.1 9-3 6.4 0.2 10.4 4.8 18 12 11.1 10.6 16.8 15.9 20.9 17.4 0.8 0.2 13 4.2 24.1-2.4 1.8-1.1 6.2-3.8 9-9 4.2-8.1 1.5-16.6 0-24-3.5-16.6-4.8-44.6 6-51 6.1-3.7 14.8 0.2 21 3 5 2.2 6 3.7 24 21 0 0 14.9 14.3 26.3 26.1 0.8 0.8 2.1 2.1 3.7 3.9 17.6 20.1 11.4 25.3 26.8 41.9 16.6 17.8 36.6 25.9 49.7 30.7 10 3.7 20.2 7.1 30.8 8.5 11.9 1.6 23.5-0.8 35.3 0.6 46.5 5.6 87.9 23.5 129.2 44.7 8.8 4.5 17.2 9.2 27.4 8.8 11.9-0.6 24.2-4.2 36-6.3 23.2-4.1 46.3-7.1 69.8-8.8 48.1-3.5 96.4-5.9 144.6-7.2 48-1.3 97 0.5 144.1 10.1 11.2 2.2 22.3 4.7 33.5 7.1 8.9 1.8 18.6 4.7 27.8 3.1 16.9-2.7 23.6-20.9 30.7-34.2q17.4-31.9 34.5-63.9c10.7-20 20-40.9 31.7-60.4 24.2-40.5 54.4-77.5 83.3-114.7 28.6-36.8 56.2-74.8 90.7-106.3 7.5-6.9 25.3-21.2 36.8-15.5 0.6 0.4 3.3 1.8 5.8 5.8 7.2 11.8 2.6 29.3-6.5 49-10.5 22.6-23.6 41.2-40.8 61.2-25.5 29.7-30 27.8-49.2 52.8-11.6 15-18.9 27.2-33 51-13.2 22.1-17.3 30.8-30 54-14.1 25.5-42 74.5-61.8 122.6 0 0-12.1 31.3-2.8 41.6 2.4 2.7 5.9 4 8.2 6.8 2.6 3 4.7 7.4 6.8 10.9 5.5 9.3 10.3 19 14.4 28.9 16.5 40.4 21.7 84.1 30 126.6 2.2 10.7 3.6 22.1 7.5 32.4 4 10.6 10.3 20.6 16.2 30.3 10.7 17.5 17.6 35.8 33.2 49.9 29.4 26.9 70 47.2 84.6 86.5 6.8 18.1 5.9 36.7 8.5 55.5 2.9 21.5 9.4 42.3 17.2 62.5 2.5 6.4 4.9 13.8 10.3 18.4 6.7 5.6 14.8 1.6 21.3 6.2 12.6 9 11.2 26.3 6.9 39.2-4.6 14.1-15.3 29.9-32 29.7-9.8-0.1-17-8.7-23.6-14.9-8-7.5-15.7-15.4-21.5-24.8-19.8-31.8-16.9-71.8-38.7-102.9-22.5-32.3-59.5-45-96.2-54.5-41.5-10.7-83.8-17.5-119.6-43-18-12.8-31.1-29.3-45-46.2-12.7-15.4-27.7-30.4-47.4-36.3-19.3-5.7-42.9-2.1-62.4 1.3-21.5 3.7-41.8 12-63.1 16.5-21.3 4.5-43.7 7.9-65.5 8-22.5 0.1-44.8 2.5-67.3 2.4-46.7-0.3-93.4-11.5-139-20.4-23.7-4.6-47.3-9.5-71-13.7-11-2-22-3.5-33-5.4-9.3-1.5-19.1-4.6-28.3-0.8-15.8 6.6-19.9 26.3-33.6 35.8-17 11.7-39.9 16.2-58.8 24.3-41.3 17.8-83.2 27.1-127.5 33.6-22.2 3.3-41.8 10-62.5 18.4-2.4 1-5.6 1.8-7.6 3.2-3.9 2.4-2.3 0.1-4.2 4.4-1.5 3.2-1.6 6.6-3.6 9.7-4.3 6.5-11.7 9.5-19 11-10.9 2.2-45.3 7.1-42.2-13.6 2.4-15.6 20.3-33 32.9-41.1 17.9-11.7 39.8-16.3 58.5-26.6 20.4-11.3 40.4-23.3 60.4-35.5 19.2-11.8 37.1-25 55.9-37.4 7.4-4.9 14.2-8.5 17.3-17.4 3.8-11.3 4.9-24.2 5.7-36 1.6-22.2 1.7-46.3-1.9-68.3-2.8-16.5-12.2-31.3-26.5-40.3-17.4-10.9-40.4-17.9-60.7-21.2-21.8-3.5-44.2 0-66.2-1.3-18.6-1.1-28-13.2-32.9-30.1-2.3-7.9-8.9-11.3-11.5-18.7-2.5-7.3 1-14.3 4.7-20.5 11.5-19.5 13.8-39 18-60.9 2.1-10.2 5.5-18.8 10.3-28 2.3-4.4 3.4-8.3 3.3-12.2-0.2-6-2.9-10.4-4.4-12.8-14.8-23.1-24.6-32.8-21.8-37.8z"/>
				<path id="&lt;Path&gt;" class="s0" d="m101.5 917.9c-8 9.3-0.5 28.4 11.3 29.8 14.5 1.8 30.7-10 38.9-21 4.6-6.2 6.1-14 11.2-19.9 4.8-5.8 10.7-8.6 15.3-10.7 21-9.6 44.9-10 65.1-12.7 20.9-2.9 36-8 48-12 14.7-5 39.4-13.6 66-33 15-11.1 25.9-22.2 33-30-13.1 7.3-32.5 17.4-57 27-33.6 13-63.3 19.9-81 24-20 4.5-35 7-66 15-29.9 7.6-37.6 10.8-45 18-6.8 6.5-11.3 14.3-23.1 19.1-8.9 3.6-13.3 2.5-16.7 6.4z"/>
				<path id="&lt;Path&gt;" class="s0" d="m1037.7 867.9c-4.7-2.8-4.6-5-8.8-0.5 19.5 26 52.6 33.5 81.7 43.7 16.3 5.7 32.6 11.3 48.9 16.9 14.6 5 30.8 8.8 44.1 16.6 22.2 13.1 28.2 38.9 37.9 61 6.3 14.2 13.1 28.3 18.4 43 3.9 10.8 5.6 22.3 9.7 33 3.8 10 12.4 28.8 23.8 30.8 11.1 2 22.2-7.9 14.6-18.6-3.5-4.9-9.6-8.2-13.7-12.6-3.6-3.9-6.7-8.2-9.5-12.6-5.5-9-9.4-18.9-12.6-28.9-8.4-26-15.7-52.4-27-77.4-9.6-21.2-28.8-31.8-50.5-37.3-29.8-7.7-60-14-89.3-23.6-14.2-4.6-27.4-11.2-40.4-18.4-6.6-3.6-13-7.2-19.6-10.7q-3.9-2.1-7.7-4.4z"/>
			</g>
			<g id="&lt;Group&gt;">
				<path id="&lt;Path&gt;" class="s1" d="m1079.1 699.5c-5.6 8.1-11.3 16.6-12.6 26.2-2.3 17.2 12.2 34.8 29.5 35.7 6.1 0.3 13.1-1 17.7 3 8.3 6.9 0.9 19.7-4.4 29.1-17.9 32.1 97.7 44.2 111.2 38.1-2.6 7.4-1.6 11.7-0.1 14.3 8.4 14.1 52.8 9.8 57.9-4.5 6.1-17.6-54.5-28-81-87-9.5-21.1-52.5-150.4-118.2-54.9z"/>
				<path id="&lt;Path&gt;" class="s1" d="m1116.3 487.4c5.1-16.3 12.7-31.8 17.5-48.2 5.1-18 15.8-37.6 37.3-77 20.8-38.1 33.1-60.6 53.2-87.8 23.9-32.4 38-43.1 85.4-102.5 2.2-2.8 18.9-22.1 27.9-51.8 4.6-14.8 9-30.2 0.7-40.7-7.7-9.7-22.9-11.2-33-9-7.7 1.6-60 54-60 54-29.4 36.7-57 75-57 75-30 41.5-45 62.2-57 81-9.2 14.3-17.2 27.5-33 54-5.8 9.5-18.1 30.2-33 57-24.2 43.1-6.5 15.5-24 48-6.3 11.7-9.3 16.4-9 24 0.5 20 22.5 33.3 27 36 11.8 7.2 35.1 16.1 48 6 4.8-3.8 6-8.6 9-18z"/>
				<path id="&lt;Path&gt;" class="s1" d="m111.3 424.4c-8.4 27.9 7.4 65.3 33 78 3.6 1.8 7.2 2.7 14.3 4.4 6.4 1.6 30.6 7.8 61.3 2 14.2-2.7 37.1-8.8 62.4-24.4 9.4 19 27.8 26.3 39 21 8.7-4.2 11.4-15.3 12-18 0.4-3.6 2-12.1 9-18 10.7-9.1 27.9-6.7 37.7 0.5 13.5 9.9 7.5 22.9 17.6 40.5 11 19.1 35.7 25.4 57.7 25.7 22.1 0.2 44.6-3.7 65.8 2.4 46.8 13.4 67.3 69.2 67.9 117.8 0.2 15.9-0.9 32.4 5.5 47 7.5 17.3 24.6 29.1 42.8 34 47.9 13 95.7-15.9 141-36.3 45.3-20.3 107.7-28.7 136.8 11.6 5 6.9 8.6 14.9 14.8 20.8 12.6 12.2 35.3 11.8 47.5-0.9 6.1-6.4 10.4-15.6 18.9-17.9 6.9-1.8 13.9 1.7 20.8 3 20.3 3.7 40-12.5 47-31.8 7.1-19.4 4.4-40.8 0.5-61-11.4-60-15.6-94.5-40.7-130.6-8.6-12.3-14-20.2-24.6-27.8-9.8-7.1-23-13.2-87-18-16.6-1.3-39-2.9-69-3-20-0.1-22.1 0.6-49.8 0.7-38.3 0.1-41.1-1.1-64.2-0.7-40.4 0.6-71.8 5.1-78 6-38.3 5.5-45.6 12.2-75 12-24.8-0.2-40.9-4.8-45-6-22.2-6.6-25.2-13.3-48-24-30.3-14.2-57.6-17.7-84-21-37.7-4.8-34.9 1.3-51-3-58.3-15.7-91.4-94.7-135-123-13.9-9-20.8-7.6-24-6-5.7 2.8-7.6 9.6-9 15-6 22.5 6.2 32.7 0 51-1 2.8-5.1 14.8-15 18-8.5 2.7-17.3-2.3-24-6-10.9-6.1-12-11-21-15-8.2-3.6-16-3.5-21-3 0.7 5.1 2.4 12.6 6 21 7.6 17.9 16.5 21.6 18 33 1.5 12-7.5 14.6-12 30z"/>
			</g>
			<g id="&lt;Group&gt;">
				<path id="&lt;Path&gt;" class="s2" d="m1119.1 367.1c2.9-6.1 11.7-6 18-3.8 6.4 2.3 13.1 5.9 19.4 3.7 3.4-1.2 6-3.8 8.4-6.5 8.7-9.9 15.7-21.4 20.4-33.8-12.9-8.8-26.7-18.8-30.9-33.8-4.2-15 8.1-34.7 23.3-30.9 12.9 3.3 23.8 21.3 35.2 14.3 2.2-1.4 3.8-3.6 5.3-5.7 27.2-37.3 59.8-70.3 92.2-103.2-2 0.6-22.8 6.8-41.1-7-17.5-13.2-18-33.7-18-36-7.8 9-19.3 22.5-33 39-38.3 45.8-84.8 103.7-122.5 178.1-14.2 28-20.8 45.8-13.3 61.8 7.9 16.8 31.9 33.1 51.8 24.1 12.3-5.6 20.2-19.8 21-36-3.5 0-12.2-0.4-21-6-9.9-6.3-13.9-15.1-15.2-18.3z"/>
				<path id="&lt;Path&gt;" class="s2" d="m238.7 482.9c16 1.3 32.1-11 35-26.9 11.5 1.4 23.6 2.6 34.5-1.5 10.8-4.1 19.9-15.4 17.3-26.8-1.1-4.9-3-5.7-10.1-15.8-12.4-17.3-9.6-21.2-18.1-29.5-2.6-2.5-12.6-11.9-27.2-12.5-2.4-0.1-20.5-1.6-24.5 9.1-1.8 4.5-1.1 9.7-2.9 14.1-4.9 11.9-22 11.2-32.5 18.6-11.7 8.3-12.8 26.2-6.4 39 3.1 6.1 6.8 12.4 12 17 5.1 4.6 11 8.2 16.8 11.9 2 1.2 3.8 3.1 6.1 3.3z"/>
				<path id="&lt;Path&gt;" class="s2" d="m1126.3 616.8c-0.4-17.9-4.3-40.4-21.7-44.9-20.3-5.2-47.3 18.4-59.2 1.1-5.1-7.4-2.3-17.7-5.7-26.1-5.1-12.9-24.4-15.5-35.2-6.8-10.9 8.7-13.7 24.5-10.6 38.1 3.7 16.4 23 26.4 18.9 36.9-17.9 46.1 36.9 85.5 73.5 79.3 5.3-0.9 39-9 32.5-36.1-3.5-15.1 7.7-30.8 7.5-41.5z"/>
				<path id="&lt;Path&gt;" class="s2" d="m903.8 520.9c-4.4-10.4-12.6-20.1-23.7-23-9.7-2.5-20 0.5-29.7 3.4-15.7 4.8-32 9.4-48.4 8.3-16.5-1.2-33.4-9.2-40.8-23.9-3.8-7.5-4.9-16.1-9.1-23.3-10.9-18.6-43.2-17.6-53 1.5-2.8 5.7-3.9 12.1-7.6 17.3-9.1 13-28.6 11.5-44.2 8.6 9.5-17.4-17-36.8-35-28.5-19.8 9.1-30.9 23.2-35.3 40-4.6 1.9-9 4.3-12.7 7.1-16.7 12.2-22.6 31.6-27 30-5-1.8 5.4-24.9-6-39-8-9.8-23.8-12.2-36-9-14.8 3.8-22.3 15.2-24 18-23.1 3.7-40.4 16.1-42 30-1.4 11.9 8.8 24.5 16.2 33.7 1 1.3 4 6.6 13.2 13.6 18.9 14.3 23 22.2 33.3 25.3 23.1 6.8 35.7-24.7 66.3-21.6 18.2 1.8 20.8 13.8 33 12 2.9-0.5 5.9-1.7 8.8-3.4 28.2 47.7 73.9 89.7 106.4 94.5 36.7 5.4 75.4-20.6 84.2-56.7 1.4-5.7 2.1-11.8 5.1-16.9 10.8-18.5 38.2-12.2 59.5-14.6 37-4.3 63.1-49 48.5-83.4z"/>
				<path id="&lt;Path&gt;" class="s2" d="m930.1 501.7c4.8-1.8 3.9-5 12.2-11.3 5.1-4 14.5-11.2 22.9-8.9 6.7 1.9 6.5 7.1 15.1 12.9 5.5 3.7 13 5.7 18.7 2.3 8.5-5 7.6-17.7 3.6-26.7-1.3-2.9-2.9-5.9-5.5-7.7-4.8-3.5-11.2-2.4-17.1-2.2-14.9 0.5-29-5.8-43.1-10.7-19.8-6.8-33-6.7-40.2 0.3-7.5 7.4-5.2 21.3-2.4 28.7 6.1 16.3 24.9 27.4 35.8 23.3z"/>
				<path id="&lt;Path&gt;" class="s2" d="m1269.3 151.4c8 11.6 25.5 24 39 18 6.8-3.1 13.4-11.2 12-18-2.2-9.9-18.8-6.5-33-21-11.9-12.1-12.8-27.5-18-27-3 0.2-4.9 5.2-6 9-1 3.8-5.3 22.7 6 39z"/>
			</g>
			<g id="&lt;Group&gt;">
				<path id="&lt;Path&gt;" class="s3" d="m110 511.1q-2.2-3.6-5.2-4.4c-3.7-0.9-6 2.1-9.4 0.8-3.4-1.2-4-4.6-5.2-4.3-1.5 0.5-0.8 7.5 0.2 12.4 1.4 7.2 2.2 11.7 5.2 12.7 4 1.2 9.7-3.8 12.3-8.5 1.8-3.5 2.1-6.8 2.1-8.7z"/>
				<path id="&lt;Path&gt;" class="s3" d="m201.3 373.4c-4.9-3.7-3.5-10.5-3-30 0.6-27.6-1.1-34 3-36 7.1-3.6 21.1 11.8 24 15 6.5 7.2 20.3 22.5 15 36-4.1 10.1-16.7 13.7-21 15-5.6 1.6-13.1 3.7-18 0z"/>
			</g>
			<g id="&lt;Group&gt;">
				<path id="&lt;Path&gt;" class="s4" d="m142 455.2c0.5 4.6 0.8 9.7 0.7 15.3 0 7-0.6 13.4-1.4 18.9 3.4-1.9 11.7-7.3 14.6-17.3 1.1-3.6 2.9-9.8-0.8-14-2.9-3.2-8-4.2-13.1-2.9z"/>
				<path id="&lt;Compound Path&gt;" fill-rule="evenodd" class="s2" d="m162.3 457c1.2 9.3-2.3 16.9-4.5 21-4.8 8.9-11.7 14.2-16.4 17.1-0.8 0.4-1.8 0.1-2.1-0.7-1.5-4.4-3.2-8-4.6-18.8-1.1-9.4-2.7-12.7-2.2-21.1 0.3-4.5 0.8-5.7 1.4-6.5 4.2-6 17.9-6.5 24.4 0.2 2.8 3 3.7 6.4 4 8.8zm-8.1 2.6c-2.3-2.6-6.7-3.8-8.6-2.2-1.6 1.4 0 3.8 0 12.3 0.1 4.5-0.4 7.8-0.7 9.5-0.4 2.7-0.9 5-1.4 6.6 2.9-1.8 8.6-6 11.1-13.4 0.9-2.7 3-8.9-0.4-12.8z"/>
			</g>
			<path id="&lt;Compound Path&gt;" fill-rule="evenodd" class="s2" d="m130.5 343.8c10.2 6.6 20.3 13.4 30.5 20.1 31.7-15-10.3-85.5 30.7-91.7 20-3.1 37.4 20.5 50.2 32.4 15.2 14 31.4 26.3 43.7 43.1 6.3 8.7 9.5 19.6 15.7 28 5.8 7.8 17.1 13 25.5 17.5 9.9 5.2 20.5 9.3 31.5 11.3 11.8 2.2 23.7 1 35.6 1.6 48.4 2.2 92.2 22.6 135.5 42.4 10 4.5 22.1 12.7 33.5 10.9 10.8-1.7 21.6-5.7 32.5-7.8 23-4.5 46.4-6.7 69.8-8.2 47.8-3.1 95.4-5.6 143.2-5.3 50.4 0.3 99.3-1.1 148.8 10.1 12.6 2.8 25.2 5.5 38 7.9 6.6 1.3 14.9 3.7 21.7 1.6 13-4 17.8-27.3 22.9-37.8 0.1-0.1 11.4-20.8 34.1-62.2 5.4-9.9 19.8-35.8 36.4-62.3 14.3-23 18.3-27.1 72-102 14.8-20.7 25.4-35.7 42-57 0 0 22.3-28.9 60-60 7.5-6.2 19.5-15.7 34.8-14.8 2.6 0.1 10.8 0.7 18.5 6.5 8.9 6.7 11.5 16 12.7 20.3 2.6 9.9 1.5 19.8-3 33-7.6 22.3-19.2 38-27 48-19.1 24.4-25.6 27.9-51 57-15.7 17.8-26.3 30-38.2 47.4-11.1 16.2-11.6 20-33.5 60.9-25.4 47.3-38 71-45.3 83.7 0 0-7.4 12.7-21 45-6.1 14.4-9.7 24.2-7.7 35.9 1.8 10.8 7.3 17.8 11 22.7 12.7 17 20.7 41 27.3 61 14.1 42.2 14.5 87.3 28.6 129.4 13.5 40.2 39.5 76.1 72.5 102.5 32.7 26.2 61.7 53.4 70.8 95.7 4.3 20.4 4 41.4 8.9 61.7 2.5 10.4 5.7 21.1 10.4 30.8 4.5 9.3 10.3 12.3 18.6 17.9 33.4 22.6 19.4 73.9-16.4 84.7-8.1 2.4-17.4 1.1-24.8 5.4-6.7 3.8-10 10.4-17.4 13.4-13.4 5.4-31.4 2.2-40.9-9-13.8-16-21.4-41.1-29.2-60.4-9.3-23.2-18.1-46.6-27.1-69.9-7.4-19.3-17.4-30.4-36.9-38-23.6-9.3-47.2-18.4-71.2-26.5-21-7.1-43.3-11.6-63-22.1-20.6-10.9-33.1-27.8-45.8-46.6q-10-14.9-19.4-30.2c-5.4-8.7-10.1-18.6-17.8-25.6-14.9-13.5-37-10.6-55.3-7.4-21.6 3.8-41.6 13.4-63 18.1-23.5 5.1-47.5 7.7-71.6 8.9-24.1 1.3-48.2 1.2-72.4 1.4-24.7 0.2-48.5-4.6-72.8-9-50-9.1-99.9-20.1-150.2-27.2-18.4-2.5-43.1-10.8-56.3 6.6-13.2 17.7-29 32.5-43.2 49.4-13 15.5-31.5 24.5-49.7 32.5-19.9 8.7-40.5 16.1-61.6 21.5-21.8 5.6-43.4 7.8-65.6 10.3-19.4 2.2-26 12.5-35.1 28.1-8.9 15.5-24.5 24.4-41.7 27.9-7.1 1.5-15.4 3.3-21.6-1.7-6.2-5-9.4-14.9-11.6-22.1-0.8-2.7-2.1-14.1-4.3-15.6-1.7-1.2-10.3-0.2-12.9-0.6-6.1-0.8-12.8-2.6-17.2-7.1-11.2-11.3-2.1-30.8 4.5-41.9 22.3-37.2 65.4-52.4 102.2-70.6 19.9-9.9 39.2-21 57.7-33.4 10.1-6.7 19.8-13.9 29.3-21.5 7.6-6 16.1-11.8 19.3-21.4 7.4-22.4 7.2-49.2 6.8-72.6-0.3-18 0.5-37.3-16.4-48.2-9.5-6.1-21.9-8.8-32.5-12.4-10-3.4-20.2-6.9-30.7-8.5-20-3.1-40 2.5-60-2.3-17.2-4.2-29.5-14.9-36.4-31.1-3.6-8.5-10.8-13.9-14.7-22.4-3.3-7.3-3.7-15.2-1.9-23 2.2-9.5 7.7-17.3 11.7-26 4.7-10.2 7.3-21.3 9.5-32.2 2.2-11.7 3.6-23.8 7.7-35.1 1.3-3.4 6.7-10.4 6.8-13.7 0-3.4-6.8-11.2-8.6-14.2-5.5-9.1-32.7-43.7-9.8-48.5 10.6-2.2 22.1 7.3 30.3 12.6zm-6.4 37.4c5.4 8.8 5.9 15.8 1.1 25-4.8 9.2-8.2 17.8-10.3 28-4.2 21.9-6.5 41.4-18 60.9-3.7 6.2-7.2 13.2-4.7 20.5 2.6 7.4 9.2 10.8 11.5 18.7 4.9 16.9 14.3 29 32.9 30.1 22 1.3 44.4-2.2 66.2 1.3 20.3 3.3 43.3 10.3 60.7 21.2 14.3 9 23.7 23.8 26.5 40.3 3.6 22 3.5 46.1 1.9 68.3-0.8 11.8-1.9 24.7-5.7 36-3.1 8.9-9.9 12.5-17.3 17.4-18.8 12.4-36.7 25.6-55.9 37.4-20 12.2-40 24.2-60.4 35.5-18.7 10.3-40.6 14.9-58.5 26.6-12.6 8.1-30.5 25.5-32.9 41.1-3.1 20.7 31.3 15.8 42.2 13.6 7.3-1.5 14.7-4.5 19-11 2-3.1 2.1-6.5 3.6-9.7 1.9-4.3 0.3-2 4.2-4.4 2-1.4 5.2-2.2 7.6-3.2 20.7-8.4 40.3-15.1 62.5-18.4 44.3-6.5 86.2-15.8 127.5-33.6 18.9-8.1 41.8-12.6 58.8-24.3 13.7-9.5 17.8-29.2 33.6-35.8 9.2-3.8 19-0.7 28.3 0.8 11 1.9 22 3.4 33 5.4 23.7 4.2 47.3 9.1 71 13.7 45.6 8.9 92.3 20.1 139 20.4 22.5 0.1 44.8-2.3 67.3-2.4 21.8-0.1 44.2-3.5 65.5-8 21.3-4.5 41.6-12.8 63.1-16.5 19.5-3.4 43.1-7 62.4-1.3 19.7 5.9 34.7 20.9 47.4 36.3 13.9 16.9 27 33.4 45 46.2 35.8 25.5 78.1 32.3 119.6 43 36.7 9.5 73.7 22.2 96.2 54.5 21.8 31.1 18.9 71.1 38.7 102.9 5.8 9.4 13.5 17.3 21.5 24.8 6.6 6.2 13.8 14.8 23.6 14.9 16.7 0.2 27.4-15.6 32-29.7 4.3-12.9 5.7-30.2-6.9-39.2-6.5-4.6-14.6-0.6-21.3-6.2-5.4-4.6-7.8-12-10.3-18.4-7.8-20.2-14.3-41-17.2-62.5-2.6-18.8-1.7-37.4-8.5-55.5-14.6-39.3-55.2-59.6-84.6-86.5-15.6-14.1-22.5-32.4-33.2-49.9-5.9-9.7-12.2-19.7-16.2-30.3-3.9-10.3-5.3-21.7-7.5-32.4-8.3-42.5-13.5-86.2-30-126.6-4.1-9.9-8.9-19.6-14.4-28.9-2.1-3.5-4.2-7.9-6.8-10.9-2.3-2.8-5.8-4.1-8.2-6.8-10.5-11.6-1.5-29.3 2.8-41.6 15.6-45.3 39.1-87.3 59-130.7 9.3-20.1 17.6-40.3 29.8-58.9 11.3-17.2 24.8-32.9 39.5-47.3 15.1-14.7 31.4-28 45.7-43.5 14.7-16 26-33.9 35.7-53.2 7.1-14 20.7-41.3 11.6-57-10-17.3-33.6 1.5-42.6 9.7-34.5 31.5-62.1 69.5-90.7 106.3-28.9 37.2-59.1 74.2-83.3 114.7-11.7 19.5-21 40.4-31.7 60.4q-17.1 32-34.5 63.9c-7.1 13.3-13.8 31.5-30.7 34.2-9.2 1.6-18.9-1.3-27.8-3.1-11.2-2.4-22.3-4.9-33.5-7.1-47.1-9.6-96.1-11.4-144.1-10.1-48.2 1.3-96.5 3.7-144.6 7.2-23.5 1.7-46.6 4.7-69.8 8.8-11.8 2.1-24.1 5.7-36 6.3-10.2 0.4-18.6-4.3-27.4-8.8-41.3-21.2-82.7-39.1-129.2-44.7-11.8-1.4-23.4 1-35.3-0.6-10.6-1.4-20.8-4.8-30.8-8.5-19.6-7.3-36.6-13.7-49.7-30.7-12.6-16.5-23.8-33.7-37.6-49.2-14.7-16.4-31.8-29.6-48.3-44-43.2-3.1-2.9 64.1-26.1 78.1-8.2 4.9-19.5 8.4-28.9 5.6-9.9-3.1-17.3-11.6-25.6-17.3-4.5-3-11-7-16.5-7.7-8.1-1-4.5 3.9-1.5 8.9 5.7 9.2 11.8 18.2 17.5 27.5zm27.6 545.5c4.6-6.2 6.1-14 11.2-19.9 4.1-4.9 9.5-8.2 15.3-10.7 14.8-6.3 31.3-10.1 46.7-14.9 18.8-5.9 37.8-10.6 56.7-16 13.7-3.8 29.6-6.3 38.4-18.9-44.6 11-89.4 20.6-133.7 32.7-16.2 4.5-38.6 6.6-50.7 18.8-5.4 5.4-10.2 10.8-17.4 13.7-5.2 2.2-12.8 1.8-16.7 6.4-8 9.3-0.5 28.4 11.3 29.8 14.5 1.8 30.7-10 38.9-21zm958.9-15.6c16.3 5.7 32.6 11.3 48.9 16.9 14.6 5 30.8 8.8 44.1 16.6 22.2 13.1 28.2 38.9 37.9 61 6.3 14.2 13.1 28.3 18.4 43 3.9 10.8 5.6 22.3 9.7 33 3.8 10 12.4 28.8 23.8 30.8 11.1 2 22.2-7.9 14.6-18.6-3.5-4.9-9.6-8.2-13.7-12.6-3.6-3.9-6.7-8.2-9.5-12.6-5.5-9-9.4-18.9-12.6-28.9-8.4-26-15.7-52.4-27-77.4-9.6-21.2-28.8-31.8-50.5-37.3-29.8-7.7-60-14-89.3-23.6-14.2-4.6-27.4-11.2-40.4-18.4-6.6-3.6-13-7.2-19.6-10.7q-3.9-2.1-7.7-4.4c-4.7-2.8-4.6-5-8.8-0.5 19.5 26 52.6 33.5 81.7 43.7z"/>
		</g>
	</g>
</svg>