<svg version="1.2" xmlns="http://www.w3.org/2000/svg" viewBox="0 0 863 1306" width="863" height="1306">
	<title>AdobeStock_261425763 (1)-ai</title>
	<style>
		.s0 { fill: #ffffff } 
		.s1 { fill: #cc8629 } 
		.s2 { fill: #1e0c03 } 
		.s3 { fill: #f9afc7 } 
		.s4 { fill: #d8ff8d } 
		.s5 { fill: #000000 } 
	</style>
	<g id="cats">
		<g id="cat 5">
			<g id="&lt;Group&gt;">
				<path id="&lt;Path&gt;" class="s0" d="m438 1139.6c-4.5-3.6-8.9-7.4-13.5-11-4.1-3.3-6.5-4.7-11.7-5.4 1.3 4.4-2.2 7.8-4.3 11.4-2.8 4.5-5.5 9.2-7.7 14-4.1 8.9-1.4 18.3 8.9 21.1 9.5 2.7 12.8-7.2 15.9-14.3 2.9-6.8 6.7-11 12.4-15.8z"/>
				<path id="&lt;Path&gt;" class="s0" d="m448.7 1146.8c-2.9-1.3-3.3-1.9-5.9-0.7-5.8 2.8-12 16.8-11.2 23 1.1 8.7 17.4 6.9 23.2 5.3 9.7-2.8 12.5-8.7 15.1-17.8-5-2.3-10-4.6-15-6.9q-3.1-1.4-6.2-2.9z"/>
				<path id="&lt;Path&gt;" class="s0" d="m818.8 1176.3c5.1 22.3-2.3 46.5-18 63-20.1 21.2-47.6 23.4-63 21-4.6-0.7-17-2.6-27-12-5.3-5-7.4-9.8-7.9-11-2.8-6.9-2.3-13.1-1.8-16.2 4-2.9 7.5-4.7 9.7-5.8 9.4-4.5 14.1-3.8 21-9 1.8-1.3 4-3.1 6-6 4.2-6.1 6-15.3 3-21-3.8-7.4-14.9-7.1-33-9 0 0-23.7-2.4-51-9 0 0-36.6-8.8-51-27-1.2-1.6-4.7-6-3.5-10.1 0.8-2.6 3.5-3 6.6-6.2 3.6-3.7 7-7.7 10.2-11.7 5.6-6.9 8.4-10.4 11.1-13.9 10.5-14.1 11.2-18 14.6-18.1 4.9-0.1 5.8 7.6 15 15 4.5 3.6 8.7 5.3 21 9 15.5 4.7 23.3 7 33 9 21.6 4.4 42.7 8.8 60 18 10.4 5.6 38 20.3 45 51z"/>
				<path id="&lt;Path&gt;" class="s0" d="m412.6 1122.9c4-9.5-18.9-6.7-22.6-5-9 4-14.9 12.4-14.7 22.4 0.1 4.7 1.8 9.2 4.6 12.9 1 1.5 3.1 3.9 5.3 3.4 2.2-0.5 3.7-5.5 4.8-7.8 5.3-10.4 11.4-20.9 22.6-25.9z"/>
				<path id="&lt;Path&gt;" class="s0" d="m656 926.9c-2.7-9.4-3.6-19.3-6-28.8q-0.6-2.2-1.1-4.4-3.3-13-6.7-25.9c-5.1-19.9-9.3-40-14.9-59.7-5.5-19.4-11.9-38.5-17.3-57.9-5.4-19.5-11.9-38-20.2-56.4-8.2-18.3-15.2-37.1-24-55.2-8.4-17.1-19.2-33.2-29.5-49.2-21.7-33.8-51.9-59.5-79.1-88.7q-2.7-2.8-5.1-5.8c-4.4-5.5-8.3-11.2-12.2-17.2-5.2-7.9-11.7-14.8-16.9-22.6-9.7-14.6-7.4-33.1-14.2-48.8-7.8-18.1-19.6-35.1-29.6-52.1-4.3-7.3-12-16-12.9-24.6-1-8.9 3.5-19.9 6-28.3 5.4-19 10.6-38.2 10.3-58.1-0.2-9.8-1.5-19.1-0.9-29 0.6-10 1.4-20 2.2-30 0.8-10.5 0.5-20.9-0.1-31.3-0.5-8.8 0.9-21.2-2.8-29.2-3.9 2.3-3.8 6.8-4.6 10.7-1 4.8-2.5 9.7-4.3 14.2-3.3 8.5-8.3 16.2-15.5 21.9-7.5 6-14.8 9.9-19.4 18.8-4.2 7.9-5.5 16.9-7.7 25.5-4.8-7.8-7-16.5-9.7-25.1-2.6-8.7-6.3-17-9.7-25.4-1.3-3.3-4.5-8.5-3.6-11.7 0.8-3.3 4.3-7.5 6.2-10.3 3.7-5.8 7.4-11.8 13.7-14.9 0 0-20.9 4.4-26.1 5.8-2.1 0.5-4.6 1.4-6.7 1.4-2.5-0.1-3.4-0.8-5.8-1.9-4.5-2.2-9.5-3.2-14.3-4.9-10.1-3.6-18.9-9.7-29.4-12.7-10.9-3.2-22.4-4.2-33.7-5.2-11-0.9-22.1-2.2-33.1-0.8-11.2 1.5-20.8 6-30.5 11.4-9.9 5.4-20.6 10.7-29.7 17.3-0.9 0.6-5 3.6-5.1 4.6 0 0.8 2.6 3.6 3.2 4.3 2.6 3.4 6.1 6.4 7.2 10.7 1.8 6.7-3.8 13.7-8.5 17.8-7.8 6.9-16.8 11.8-25.2 17.7-3.5 2.5-6.6 5.4-9.4 8.6-8.2 9.5-13 21.8-15.8 34.2-0.4 1.6-0.7 3.3-0.8 4.8-0.2 1.5-0.1 2.9 0.1 4.3 0.3 1.5 0.8 2.9 1.7 4.4 2.6 4.6 5 8.5 6 13.8 2.2 10.3 3.2 20.7 6.2 30.9 3.6 11.9 10 22.4 16.7 32.8 1.1 1.9 3.6 8 5.5 8.9 1.8 0.9 5.9-0.3 7.9 0 6.1 0.9 12.5 3.5 18.4 5.5 12.1 4.2 23.7 9.5 36.8 10 6.1 0.2 12.2-0.5 18.2-2.2 6.3-1.8 9.9-3.3 16-0.2-0.8 4.5-7.7 4.6-11.9 5.6-4.4 1.2-8.9 2.4-13.4 3.2-8.1 1.3-16.4 1.2-24.5 0-16.2-2.6-31.6-9.9-46.3-17 3.5 13.3 7.4 27 8.6 40.7 1.4 15.2-2 28-9.7 40.8-8.3 13.8-16.1 27.9-23.7 42.1-3.1 5.9-6.7 10.9-8.9 17.3-2.3 6.8-5.1 13.6-7.7 20.4-5.7 14.6-9.8 29.7-13.8 44.9-2 7.3-3.9 14.6-5.6 22-1.6 7.5-1 14.6-0.4 22.2 1.5 16.2 1.9 33.4 5.5 49.4 3.5 15.5 8.5 30.7 12 46.3 3.2 14.2 9.5 27.3 15.3 40.6 6.3 14.1 11.4 28.2 14.7 43.4 6.7 30.7 9.8 62.4 13.7 93.6 4 31.4 6.3 63.2 11.3 94.5 2.5 15.4 6.2 30.5 7.4 46.2 1.2 15.9-0.1 31.9-0.1 47.8 0 7.8-1.7 15.2-6.9 21.2-4.2 5-10 6.8-15.4 10.1-12.6 7.8-13.9 25.3-15 38.6-0.6 6.4 1.1 12.5 5 17.6 2.9 4 9 11.1 14.5 9.9 5.3-1.2 1.7-5.3 0.7-8.8-1.2-3.7-1.9-7.7-2.1-11.6-0.2-3.9 0.2-7.8 1.4-11.5 1.5-4.8 3-5.6 6.7-8.5-1 13.4-2.4 36.8 14.1 41.4 4.3 1.2 15.4 3.7 17.9-1.5 1.2-2.6-0.4-6.3-0.9-8.8-1.3-5.6-1.8-11.2-1.3-16.9 0.3-3.6 0.5-10.4 2.8-13.3 3.8-4.5 5.9 0.2 5.9 4.4-0.2 10.3-0.7 19 4.6 28.3 5.1 9.1 11 5 18.9 1.3 3.4-1.6 6.8-3 8.5-6.7 1.6-3.7 0.5-8.2 0.8-12.1 0.7-8.6 4.8-16.1 11.1-21.9 3.3-2.9 7-5.2 9.7-8.7 3.5-4.4 4.2-7.1 2.1-12.2-4.2-9.8-7.7-18.7-8.6-29.4-0.8-11.3-0.6-22.7-0.7-34-0.2-24.3-0.4-48.6-0.9-72.9q-0.4-18-0.8-36c-0.3-10.9 1.6-23.1-5.2-32.3-7.6-10.3-15.7-20.3-23.4-30.6-7.7-10.3-13.8-21.8-20.3-32.8-11.6-19.4-27.4-40.1-23.7-64.1 12.6 17.2 19.4 37.4 31.2 55 6.7 9.8 12.8 20 19 30.2 6.4 10.6 14.3 19.5 22.3 29 7.2 8.7 13.6 18 21.5 26.1 7.6 7.9 16.4 14.6 24.5 21.8 1.9 1.7 4.6 2.6 3.3 4.9-1 1.8-3.9 1.3-5.5 1.3-4.4-0.2-8.7-2.2-12.2-4.6-7.9-5.4-14.7-13.7-21.6-20.3-1.8 14.4 0 29.2 0.4 43.7 0.4 15.1-0.7 30.4 0.3 45.5 0.8 13.4 6 23.1 14.3 33.3 7.7 9.6 19.5 13.3 31 16.2 4.3 1.1 4.1 0.5 5.5-3.9 0.9-3 1.5-5.9 2-9q1.9-12.2 3.7-24.3c2.2-15.5 4.3-31 6.4-46.5 4.6-33 9.8-65.6 17.1-98.1 3.8-16.9 7.8-33.7 11.3-50.7 1.7-8.5 3.1-17.1 3.6-25.7 0.5-9 1.7-15.1 7.8-21.7 2.9 9.8 1.5 20.8 0.3 30.9-1.3 11.6-4.2 23-6.8 34.5-5.5 23.5-11.7 46.9-16.1 70.7-8.6 46.7-11.9 94.5-19.5 141.5-0.9 5.7-1.9 11.3-2.8 16.9-0.7 4.7-0.7 10.5-4 14.1-2.8 3.1-7.2 3.9-11 5.3q-8.6 3-17.1 6.4c-3.7 1.5-7.1 3.2-9.6 6.5-2.7 3.6-3.2 8.2-5.4 12.1-5.3 9.1-15.5 13.3-21.5 21.8-5.3 7.5-4.3 16.2 1.7 23 3.2 3.6 6.9 7.6 10.7 10.6 1.6 1.2 3.3 2.4 5.4 2.5 3.5 0.1 3.6-1.2 3.8-4.1 0.6-9 2.5-18 5.2-26.5 1-3.2 1.9-6.8 3.7-9.7 0.7-1.3 1.3-2.3 2.7-2.9 2.8-1.3 3.5-0.3 3.9 2 1.2 5.8-2.7 13.3-4.2 18.8-1.2 4.4-2.6 9.3-1.6 13.9 2.2 10.2 13.3 14.1 22.5 12.4 3.5-0.7 4.2-0.6 5-3.9 0.5-2.4 0-5.3-0.2-7.7-0.3-4.7-0.6-9.4 2.1-13.5 5.3-7.9 14.5-15.5 24-17.1-8.9 10.8-22.4 22.7-11.7 37.3 5.6 7.6 13.4 6.3 21.9 5.8 7.9-0.6 15.9-1.1 22.9-4.9 14.6-7.8 18.7-27.4 22-42.2 4.3-19.9 9.6-39.5 14.6-59.3 10.3-40.9 18.5-82.1 28.8-123 5.2-20.2 10.8-40.4 15.7-60.6 4.6-19.5 8.6-39 14.6-58.1 2.8-9.3 6.4-17.9 7-27.7 0.6-10 0.2-20.3-0.7-30.2-0.9-10.5-4-20.1-6-30.3-2-10.2-0.8-20.5 1.3-30.5 0.6-3 0.6-9.2 4.3-10.3 3.4-1 4.8 2.1 5.4 4.8 1.9 8.9-1.2 18.9-0.8 28 0.4 10.2 3.2 19.8 5 29.7 1.8 10.2 2.6 20.6 2.2 30.9-0.6 20.8-7 39.8-12.3 59.7-5.4 20.5-10.5 41.1-15.8 61.6-10.3 40.5-20.8 81-30.2 121.7-4.6 19.7-9.2 39.5-13.5 59.2-1.3 6.1-0.4 8 4.5 11.9 6.5 5.1 13.2 9.7 20.6 13.5 8.1 4.1 16 5.9 25 7.2 8.9 1.4 17.1 5 24.8 9.7 16.3 9.9 30.4 23.7 48.2 31.3 18.5 8 36.1 4.3 55.2 1.2 14.6-2.4 28.8-7 42.4-12.9q6.8-3 13.3-6.4c33.8-17.4 51.3-55.9 67.3-88.3 8.7-17.7 13.3-35.9 14.1-55.5 1-20.6-3.7-38.5-9.4-58z"/>
			</g>
			<g id="&lt;Group&gt;">
				<path id="&lt;Path&gt;" class="s1" d="m227.3 102.5c-4.3-0.6-10.8 0-14.2-3.3-2.9-2.8-2.7-8.6-3.3-12.5-1.9-10.9-3.5-22-1.3-33 6.1 5.5 6.3 13.6 8.5 21 2.9 9.4 6.9 18.6 10.3 27.8z"/>
				<path id="&lt;Path&gt;" class="s1" d="m349.6 257.4c-11.3 4.7-21.2 4.2-41 3.2-9.5-0.5-18.1-1.6-46-7-32.2-6.3-48.4-9.6-54-12.7-20.5-11.1-30.1-29.9-38.4-45.6-11.4-21.4-15.7-41.8-17.4-57-1-2-2.8-5-6-6-1.2-0.4-4.3-1-15 6-3.1 2-6.1 4.2-12 9-10 8.1-12 10.3-12.6 9.8-1.8-1.2 4.1-18.8 17.5-31.8 16.4-15.7 37.4-18.2 52.1-20 9.7-1.1 26.4-2.1 47.8 2.3 43.9 9 60.8 32.4 78.2 21.7 4.6-2.8 5.5-5.7 21-18 6.4-5 12.5-9.8 21-15 9.6-5.8 18.1-9.6 24-12 13.6 18.5 17.3 34 18 45 0.5 6.9-0.5 9.1 0 24 0.5 16.3 1.7 16.9 2.2 33.7 0.5 14 0.2 24.2-4.8 35.1-1.8 3.8-11.3 25.7-34.6 35.3z"/>
				<path id="&lt;Path&gt;" class="s1" d="m419.5 641.3c-0.9-1.1-4.3-1.6-4-15.2 0.1-5.9 0.3-11.9-3.6-15.7-20.9 12.2-39.6 15.2-46.1 7.9-6.3-7.1 0-22.7 3-30 10.7-26.3 31.6-39.9 30-42-2.1-2.8-35.4 29.4-51 21-20.2-10.8-7.9-88.1 15-93 9.4-2 15.5 9.2 24 6 15.8-5.9 12.5-50.6 12-57-3.2-43.5-20.4-72.8-18.5-73.6 1.8-0.8 17.4 27.7 30.5 58.6 4.9 11.6 8.7 21.3 8.7 21.3 7.3 18.1 15.2 32 21.3 41.7 5.2 8.2 8.8 13.9 15 21 7.6 8.8 11.1 10.4 15.8 17.3 3.9 5.8 5.3 11.7 9.2 24.3 3.3 10.9 8.1 26.6 8 45.4-0.1 16.6-0.2 34.1-12 48-16.9 19.9-49.9 23.4-57.3 14z"/>
				<path id="&lt;Path&gt;" class="s1" d="m515.4 632.2c-5.9 31.3-17.9 61.6-35.7 88.1-10.8 15.9-23.4 37.7-10.7 52.1 13.8 15.5 44.6 4.3 56.8 21.2 3.7 5.2 4.5 11.8 4.8 18.2 1.1 21.5-2.2 43.2-9.8 63.4-3.3 8.9-7.5 17.7-8.9 27.1-5.5 35.4 31.6 66.3 67.4 66.2 29.3-0.1 56-15.1 78.8-34.2q-1-3.7-2.1-7.4c-2.7-9.4-3.6-19.3-6-28.8-2.6-10.1-5.2-20.2-7.8-30.3-5.1-19.9-9.3-40-14.9-59.7-5.5-19.4-11.9-38.5-17.3-57.9-5.4-19.5-11.9-38-20.2-56.4-8.2-18.3-15.2-37.1-24-55.2-8.4-17.1-19.2-33.2-29.5-49.2-6.2-9.7-13.2-18.7-20.5-27.3 1.4 9.6 3.7 20 3.7 24.9 0 15.1-1.4 30.3-4.1 45.2z"/>
				<path id="&lt;Path&gt;" class="s1" d="m771.2 1130c-2.1-1.1-4.2-2.4-6.3-3.6-9.7-5.7-20.6-11.9-30.1-11.6-0.8-1.9-3.3-3-5.4-3.6-13.8-3.9-45.3-17.8-55.6-4.1-8.5 11.3-8.4 39.3 1.3 49.4 5.9 6.1 14.7 8 22.9 9.7 1.8 0.3 3.5 0.7 5.2 0.3 5.2-1.1 6.6-7.1 8-12.5 0.7 1.5 1.6 2.9 2.9 4.1 2.4 2.1 5.5 3.1 8.6 3.8 2.6 0.5 5.4 0.9 7.9-0.1 4.2-1.5 6.3-6 8.5-9.9 4-6.8 9.7-12.9 16.8-16.5 6-3 13.1-4 19.6-2.5 1.2 0.2 2.4 0.6 3.5 1-2.4-0.9-5-2.3-7.8-3.9z"/>
			</g>
			<g id="&lt;Group&gt;">
				<path id="&lt;Path&gt;" class="s2" d="m314.8 168.3c2.5 7.9 6.3 8.5 9.9 19 1.2 3.4 1.8 6.2 2.1 8 12.5-10.9 21.5-21.6 27.8-30.1 2.3-3.1 14.3-12.3 18-29.3 1.6-7.5 2.1-16.8 9-20.2 5.4 28.3 7.4 52.4 8.2 70.6 0 0 1.1 26.9-6.5 64.8-1 5-2.6 10.9-7.1 16.8-8.5 11.2-24.3 13.6-38.3 13.8-9.5 0.1-18.1 1.4-28.2-3-3.1-1.3-10.1-4.4-15.9-11.4-9-10.9-4.7-18.7-12-27-8.1-9.3-17.3-3.8-27.7-10.8-15.2-10.3-14-34.8-15.1-55.9-1.3-26.6 6.1-58.5 15.8-59.3 1.8-0.1 2.7 0.8 5.7 2.8 0 0 15.8 9.2 36.3 12.2 14.9 2.2 26.2-3.8 27.3-0.9 0.6 1.6-2.9 3.1-6.3 9.9-1.8 3.6-2.4 6.5-3 9-0.9 3.9-2.7 12.3 0 21z"/>
				<path id="&lt;Path&gt;" class="s2" d="m413.8 513.3c-6 8.6-13.1 5.2-21 15-4.6 5.8-9.8 16.5-6 24 2.6 5 9.7 7.3 24 12 9.7 3.1 13.5 2 16.1 5.6 4.1 5.6-1.6 11.7 1.9 18.4 4.3 8.2 17.7 8.8 21 9 14.1 0.7 24.7-6.3 33-12 8.1-5.5 22.2-16.9 33.5-37.5-14.7-10.3-31.4-23.6-48.5-40.5-15-14.9-27.1-29.5-36.8-42.6-3.3 3.6-8.2 9.9-11.2 18.6-4.9 14.4 0.1 21.3-6 30z"/>
				<path id="&lt;Path&gt;" class="s2" d="m524.6 697.3c0.5 8.3 13.4 14 17 6.6 2.1-4.4 8.6-5 12.6-2.3 4.1 2.7 6 7.6 7.1 12.3 6.9 30.9-15.4 59.9-35.5 84.4-20.1 24.5-40.5 56-29.5 85.7 4.9 13.1 21.6 18.5 35.2 15.4 13.6-3.1 24.8-12.4 35.4-21.5 7.9-6.6 15.9-13.6 20.1-22.9 4.2-9.4 3.3-21.8-4.8-28.1-6.8-5.2-7.9-15.4-5.1-23.6 2.7-8.1 8.4-14.8 13.3-21.9 9.5-13.4 16.3-28.2 21.6-43.8-5.2-18.1-11.4-35.5-19.2-52.8-8.2-18.3-15.2-37.1-24-55.2q-3-6.1-6.4-12.1c-4 20.8-12.6 40.6-27 58.2-5.2 6.4-11.4 13.4-10.8 21.6z"/>
				<path id="&lt;Path&gt;" class="s2" d="m254.8 141.3c7-2.7 14.7 3.7 18 0 2.2-2.5 0.6-7.4 0-9-5.6-16.2-31-28.5-54-27-2.6 0.2-14.2 1.1-24 9-2.4 1.9-6.7 5.5-6 9 0.7 3.3 5.7 5 9 6 8.3 2.7 12 0.1 15 3 3 2.9 2.1 6.8 3 12 2.4 13.5 16.8 26.1 24 24 8.2-2.4 4.3-22.9 15-27z"/>
				<path id="&lt;Path&gt;" class="s2" d="m639.6 1128.9c0.6 11.8 7.2 25.8 17.2 29.4 4 1.4 6.1 0.4 15 3 7.8 2.3 10.3 4.3 12 3 2.6-2.1-2.1-8.5-3-21-0.2-2.4-0.6-11.5 3-21 4.9-12.8 13.9-17.4 12-21-1.5-2.9-7.3-0.1-18-3-9.4-2.5-10.2-6-15-6-10.9 0.1-24.1 18.5-23.2 36.6z"/>
				<path id="&lt;Path&gt;" class="s2" d="m815.5 1180.8c-5.1-20-23.3-36.4-40-47.9-6.5-1.5-13.6-0.5-19.6 2.5-7.1 3.6-12.8 9.7-16.8 16.5-2.2 3.9-4.3 8.4-8.5 9.9-2.5 1-5.3 0.6-7.9 0.1-3.1-0.7-6.2-1.7-8.6-3.8-11.6-10.5 2.2-37 14.4-42.1 1.1-0.4 2.3-0.7 3.5-1q-4.5-1-9-1.9c-33.2 12.2-23.5 53.1-24.2 54.2 5.9 1.2 5.8-0.5 11.7 0.5 12.4 2.2 26.4-1.2 35.5 9.2 7.7 8.8 1.5 19.8-6 26.7-4.5 4.2-10.5 6.1-16.2 8.4-6.7 2.8-13.2 5.7-19.7 9-2 9.5 0.6 18.2 8.7 23.8 9.2 6.3 21.2 12.4 32.3 13.7 19.4 2.5 40.4-9.4 53.3-23.2 12.8-13.8 22-35.7 17.1-54.6z"/>
			</g>
			<g id="&lt;Group&gt;">
				<path id="&lt;Path&gt;" class="s3" d="m203 97c0 0.5-0.1 1.2-0.5 1.9-0.3 0.4-0.9 1.2-3.5 2.1-1.9 0.7-2.9 1-4 1-0.4 0-4.1-0.1-6-3-0.8-1.2-0.9-2.4-1-3 0.4-2 1.1-4.7 2-8 1-3.5 1.7-6 3-9 1-2.3 2.5-5.5 5-9 1.6 4.9 3 10.6 4 17 0.5 3.5 0.8 6.9 1 10z"/>
				<path id="&lt;Path&gt;" class="s3" d="m369.4 87.9c1.8 10.1 2.3 18.6 0.8 28.9-1.4 9.9-4 19.6-7.7 28.8-3.4 8.7-7.4 17.6-15.1 23.2-7.9 5.9-12.7 11.8-18.5 19.7-2.5 0.1-5.7-0.1-8.1-2.2-3.1-2.7-1.6-6-3-12-2.9-12.4-13.3-16.3-12-27 0.8-6.9 6.6-9.6 6-12-0.4-1.5-3.2-3.1-15-3 8.2-4.2 18.1-6.6 25-13.6 13.5-13.5 30.1-23.4 47.6-30.8z"/>
				<path id="&lt;Path&gt;" class="s3" d="m134.2 280.6c-7.3 0.6-15.1 0.1-20.6-5.4-6.4-6.3-10.9-15.8-15.6-23.5-2.8-4.7-5.7-13.2-12.3-13.4-3-0.1-6.6 1.5-9.4 2.6-3 1.2-10 4.7-11.2 0.8q-0.1-0.3-0.1-0.6c8.1-3 20.3-5.2 23.5-14.6 3.2-9-4.9-17.2-2.8-26q0.1-0.5 0.3-1.1c4.1 1.5 3.4 6.4 5.8 9.2 3.9 4.6 11.8 0.7 16.9 1.1 5.5 0.5 1.7 2.3-1.6 3.5-2.9 1-6.1 1.8-8.8 3.5-4 2.7-6.2 7-6.4 11.8-0.3 6.3 3.3 10.7 6.6 15.6 4.1 6 8.4 11.9 12.9 17.6 4.3 5.6 7.9 8.1 14.1 11.1 3.8 1.7 8.2 3 8.7 7.8z"/>
			</g>
			<g id="&lt;Group&gt;">
				<path id="&lt;Path&gt;" class="s4" d="m166.4 170.5c27-33 51 12 51 12-21 21-45 15-45 15-21-6-6-27-6-27z"/>
				<path id="&lt;Compound Path&gt;" fill-rule="evenodd" class="s5" d="m208.8 169.5c4.6 4.5 14.5 12.3 15.5 18.7-15.5 6.2-33 11.4-49.9 10.4-5.8-0.3-11.4-2.2-15.3-6.7-1.7-1.9-4.4-5.5-4.5-8-0.2-3.7 3.5-9.3 5.4-12.6 6.4-11.8 17.3-20.2 31-14.7 6.8 2.7 12.7 7.8 17.8 12.9zm3.5 15.2c-4.5-6.8-9.4-13.5-16.5-17.8-4.2 6.4-6.9 17.8-15.9 19.3-3.3 0.5-3.5-0.7-3.6-4-0.1-2.3 0.5-4.4 1.3-6.5 1.9-4.6 5.1-8.5 6.4-13.4-5.9 1.2-10.8 2.8-14.5 7.6-3.7 4.9-7.9 15.5-3.3 20.8 5.4 6.1 15.4 2.8 22.1 1.5 7.9-1.5 17.2-2.9 24-7.5z"/>
			</g>
			<path id="&lt;Path&gt;" class="s4" d="m109.3 151.8c10.5 10.5 7.5 16.5 7.5 16.5-18 18-21 12-21 12 12-21 13.5-28.5 13.5-28.5z"/>
			<path id="&lt;Compound Path&gt;" fill-rule="evenodd" class="s5" d="m718.7 1176.3c-10.4-2-20.9-3.1-31.4-4.9q-0.1 0-0.2-0.1c-19.6-3.4-39.4-8.5-58-15.4-7-2.5-13.6-6-19.4-10.7q-4.1-3.4-7.4-7.6-1.9-2.3-3.5-4.9c-2.5-4-2.4-3.4-6.9-1.5q-9.7 4.1-19.4 8.2c-3.2 1.4-6.3 2.7-9.5 4.1-9.6 4-18.5 8.6-28.9 9.8-9.9 1.2-19.7 3.2-29.6 4.4-4.2 0.6-8.3 0.9-12.5 1.1-5.2 0.1-9.9-1.8-12.7 3.3-3.6 6.7-5.8 12.2-13 15.9-6.7 3.4-14.6 4-22.1 4.4-4.2 0.2-8.6 0.2-12.8-0.8-4.2-0.9-7.6-4.1-11.5-5-3.4-0.7-7.5 0.9-11.1 0.7-3.9-0.2-7.7-1.2-11.1-3.2-3.3-1.9-5.9-4.5-9.7-5.5-3.5-0.8-7.1-0.3-10.6-1.3-7.2-2.2-11.8-8.1-13.9-15.1-5.6-18.2 10-29 21.6-39.9q-10.1-4.7-20.2-9.4-4.6-2.2-9.3-4.3c-1.9-0.9-8.4-5.3-10.4-4.9-5 1-6.5 10.2-7.1 14-1.2 6.5-2.2 12.9-4 19.2-1.8 6.2-4.1 12.4-7.5 17.8-3.3 5.1-7.9 6.8-13.2 9.3-12 5.6-24.1 9.9-37.5 9.8-6.3 0-10.9-1.9-16.4-4.5-6.8-3.1-12.4 1-19.2 2.1-6.8 1.1-10.9 0.2-17-2.3-5.8-2.4-11.7-1.2-17.6-2.7-5.3-1.4-9.4-4.5-13.6-8-3.4-3-5.8-5.6-10.4-3.5-5 2.2-9 6.6-14 9.1-5.2 2.5-10.7 3.8-16.5 3.3-6.5-0.4-11.1 1.3-17.4 2.5-7.2 1.4-12.9-0.2-19.5-2.8-5.6-2.3-10-0.9-15.7-1.3-5.2-0.3-10.2-2.4-14.3-5.5-8.4-6.3-13.1-16.6-11.5-27.1 1.7-11.7 3.1-25.1 10.3-34.9 6.4-9 17.3-13.1 22.7-23 5.9-11 4.4-24.3 4.7-36.3 0.7-28.6-3.9-57.1-7.6-85.4-3.8-29.4-6.8-59-11.6-88.3-4.7-29.4-9.7-58.7-14.8-88-1.2-6.6-4-10.6-6.7-16.5-2.6-5.6-4.1-11.6-6.2-17.4-4.6-12.9-12.3-24.5-16-37.7-8-28.1-14.1-55.1-14.9-84.5-0.3-13.8-2.6-27.8-1.2-41.6 1.5-13.5 5.7-26.6 9.1-39.7 7.2-27.3 20.8-52.9 32.3-78.5 5.7-12.9 13.2-25 18.8-37.9 5-11.7 6.5-24.5 5.1-37.1-1.5-13.7-4.3-29.3-9.4-42-5.2-12.9-12.1-25.2-16.2-38.5-4-12.9-4.2-26.3-10.1-38.6-2.7-5.5-3.5-11.2-3.1-16.8 0.3-6.4 2-12.7 4.1-18.8 3.6-10.6 9.2-20.3 17.2-28 9.1-8.7 16.3-15.9 21.4-27.6 2-4.6 5.4-10.9 5.5-15.9 0.2-6.2-1.9-9.8 2.9-15 7.9-8.6 20.6-15 31-20.2 11.4-5.8 23.2-8.7 35.2-12.7 5.4-1.8 6.3-11 8-16.1 2.3-7.2 4.3-14.5 7-21.5 4.5-11.4 10.4-20.8 18.9-29.4 9.1 17.2 13.4 36 21.4 53.5 3.1 6.7 7.2 14.3 14.2 17.6 9.1 4.2 18.6 7 27.5 12 7 3.8 14.4 7.3 22.4 8.8 9.2 1.7 14.8-9 21-14.4 6.4-5.5 13.5-10.3 20.5-15 8.6-5.7 17.4-12.6 26.8-16.9 16.8-7.8 23.5 19.3 25.1 31.1 1.2 8.9 0.8 18.1 1.6 27.2 1 11.2 2.5 22.3 2.6 33.6 0.6 40.8 4.5 83.1-7.1 122.7-2.6 9-7.6 18.1-8.8 27.4-1.3 9.7 5 16.9 9.6 24.8 10.5 17.6 21.2 35.1 31 53.1 4.6 8.3 7.5 16.7 8.4 26.1 0.9 8.8 2.4 16.3 7.2 23.9 5.4 8.4 11.4 16.5 17 24.8 5.3 7.9 10.2 16.4 17.1 23 16.3 15.6 33 30.5 48.5 46.5 11.7 12 22.7 24.7 32.4 38.6 5.3 7.6 9.9 15.6 14.2 23.7 5 9.3 9.5 18.9 14.2 28.5 8.9 18.3 19 36.1 27 54.7 4.6 10.8 8.8 21.8 12.7 32.8 9.6 27.1 17.2 54.9 24.1 82.6 5.1 20.4 10.3 40.9 15.7 61.2 4.9 18.7 10.6 37.3 15 56q0.7 2.9 1.3 5.7c1.9 8.8 2.4 17.6 4.5 26.4 2.3 9.8 2.3 19.9 1.5 29.9-1.7 19.9-6.3 38.8-14.3 57.1-3.6 8.3-8.9 17.3-10.7 26.2-1.5 7.6 3.7 12.2 9.4 16.4 14.8 11.1 35.8 15.2 53.5 19.2 6.8 1.5 13.5 2.7 20.1 3.9 11.2 2.1 22.3 4.6 32.9 10 9.3 4.8 18.2 10.8 26.4 17.5 5.9 4.9 11.5 10.1 16.6 15.6 15.4 16.5 18.7 37.4 13.2 56.6-3.8 13-11.5 25.2-22.2 34.9-25.7 23-67.1 28.8-95.5 7.2-5.9-4.5-10.3-10.7-11.8-18.1-1.8-8.9 2.2-14.2 9.7-18.4 6.5-3.7 14.1-2.5 20.5-6.3 5.4-3.3 13.3-12.2 11.5-19-2.2-8.1-11.5-10.2-18.4-11.6zm-508.9-1089.6c0.6 3.9 0.4 9.7 3.3 12.5 3.4 3.3 9.9 2.7 14.2 3.3-3.4-9.2-7.4-18.4-10.3-27.8-2.2-7.4-2.4-15.5-8.5-21-2.2 11-0.6 22.1 1.3 33zm-20.8 10.3c0.2 0.3 2.2 3.3 6 3.5 2.9 0.2 5.6-1.4 7.1-4q-0.4-2.5-0.7-4.9-1.6-9.9-3.1-19.7c-1.9 2.3-3.4 4.9-4.6 7.6-1.2 2.6-1.7 4.7-2.7 8.4-0.6 2.3-1.3 5.4-2 9.1zm462.3 943.4c8.7-17.7 13.3-35.9 14.1-55.5 0.9-18-2.6-33.9-7.3-50.6q-1-3.7-2.1-7.4c-2.7-9.4-3.6-19.3-6-28.8-2.6-10.1-5.2-20.2-7.8-30.3-5.1-19.9-9.3-40-14.9-59.7-5.5-19.4-11.9-38.5-17.3-57.9q-0.5-1.8-1-3.6c-5.2-18.1-11.4-35.5-19.2-52.8-8.2-18.3-15.2-37.1-24-55.2q-3-6.1-6.4-12.1c-7.1-12.7-15.2-24.9-23.1-37.1-6.2-9.7-13.2-18.7-20.5-27.3-18.3-21.5-39.2-40.6-58.6-61.4-6.7-7.1-12-14.9-17.3-23-5.2-7.9-11.7-14.8-16.9-22.6-9.7-14.6-7.4-33.1-14.2-48.8-7.8-18.1-19.6-35.1-29.6-52.1-4.3-7.3-12-16-12.9-24.6-1-8.9 3.5-19.9 6-28.3 5.4-19 10.6-38.2 10.3-58.1-0.2-9.8-1.5-19.1-0.9-29 0.6-10 1.4-20 2.2-30 0.8-10.5 0.5-20.9-0.1-31.3-0.5-8.8 0.9-21.2-2.8-29.2-3.9 2.3-3.8 6.8-4.6 10.7-1 4.8-2.5 9.7-4.3 14.2-3.3 8.5-8.3 16.2-15.5 21.9-7.5 6-14.8 9.9-19.4 18.8-4.2 7.9-5.5 16.9-7.7 25.5-4.8-7.8-7-16.5-9.7-25.1-2.6-8.7-6.3-17-9.7-25.4-1.3-3.3-4.5-8.5-3.6-11.7 0.8-3.3 4.3-7.5 6.2-10.3 3.7-5.8 11.2-5.9 9-1.1-2.2 4.5-5.4 9.4-4.9 14.6 0.5 5.4 3.5 11.2 5.4 16.2q3.3 8.3 6.7 16.5c5.8-7.9 10.6-13.8 18.5-19.7 7.7-5.6 11.7-14.5 15.1-23.2 3.7-9.2 6.3-18.9 7.7-28.8 1.5-10.3 1-18.8-0.8-28.9-17.5 7.4-34.1 17.3-47.6 30.8-2.9 2.9-5.6 5.6-8.5 7.9-3.7 2.9-7.8 5.2-13 6.6-2.1 0.5-4.6 1.4-6.7 1.4-2.5-0.1-3.4-0.8-5.8-1.9-4.5-2.2-9.5-3.2-14.3-4.9-10.1-3.6-18.9-9.7-29.4-12.7-10.9-3.2-22.4-4.2-33.7-5.2-11-0.9-22.1-2.2-33.1-0.8-11.2 1.5-20.8 6-30.5 11.4-9.9 5.4-20.6 10.7-29.7 17.3-0.9 0.6-5 3.6-5.1 4.6 0 0.8 2.6 3.6 3.2 4.3 2.6 3.4 6.1 6.4 7.2 10.7 1.8 6.7-3.8 13.7-8.5 17.8-7.8 6.9-16.8 11.8-25.2 17.7-3.5 2.5-6.6 5.4-9.4 8.6-8.2 9.5-13 21.8-15.8 34.2-0.4 1.6-0.7 3.3-0.8 4.8-0.2 1.5-0.1 2.9 0.1 4.3 0.3 1.5 0.8 2.9 1.7 4.4 2.6 4.6 5 8.5 6 13.8 2.2 10.3 3.2 20.7 6.2 30.9 3.6 11.9 10 22.4 16.7 32.8 1.1 1.9 3.6 8 5.5 8.9 1.8 0.9 5.9-0.3 7.9 0 6.1 0.9 12.5 3.5 18.4 5.5 12.1 4.2 23.7 9.5 36.8 10 6.1 0.2 12.2-0.5 18.2-2.2 6.3-1.8 9.9-3.3 16-0.2-0.8 4.5-7.7 4.6-11.9 5.6-4.4 1.2-8.9 2.4-13.4 3.2-8.1 1.3-16.4 1.2-24.5 0-16.2-2.6-31.6-9.9-46.3-17 3.5 13.3 7.4 27 8.6 40.7 1.4 15.2-2 28-9.7 40.8-8.3 13.8-16.1 27.9-23.7 42.1-3.1 5.9-6.7 10.9-8.9 17.3-2.3 6.8-5.1 13.6-7.7 20.4-5.7 14.6-9.8 29.7-13.8 44.9-2 7.3-3.9 14.6-5.6 22-1.6 7.5-1 14.6-0.4 22.2 1.5 16.2 1.9 33.4 5.5 49.4 3.5 15.5 8.5 30.7 12 46.3 3.2 14.2 9.5 27.3 15.3 40.6 6.3 14.1 11.4 28.2 14.7 43.4 6.7 30.7 9.8 62.4 13.7 93.6 4 31.4 6.3 63.2 11.3 94.5 2.5 15.4 6.2 30.5 7.4 46.2 1.2 15.9-0.1 31.9-0.1 47.8 0 7.8-1.7 15.2-6.9 21.2-4.2 5-10 6.8-15.4 10.1-12.6 7.8-13.9 25.3-15 38.6-0.6 6.4 1.1 12.5 5 17.6 2.9 4 9 11.1 14.5 9.9 5.3-1.2 1.7-5.3 0.7-8.8-1.2-3.7-1.9-7.7-2.1-11.6-0.2-3.9 0.2-7.8 1.4-11.5 1.5-4.8 3-5.6 6.7-8.5-1 13.4-2.4 36.8 14.1 41.4 4.3 1.2 15.4 3.7 17.9-1.5 1.2-2.6-0.4-6.3-0.9-8.8-1.3-5.6-1.8-11.2-1.3-16.9 0.3-3.6 0.5-10.4 2.8-13.3 3.8-4.5 5.9 0.2 5.9 4.4-0.2 10.3-0.7 19 4.6 28.3 5.1 9.1 11 5 18.9 1.3 3.4-1.6 6.8-3 8.5-6.7 1.6-3.7 0.5-8.2 0.8-12.1 0.7-8.6 4.8-16.1 11.1-21.9 3.3-2.9 7-5.2 9.7-8.7 3.5-4.4 4.2-7.1 2.1-12.2-4.2-9.8-7.7-18.7-8.6-29.4-0.8-11.3-0.6-22.7-0.7-34-0.2-24.3-0.4-48.6-0.9-72.9q-0.4-18-0.8-36c-0.3-10.9 1.6-23.1-5.2-32.3-7.6-10.3-15.7-20.3-23.4-30.6-7.7-10.3-13.8-21.8-20.3-32.8-11.6-19.4-27.4-40.1-23.7-64.1 12.6 17.2 19.4 37.4 31.2 55 6.7 9.8 12.8 20 19 30.2 6.4 10.6 14.3 19.5 22.3 29 7.2 8.7 13.6 18 21.5 26.1 7.6 7.9 16.4 14.6 24.5 21.8 1.9 1.7 4.6 2.6 3.3 4.9-1 1.8-3.9 1.3-5.5 1.3-4.4-0.2-8.7-2.2-12.2-4.6-7.9-5.4-14.7-13.7-21.6-20.3-1.8 14.4 0 29.2 0.4 43.7 0.4 15.1-0.7 30.4 0.3 45.5 0.8 13.4 6 23.1 14.3 33.3 7.7 9.6 19.5 13.3 31 16.2 4.3 1.1 4.1 0.5 5.5-3.9 0.9-3 1.5-5.9 2-9q1.9-12.2 3.7-24.3c2.2-15.5 4.3-31 6.4-46.5 4.6-33 9.8-65.6 17.1-98.1 3.8-16.9 7.8-33.7 11.3-50.7 1.7-8.5 3.1-17.1 3.6-25.7 0.5-9 1.7-15.1 7.8-21.7 2.9 9.8 1.5 20.8 0.3 30.9-1.3 11.6-4.2 23-6.8 34.5-5.5 23.5-11.7 46.9-16.1 70.7-8.6 46.7-11.9 94.5-19.5 141.5-0.9 5.7-1.9 11.3-2.8 16.9-0.7 4.7-0.7 10.5-4 14.1-2.8 3.1-7.2 3.9-11 5.3q-8.6 3-17.1 6.4c-3.7 1.5-7.1 3.2-9.6 6.5-2.7 3.6-3.2 8.2-5.4 12.1-5.3 9.1-15.5 13.3-21.5 21.8-5.3 7.5-4.3 16.2 1.7 23 3.2 3.6 6.9 7.6 10.7 10.6 1.6 1.2 3.3 2.4 5.4 2.5 3.5 0.1 3.6-1.2 3.8-4.1 0.6-9 2.5-18 5.2-26.5 1-3.2 1.9-6.8 3.7-9.7 0.7-1.3 1.3-2.3 2.7-2.9 2.8-1.3 3.5-0.3 3.9 2 1.2 5.8-2.7 13.3-4.2 18.8-1.2 4.4-2.6 9.3-1.6 13.9 2.2 10.2 13.3 14.1 22.5 12.4 3.5-0.7 4.2-0.6 5-3.9 0.5-2.4 0-5.3-0.2-7.7-0.3-4.7-0.6-9.4 2.1-13.5 5.3-7.9 14.5-15.5 24-17.1-8.9 10.8-22.4 22.7-11.7 37.3 5.6 7.6 13.4 6.3 21.9 5.8 7.9-0.6 15.9-1.1 22.9-4.9 14.6-7.8 18.7-27.4 22-42.2 4.3-19.9 9.6-39.5 14.6-59.3 10.3-40.9 18.5-82.1 28.8-123 5.2-20.2 10.8-40.4 15.7-60.6 4.6-19.5 8.6-39 14.6-58.1 2.8-9.3 6.4-17.9 7-27.7 0.6-10 0.2-20.3-0.7-30.2-0.9-10.5-4-20.1-6-30.3-2-10.2-0.8-20.5 1.3-30.5 0.6-3 0.6-9.2 4.3-10.3 3.4-1 4.8 2.1 5.4 4.8 1.9 8.9-1.2 18.9-0.8 28 0.4 10.2 3.2 19.8 5 29.7 1.8 10.2 2.6 20.6 2.2 30.9-0.6 20.8-7 39.8-12.3 59.7-5.4 20.5-10.5 41.1-15.8 61.6-10.3 40.5-20.8 81-30.2 121.7-4.6 19.7-9.2 39.5-13.5 59.2-1.3 6.1-0.4 8 4.5 11.9 6.5 5.1 13.2 9.7 20.6 13.5 8.1 4.1 16 5.9 25 7.2 8.9 1.4 17.1 5 24.8 9.7 16.3 9.9 30.4 23.7 48.2 31.3 18.5 8 36.1 4.3 55.2 1.2 14.6-2.4 28.8-7 42.4-12.9q6.8-3 13.3-6.4c33.8-17.4 51.3-55.9 67.3-88.3zm-213.3 99.2c-4.5-3.6-8.9-7.4-13.5-11-4.1-3.3-6.5-4.7-11.7-5.4 0-0.1 0-0.2-0.1-0.3q0 0-0.1 0c4-9.5-18.9-6.7-22.6-5-9 4-14.9 12.4-14.7 22.4 0.1 4.7 1.8 9.2 4.6 12.9 1 1.5 3.1 3.9 5.3 3.4 2.2-0.5 3.7-5.5 4.8-7.8 5.3-10.4 11.4-20.9 22.6-25.9 0 0.1 0 0.2-0.1 0.2 0.1 0.1 0.2 0.1 0.3 0.1 1.3 4.4-2.2 7.8-4.3 11.4-2.8 4.5-5.5 9.2-7.7 14-4.1 8.9-1.4 18.3 8.9 21.1 9.5 2.7 12.8-7.2 15.9-14.3 2.9-6.8 6.7-11 12.4-15.8zm31.9 17c-5-2.3-10-4.6-15-6.9q-3.1-1.4-6.2-2.9c-2.9-1.3-3.3-1.9-5.9-0.7-5.8 2.8-12 16.8-11.2 23 1.1 8.7 17.4 6.9 23.2 5.3 9.7-2.8 12.5-8.7 15.1-17.8zm-367.6-980.2c4.4-2.3 5.6-2.5 7.4-7.1 1.5-4 2.3-7.5 0.4-11.7-4 5.8-6.8 11.8-7.8 18.8zm113.5 895.5c8.2-5.7 17.8-8.7 26.7-13.2 6.4-3.2 6.4-6.3 5.9-13.2-8-3.3-16.4-5.9-24-9.9-7.4-4-14-9.3-21-14-0.9 11.7-1.5 23.5-0.6 35.3 0.3 4.2 0 12.8 2.6 16.5 3.3 4.9 7 0.9 10.4-1.5zm494.7 95.9c12.4 2.2 26.4-1.2 35.5 9.2 7.7 8.8 1.5 19.8-6 26.7-4.5 4.2-10.5 6.1-16.2 8.4-6.7 2.8-13.2 5.7-19.7 9-2 9.5 0.6 18.2 8.7 23.8 9.2 6.3 21.2 12.4 32.3 13.7 19.4 2.5 40.4-9.4 53.3-23.2 12.8-13.8 22-35.7 17.1-54.6-5.4-21.2-25.5-38.4-43-50-15.5-10.2-32.1-14.1-49.5-17.7-5.2-1.1-10.4-2.1-15.7-3.3-12.2-2.6-24.8-4.9-36.4-9.4-4.9-1.9-9.6-4.3-13.8-7.6-2.7-2.1-10.4-12-13.2-11.6-3.9 0.7-8.4 8.3-10.7 11.2-3.8 4.6-7.3 9.3-11.1 13.9-3.2 4-6.6 8-10.2 11.7-1.2 1.3-6.2 4.6-6.6 6.2-0.3 1.5 3.1 5.8 3.9 6.9 12.7 18.4 39.3 23.2 59.5 28q12 2.9 24.2 5.4 8.8 1.7 17.6 3.3z"/>
		</g>
	</g>
</svg>