<svg version="1.2" xmlns="http://www.w3.org/2000/svg" viewBox="0 0 1168 1224" width="1168" height="1224">
	<title>AdobeStock_261425763-ai</title>
	<style>
		.s0 { fill: #ffffff } 
		.s1 { fill: #cc8629 } 
		.s2 { fill: #000000 } 
		.s3 { fill: #f9afc7 } 
		.s4 { fill: #d8ff8d } 
	</style>
	<g id="cats">
		<g id="cat 1">
			<g id="&lt;Group&gt;">
				<path id="&lt;Path&gt;" class="s0" d="m1032.1 433.9c-24.8-6.6-52.8-5.3-100-3-9.1 0.4-16.3 0.5-30.6 0.5-12.1 0-16.3-0.1-21.2-0.8-11.3-1.6-20.2-5.1-26.1-7.8 3.1-1.1 8.1-3.1 13.5-6.7 24.5-16.6 18.6-41 40.8-56.6 13.1-9.3 31.5-12.1 32.7-12.3 8.3-1.2 14.7-0.8 25.3-4.6 5.3-1.9 11.1-4 16.9-9.1 7.1-6.2 10.1-13.3 12.6-19 0 0 3.3-7.7 3.5-13.6 0 0 0.1-2.3 0.1-2.3q0-0.4 0-0.8c0.2-19-3.5-28.3-4.2-39.3-0.1-0.5 0.2-4.1 0.7-11.5 1.4-20.2 1.9-22.3 1.9-26.7-0.1-11.9-3.7-20.7-7-28.7-3.1-7.5-7.9-19.4-18.1-29.6 6.3 5 14.3 9.8 18.4 13 6.7-14.9 11.9-30.4 14.6-46.6-4.2-5.7-14.9-3.9-40.4 18.9-3 2.7-1.4 6.2 2.1 10q-0.4-0.3-0.7-0.6c-9.9-7.6-23.1-13-25-13.7-10.5-4.2-15.7-4.5-19.6-9.7-3.5-4.8-2.7-9.6-2.1-21.7 1.4-26.1 2-39.2-4.2-43.5-1.2-0.8-4.1-2.4-15.3 0.3-20.1 4.7-33.9 15.3-36.8 17.6-24.7 19.5-40.5 46-47.3 58.5-5.3-2.4-9.3-2.4-11.8-2.2-9.1 1-13 7.9-36.5 33-2.6 2.8-4.8 5.1-8.2 8.9-6.2 6.9-10.5 12.3-14.9 17.4-18.4 21.5-28 31.9-41.1 41.3-19.8 14.3-22.7 7.5-46.7 22-20.9 12.6-34.4 27.3-51 45.5-15.2 16.6-14.9 19.3-31.2 37-5.9 6.5-17.9 19.2-37 36-59.2 51.8-106.5 72.2-163.8 128.6-18.4 18.1-11.5 14-57.2 62.8-46 49.1-51 51.1-68.2 72.9-30 38.1-46.7 72.4-56.7 93.4-21 43.8-31.7 81-36.6 100-12.9 50.2-5.5 51.6-17.8 93-8.5 28.6-21.6 51.8-43.2 100.3-11.4 25.4-22.6 50.9-34.9 75.8-13.1 26.5-32.6 50.5 0.6 64.6 1.1 0.5 11.9 5 23.5 2.4 4.6-1 17.5-4.9 35.7-37.7 8.7-15.9 8.2-19.7 22-54 13.1-32.7 13.2-28.3 21.5-50.9 6.8-18.4 8.6-26.4 16.4-39.7 2.9-5 9.5-15.6 20.1-26.8 14.4-15.2 24.5-19.3 42.5-31.9 16.6-11.6 26.7-21.5 47-40.2 27.9-25.9 30.3-30.2 51.5-48.6 15.3-13.2 17.7-14.2 32.1-26.5 14.8-12.7 32.6-29.1 52-49.6-7.1 8.6-17.8 21.6-31.2 37-28.8 33-33.4 35.3-46.2 52.5-14.7 19.9-23.2 36.6-35.5 60.7-12.2 24-19.5 38.3-25.5 56.3-18.1 54 1.9 60.9-13.5 116.5 0 0-18.1 65.4-12.1 80.6 4.7 11.6 11.1 13.4 12.4 13.8 12.2 3.2 26-13.9 30-18.8 11.7-14.4 13.7-25.8 26.9-80.5 1.1-4.9 8.3-34.1 20.7-63.3 2.8-6.6 6.3-14.1 13.1-22 3.1-3.5 7.4-7.6 26.2-20.5 9.4-6.5 16.2-10.9 19.7-13.2 20.4-13.3 30.6-20 38.4-27.1 16.2-14.6 24.7-35.7 41.7-77.8 2.7-6.6 5.5-14.1 10.7-25.5 4.4-9.6 10.2-22.1 18.8-36.2 2.4-3.8 12.8-20.5 28.2-37.5 30.9-34 43.1-26.7 78.4-61.9 10.2-10.1 26.6-28.3 38.2-41.9 4.5-5.3 8-9.6 11-13.3 9-11.4 15.5-19.7 16.6-21.3 57.3-75.1 108-90 108-90 8-2.4 20.7-5.3 37.6-5.4 12.4 3.1 28.6 5.9 47.7 5.7 6.6-0.1 21.7-0.6 40.5-4.8 15.6-3.5 26.1-7.9 45.7-16.1 11.9-5 28-12.2 46.7-21.9-8-1.6-20.5-3.5-36-3.6-32.5-0.2-40.8 7.9-88 14.5-32.6 4.5-50.4 3.7-67.1-0.1-11.1-2.5-23.2-6.6-23.1-7.3 0.2-0.8 18.8 4.8 38.4 7.1 27.4 3.1 33.9-3.1 96.2-12 37.2-5.3 52.3-5.6 68.3-3.8 11.9 1.4 20.7 2.4 32.5 6 24.9 7.5 33.9 17.6 52 15.6 5.6-0.6 17.1-2 19.9-8.6 6.2-14.9-31.8-56.7-78.9-69.3z"/>
				<path id="&lt;Path&gt;" class="s0" d="m150.5 692.7c15.7 4.3 44.5 11.1 56.3 2.6 14.4-10.3 29.4-42.2 39.3-56.5-40.4 7.6-65.6 10.8-102.4-12.1-13-8.1-33.5-28.2-49.6-28.3-20.8-0.2-17.4 21.9-12.4 35.9 10.3 29.1 40 50.5 68.8 58.4z"/>
				<path id="&lt;Path&gt;" class="s0" d="m1107.9 455.4c6.7-26.4-48.1-31-62.8-28.2 12.1 8.8 57.8 47.9 62.8 28.2z"/>
			</g>
			<g id="&lt;Group&gt;">
				<path id="&lt;Path&gt;" class="s1" d="m731.3 217.6c-5.3-3.3-15.7 11-39 27-24.3 16.7-34.1 15.8-53 32.2-10 8.5-25.3 22.1-43 39.8-19 18.8-31.9 33.5-35.3 37.3-18.2 20.5-53.8 53.7-130.2 109.8 19.1 15 9.2 48.6 25.6 66.6 10.3 11.3 27.8 12.6 42.7 9.2 14.9-3.5 28.7-10.7 43.7-13.7 5.2-1 10.6-1.5 15.8-0.5 9.3 1.9 16.7 8.4 23.7 14.7 17.4 15.5 35.6 31.4 58 37.7 22.3 6.3 50.1 0 61.2-20.4-13.8-15.4-5-40.5-12.7-59.7-4.4-10.8-13.7-18.8-23.2-25.7-19.4-13.9-41.1-24.6-64-31.5-20.4-6.2 30.4-103.8 34.9-113.3 2.4-5.2 4.4-10.1 6-14.7 10.3 3.8 21.6 5.9 32.5 7.8 4.6 0.8 9.5 1.6 14 0.4 3.5-1 6.6-3.1 9.5-5.4 24.9-20.1 33.4-80.6 33.4-80.6 1.7-10.9 1.8-15.4-0.6-17z"/>
				<path id="&lt;Path&gt;" class="s1" d="m462.9 589c-7.7-5.7-17.8-6.7-26.6-10.6-32.2-14.6-29-73.4-49.4-77.8-11.2-2.3-19.8 14.8-45.6 47-39.3 48.9-52.3 50.3-89.5 96 1.5-4 2.4-8.1 1.8-12.3-23 5.6-47.1 11.2-70 5.2-10.1-2.7-19.5-7.6-28.8-12.4-9.3-4.8-18.6-11.7-28.2-15.5 0.1 12.3 2 22.7-4.8 34.2-6.4 10.6-17.7 18.1-29.9 20 2.3 6.8 8.4 11.7 14.6 15.5 22 13.7 47.9 19.3 73.2 24.8 6.8 1.4 14.1 2.9 20.8 1 4.7-1.4 8.7-4.2 12.3-7.7-2.2 3.4-4.4 7-6.7 10.8-19.4 32.4-31.4 61.9-38.8 83.4 3.9 0.8 19.9 3.6 36-6 19.8-11.8 23.5-33 24-36 5.5 12.7 13.7 28 25.6 43.8 20.8 27.4 44.2 44.4 60.6 54.4 8.1-16.5 37.6-11.5 45.3-28.1 1.6-3.6 1.9-7.7 1.9-11.7-0.3-27.7-16-54.8-40-68.9-10.4-6.1-22.3-10-31.3-18-9-8-14.2-22.5-7-32.2 8.1-10.9 24.8-8.5 37.8-4.6 18.3 5.5 37 11.8 56.1 11 19.1-0.8 39.3-10.7 46.1-28.6 3.7-9.7 3.1-20.5 5.3-30.7 2.2-10.2 9-20.9 19.4-21.8 5.8-0.5 12.1 2.1 17.3-0.4 8.7-4.1 6.1-18.1-1.5-23.8z"/>
				<path id="&lt;Path&gt;" class="s1" d="m829.2 369.4c0 0 1.1-16.8-8.4-30.2-7.3-10.3-26.6-3.9-33.5 6.7-4.2 6.4-5 14.5-4.5 22.1 0.5 7.1 2.3 14.4 6.9 19.9 6.4 7.5 17.9 10 26.8 5.8 8.9-4.1 14.4-14.6 12.7-24.3z"/>
				<path id="&lt;Path&gt;" class="s1" d="m852.5 410c-14.6 4.7-21.9 21.7-31.4 33.8-2.8 3.5-5.7 7.8-4.6 12.2 0.9 3.9 4.6 6.4 8 8.4 8.8 5.3 18.4 10.3 28.7 10 21.2-0.7 34.5-22.5 43.8-41.6 0 0-33.7-26.2-44.5-22.8z"/>
				<path id="&lt;Path&gt;" class="s1" d="m965.3 157.4c-9.4-8.4-18-12.6-24-14.8-8-2.9-14-3.5-18-9-2.1-2.9-3-6.2-3-15-0.3-24.1 5.5-32.1-0.1-42.2-0.8-1.5-3.5-6.4-8.9-8.8-4.1-1.8-12.9-3.8-33 9-18.4 11.7-25.1 22.4-42.1 39.4-7.2 7.3-18.1 17.5-32.8 28.8q-3.9 11.5-7.7 23c-5.1 15.4-10.2 32.4-4.2 47.5 5.1 12.9 17.9 21.8 31.5 24.7 13.6 2.9 27.9 0.5 41-4 8-2.8 16-6.5 21.8-12.7 5.3-5.6 8.6-13 14.3-18.2 6.7-6 15.7-8.3 24.1-11.4 12.3-4.6 23.8-11.3 33.9-19.8 4.9-4.2 9.9-10.6 7.2-16.5z"/>
			</g>
			<g id="&lt;Group&gt;">
				<path id="&lt;Path&gt;" class="s2" d="m200.3 637.9c-1.6 0-5.2-0.2-8.2 1.3-5-0.2-11.4-0.2-19.1-2.5-11.9-3.5-20.7-10.1-26.6-15.7-0.1 3-1.7 21.6-6.2 29.3-11.4 19.8-34.4 23.1-37.8 23.6 1.6 1.6 15.7 15.5 35.6 12.7 17-2.3 31.2-15.9 35.3-34-0.9 9.7 3.8 17.7 10.1 20.3-5.1 11.5-14 21.6-25.6 27.9 3.2 0.8 8.1 1.8 14 2.7 16.5 2.6 27.6 4.3 37.5 0.1 8.3-3.5 12.5-10.3 21-24 10.3-16.7 21-34 15-42-6-7.9-22.1 1.2-45 0.3z"/>
				<path id="&lt;Path&gt;" class="s2" d="m873 166.7c-8.2-6.8-30.5-4.2-38.8 1.1-5.1 3.3-7.8 9.2-9.5 15-0.6 1.7-1.3 3.7-3 4.2-1.5 0.4-3-0.6-4.5-1-3.5-1.1-7.4 1.1-9.5 4.1-2.1 3.1-2.8 6.8-3.4 10.5-0.8 4.3-1.6 8.8-0.9 13.1 0.7 4.4 3.2 8.7 7.3 10.4 3.5 1.5 7.5 0.9 11.2 0.2 3.5-0.6 7-1.3 10.1-2.8 3.5-1.6 6.4-4.2 9.9-5.7 3.5-1.5 8.1-1.5 10.5 1.4 1.2 1.4 1.6 3.1 2.6 4.6 3.3 5.2 11.4 5.3 16.3 1.5 4.8-3.8 6.9-10.1 8-16.2 2-10.8 3.5-32.3-6.3-40.4z"/>
				<path id="&lt;Path&gt;" class="s2" d="m603.3 536c-4.1-9.4-1.5-23-10.5-28.2-4.6-2.6-10.4-1.5-15.7-0.4q-42.8 9.6-85.7 19.2c-9-17.2 2.1-37.7 13.2-53.6 11.1-15.9 23.2-35.4 15.9-53.4-1.7-4.2-5.3-8.5-9.9-8.4-2.6 0-4.9 1.4-7.2 2.8-38.2 23.6-74.7 50.1-108.8 79.4-5.6 4.7-23.1 15.9-28.9 26.8q-0.2 0.2-0.4 0.4c-7.1 6.2-11.7 11.6-12 12-22.4 26.1-36.5 34.7-60.1 66.4-3.9 5.4-7 9.8-8.9 12.6 7.7 2.8 16.9 2.3 25 6 9.2 4.2 17.5 10.4 27.2 13.2 9.8 2.8 22 1 27.1-7.7 1.7-2.9 2.7-6.5 5.7-8.1 2.3-1.2 5.3-0.7 7.6-1.9 4.5-2.4 4-9.4 0.7-13.2-3.9-4.3-7.6-4.3-12.6-8.3-3.6-2.8-7.7-8.2-8.7-20 0-15.5 5.7-23.5 9-27 3.9-4.3 9.6-6.9 21-12 3.5-1.6 6.9-3 9.9-4.2 12-4 24.7-7.1 32.1-4.8 4.5 1.4 7.9 4.3 7.9 4.3 4.7 3.9 6 8.6 7.5 11.4 6.3 11.9 20.1 19.5 33.5 18.4 7.5-0.7 14.6-3.7 22-4.5 7.5-0.9 16.2 1.3 19.5 7.9 1.7 3.4 1.8 7.3 2.8 10.9 4.5 17.4 26.4 22.9 44.4 23 12.9 0.1 26.5-1.1 37.3-8.3 10.8-7.1 17.5-21.8 11.9-33.5-3-6.2-9-10.8-11.8-17.2z"/>
			</g>
			<g id="&lt;Group&gt;">
				<path id="&lt;Path&gt;" class="s3" d="m981 284.6c-1.7-0.2-15.4 0.9-15.6 0.6q5.1 7 10.3 14c1.1 1.5 2.3 3 3 4.8 0.3 0.7 0.6 1.4 0.9 2.2-1.3 4.2-2.8 8.6-6.4 11-1.7 1.1-3.7 1.6-5.6 2.1-13 3.3-27.7 6-39.2-1-2-1.2-4.7-2.7-6.5-1.2-1.1 0.9-1.2 2.7-0.6 4 0.6 1.3 1.7 2.3 2.9 3.2 6 4.9 13 9.1 20.7 9.2 4 0 7.8-1 11.6-2 6.3-1.7 12.6-3.4 18.6-6 1.4-0.6 3.2-1.9 4.7-2.2 1.2-0.3 2.1 0.2 3.1 0 2-0.3 2.7 0.6 4.1-1.3 2-2.6 0.2-9.8 0-12.8q0-0.5 0-1.2c5.6-3.7 11.4-14 9-18.1-2.1-3.6-11.3-4.8-15-5.3z"/>
				<path id="&lt;Path&gt;" class="s3" d="m998.2 131.7c-37 28.5-11.1 44.4-6.6 43.3 3.5-0.9 4.9-6.4 7.5-17.6 2.9-12.3 5.2-22.3 6.6-28.8-2.8-0.2-5.4 1.4-7.5 3.1z"/>
				<path id="&lt;Path&gt;" class="s3" d="m908.7 91.2c0.2-6.5 0.1-8.6-1.3-9.4-1.6-0.9-5-0.3-25 19.8-16.2 16.3-19.8 21.7-20.9 28.7-0.3 2.1-1.8 11.2 3.1 14.9 1.7 1.2 3.6 1.9 5.5 2.5 3.2 0.9 6.7 1.5 9.9 0.6 3.2-0.9 6-3.7 6.1-7 0.1-2.4-0.7-5.8 1.6-6.3q5.5 6.2 11 12.5c-0.2-4.5 0.8-9 2.7-13.1q4.8 5.6 9.6 11.1c-2.5-7.7-3.2-14.1-3.5-18.3-0.5-8.9 0.7-17.6 1.2-36z"/>
			</g>
			<g id="&lt;Group&gt;">
				<path id="&lt;Path&gt;" class="s4" d="m947.7 218.8c-1-1.9-2.1-3.7-3.5-5.3-3.7-4-9.4-5.5-14.8-5.3-5.4 0.2-10.7 1.9-15.8 3.6-2.2 0.7-4.4 1.5-6.1 3.1-3.1 3.1-2.9 8.2-1.8 12.5 0.6 2.7 1.5 5.5 3 7.9 4.1 6.9 12.2 10.6 20.1 11.4 5.5 0.5 21.8 0.9 24-4.3 2.5-6-2.5-18.2-5.1-23.6z"/>
				<path id="&lt;Compound Path&gt;" fill-rule="evenodd" class="s2" d="m956.3 250.5c-12.2 2.4-34 1.9-44.1-6.7-4.6-3.8-8.4-12.7-9.7-18.3-3.3-13.6-5.9-11.6 9.3-17.9 35-14.4 43.2 16.4 44.5 42.9zm-25.9-9.1q-1.3-14.2-2.6-28.4c-12.6 3.7-27.5 4.7-15.4 20.7 5.1 6.7 9.4 7.4 18 7.7zm17.9 0.3c3.3-2.9 2.2-11.3-4.2-20.4 0.2 2.9 0.3 6.5-0.1 10.5-0.4 4.3-1.3 8-2.2 10.9 4.2 0.8 5.9-0.4 6.5-1z"/>
			</g>
			<g id="&lt;Group&gt;">
				<path id="&lt;Compound Path&gt;" fill-rule="evenodd" class="s2" d="m1125 456.3c-1.3 4-12.7 15.2-14.4 17 2.4 2.9 12.7 29.5-2.7 39.3-33.7 21.6-63-16.9-94.5-6.5-33.1 11-59.8 28.1-95.4 33.8-33.6 5.4-67.4-6.3-100.1-1.1-26.3 4.2-56.2 31.9-76.2 48.8-52.6 44.3-89.3 106.6-144 149.2-18 14-47.8 28.1-59.8 47.8-14.2 23.4-22.7 51.9-33.6 77.3-13.2 30.5-29.6 60.4-50.5 86.2-19.8 24.4-51.5 29.4-74.1 50.8-23.2 22-31.6 52.2-40.2 82-7.7 26.7-11.3 67.6-25.1 91.6-9.8 17.1-28.5 26.6-45 21.8-9.7-2.9-15.7-10.2-17.8-13-15.4-20.8-5-47.8 7.8-108.9 16.6-79.4 11.6-94.1 29.4-124.9 3.8-6.5 12.1-19.9 22.8-41 10-19.9 17-36.7 21.2-47.5-26.8 26.8-44.6 57.9-77.7 77.6-19.2 11.4-40.6 24.4-56 40.9-11.8 12.6-16.2 29.8-22.6 45.6-15.4 38.3-31 76.5-48.3 114-16.4 35.3-36.2 64.7-78.7 43.4-38.7-19.5-3.6-69.2 8.3-97.2 17.7-41.5 36.2-82.8 56.8-123 19.8-38.7 25.6-85.9 35-128.2 9.6-43.6 23.1-82.1 43.5-121.8-46-5.6-97.8-14.3-121.3-60.3-24.5-47.9 11.1-75.8 55.7-51.8 21.9 11.8 44.9 32.2 70.1 35.7 20.5 2.8 51.4-4.8 68.7-15.8 20.1-12.8 36-37.9 51.6-56 19.5-22.5 37.7-45.5 60.2-65 39.5-34.2 85.2-59.7 125.2-92.9 43-35.7 74-80 113.5-118.3 35.3-34.2 90.6-45.8 120.1-86.1 13.9-19.1 24.3-34.4 43.9-48.6 17.7-12.8 35.2-20.7 48.9-37.9 15.1-19 63.6-64.3 86.2-51.2 9.8 5.8 11.5 25.5 11.6 26.6 0.5 8.2-1.2 21.2-1.9 26.9-1.2 8.6-2.1 12.1 0.2 15.3 2.8 3.8 6.5 2.4 17.2 6.2 9.1 3.2 10.8 7.4 15.5 6.5 3.8-0.7 5.2-3.6 9.2-8.1 1.2-1.4 11.1-12.4 24.4-16.9 9.2-3.1 21.1-3.4 24.2 1.4 0.1 0.2 0.2 0.3 0.2 0.4 0.5 1.1 0.2 3.5-2.9 14.3-3.7 12.7-7.2 22.8-7.3 23.1-2.1 6.2-4.9 15-7.8 26 1.9 5.1 4.3 12.7 5.1 22.3 0.7 8 0.1 14.9-0.3 18.2-0.9 8.1-2.6 14.1-2.9 24.1 0 2.1-0.1 4.5 0.4 7.4 1 6.2 3.8 9.3 4.3 22.9 0.4 8.3 0.8 18.4-3.5 30.1-1.3 3.8-6.1 16.3-17.7 25.8-12.6 10.4-28.9 13.3-48.8 15.8-35 4.3-40.6 40.2-61.7 63.7 13 18.6 78.7 8.9 98.1 7.8 14.8-0.9 29.7 0.6 44.4-0.6 17.4-1.5 34.1-7.6 51.7-6.4 21.3 1.5 66.6 11.5 57.4 41.4zm-62.7-1.3c-30.3-19.5-49.2-21.8-85.1-21.6-35.6 0.1-124.9 16-140.7-28.8 15.8-5.8 17.3 6.5 31.9-3 10.4-6.9 17.4-22 23.3-32.5 11-20 9.3-17.8-10.7-26.5-6.5-2.9-23.4-6.7-25.4-15.7q-0.1-0.7 0.1-1.1c2.1-4.3 26.8 8.1 53.2 12.8 16.1 2.9 47.9 8.6 69.1-9.1 12.3-10.3 16.6-24.8 18.3-33.3 0.7-3.3 1.6-8.4 1.6-14.6-0.1-5.7-0.9-10.4-1.8-14.2-0.8-3.6-1.7-5.8-2.2-7.2-3.3-10.1 1.1-17.8 2.4-31 1.3-12.4-0.9-22.1-1.6-24.7-3.1-13-9.5-21.7-13.4-26.9-2.3-3.1-11.3-14.9-27.8-24.3-9.3-5.3-17.9-8-23.9-9.5 0.1 0.4 0.8 3.3-1.1 5.9-1.2 1.6-2.9 2.2-3.5 2.4-2-3-4.7-7.5-6.7-13.4-2.7-8.2-2.4-14.4-1.7-29.8 1.2-26.5 1.2-32-2.8-35.6-2.7-2.4-7-3.4-14-2.4-39.3 5.7-62.5 50.6-78.4 80.9-14.3-13.2-17.4-3.3-31.9 8.7-11.4 9.4-22.7 18.4-32.1 29.8-20.1 24.1-35.5 45.1-63.5 61-29 16.5-52.6 29.6-74.9 55.2-25 29-47.9 57.4-77.5 81.9-53.4 43.9-114.3 78.7-164.4 126.7-21.1 20.2-37.6 44.8-57.2 66.7-21.5 24.1-47.7 45.9-67 71.1-42.1 55.2-67 109.6-83.5 176.4-8.3 33.5-19.1 66.3-27.8 99.7-9.2 35.1-28.3 67.3-43 100.4-11.3 25.5-22.4 51-34.7 75.9-13 26.6-32.4 50.7 0.8 64.6 31.8 13.3 36.2-10.7 48.8-37.1 16.2-33.9 31.9-67.9 44.8-103.2 12.6-34.6 17.9-53.2 47.5-74.8 32-23.2 61.4-42.1 87.5-72.5 24.4-28.5 56.1-41.6 82.8-67.1 15.8-15.1 39.7-67.2 63.8-52.1-11.6 16.6-25.6 32.5-38.9 47.8-17.6 20.3-39.5 28.4-49.2 54.5-19 51-59.4 84.6-64.3 140.7-2.5 27.6-6.5 55.4-10.6 82.8-3.3 22.1-20.2 60-11.9 80.6 10.6 26.4 27.2 10 34.6-6.9 11.6-26.6 16.3-57.9 24.7-85.7 7.5-24.6 14.7-51.2 30-72.2 16.1-22 37.2-26.9 59.2-40.1 43.3-26 65.4-86.4 84-130.5 7.8-18.6 19-37.6 29.7-54.5 12.9-20.4 35.4-30.5 53.7-45.3 44.6-35.8 81.9-82.2 119.3-125.2 31.9-36.6 78.3-76.6 128.2-81.8 2.9-0.1 7.1-0.3 12.9-0.4 0 0 17.5-0.5 36.2 0.8 13.9 0.9 14.8 2 23.8 1.7 5.3-0.1 11.6-0.7 22.8-2.9 12.4-2.5 18.4-4.9 42.8-12 12.3-3.5 16.2-4.6 22.3-7.5 8.4-4.1 14.7-8.6 18.9-12-26.9-2.1-53.4 5.4-79.9 9.7-17.9 3-36 4.5-54.1 6q-13.1 1.1-26.2 2.2c-2 0.1-57.6-3.3-65.6-20.8 14.6-10.1 45.6 7.7 63.3 8.6 32.8 1.5 63.4-8.4 95.2-13.7 26.2-4.4 62.5-10.6 88.4-2.7 19.5 5.9 49.2 34.5 70.7 18.4 21.3-15.8-25.2-39.7-37.6-47.7zm-855.5 240.3c14.4-10.3 29.4-42.2 39.3-56.5-40.4 7.6-65.6 10.8-102.4-12.1-13-8.1-33.5-28.2-49.6-28.3-20.8-0.2-17.4 21.9-12.4 35.9 10.3 29.1 40 50.5 68.8 58.4 15.7 4.3 44.5 11.1 56.3 2.6zm761.2-544.5c3.7 2.5 8.4 6.3 13.1 11.5 4.5 5.1 7.6 10.1 9.6 14 3.5-7.8 7-16.9 10-27.1 2.1-7.3 3.7-14.3 4.9-20.7-2-0.3-5.3-0.6-9.2 0-8.9 1.6-14.9 7.4-20.2 12.6-2.2 2.1-5.2 5.3-8.2 9.7zm77.1 276.4c12.1 8.8 57.8 47.9 62.8 28.2 6.7-26.4-48.1-31-62.8-28.2z"/>
				<path id="&lt;Path&gt;" class="s2" d="m867.7 149.7c-25.5-22 45.3-60.6 36.9-70.3-15 7.4-70.3 60.7-36.9 70.3z"/>
			</g>
		</g>
	</g>
</svg>