<svg version="1.2" xmlns="http://www.w3.org/2000/svg" viewBox="0 0 515 1164" width="515" height="1164">
	<title>peeking-cat-svg</title>
	<style>
		.s0 { fill: #ffffff } 
		.s1 { fill: #cc8629 } 
		.s2 { fill: #000000 } 
		.s3 { fill: #d8ff8d } 
		.s4 { fill: #f9afc7 } 
	</style>
	<g id="cats">
		<g id="cat 7">
			<path id="&lt;Compound Path&gt;" fill-rule="evenodd" class="s0" d="m496.3 895.8c1.4 18.5 5.9 38-0.2 56.1-23-10.9-45.7-23.7-60.9-44.9-7.2-9.9-8.7-21.1-14.3-31.5-5.5-10.2-18.6-13.7-25.5-23.1-8.2-11.1 3.5-19.5-0.8-31.1-1.8-4.8-7.1-7.1-9-11.3-2.6-5.7 4.4-7.5 9.2-10.3 12.8-7.5 25.9-14.5 38.7-22.3 9.6-5.8 19.1-12.5 12.5-24.9-18.9 12.4-37.7 26.7-57.7 37.1-18.8 9.7-41.2 12.5-61.5 17.5-17.2 4.3-35.1 10.4-52.5 3.7-17.4-6.8-36-11-52.6-19.8-15.3-8-29-18.6-44.1-27-14.7-8-20.1-18.3-28.1-32.3-9.4-16.5-18.2-32-21.3-51.2-0.9-5 0.1-11.9-1.3-16.6-1.2-3.8-4.2-5.4-7.7-8-10-7.8-6.7-8.5-8.7-19.8-1.8-10-11.8-15-34.6-34.4-10.7-9.2-18.4-17-22.8-21.6-8-8.4-14.1-15.9-18.1-21 5.6 0.5 12.8 1.4 21 3 12.5 2.3 11.9 3.3 33 8.9 11.9 3.1 24.7 6.7 27 11.9 1.3 2.9 1.1 5.9 4.2 10.6 1 1.4 5 7.5 8.5 6.6 3.3-0.8 4.2-7.8 4.3-8.8 1.3-11.1-7.5-19.9-8-20.4-2-2-4.9-4.3-21-9-8.9-2.6-13.2-3.4-36-8.9-5.9-1.4-8.6-2.1-12-2.9-8.9-2.4-16.2-4.5-21-6 26.6-3.8 45.1-4.3 58.3-3.9 0 0 18.3 1.1 40.1-7.2 5.2-2 7-4.6 9.4-9.7 3.2-6.8 5.8-10.1 12-14.7 11.5-8.6 23-17.2 34.8-25.2 21.4-14.6 46.6-26.9 52.4-54.3 3.1-14.3 7.6-28 13-41.6 4.5-11.3 7.5-22.6 16.4-30.9 5.8 19.9 0.4 45-0.6 65.4-0.6 11.1-1.9 22.7-1.1 33.8 0.4 6 5.3 18.7 12 8.7 4.6-6.9 2-23.8 2.3-31.5q0.5-18.5 1.1-36.9c0.8-22.7-0.5-46.1 4.9-68.1 30 17.9 47.2 51.4 65.1 79.8 5.7 9.1 11.5 18.2 17.3 27.2 1.5 2.5 7.2 15 9.7 15.5 2.2 0.5 9-3.5 10.4-5.3 3.8-5 1.6-8.5-1.6-13.2-5.6-8.5-11.9-15.6-16.8-24.7 18.6-2.1 38.5 8.8 50.9 22.8 13.4 15.1 26.7 22.1 46 27.8 5.7 1.7 9.3 1.8 12.3 7.4 1.7 3.1 2 6.8 2.2 10.2 0.7 9.7-0.8 19.7-1 29.4-0.5 22.2 0.4 44.4 1.7 66.6 2.5 42.7 5.9 85.3 6.8 128.1 0.8 43.4 1.2 86.7 1.4 130.1 0.1 22.1 0.4 44.1 1.9 66.1zm-144.3-146.2c21.7-4.9 43.1-8.5 56.3-28.6-16.4 5.3-78.5 36.8-83.3 2.4-1.2-9 3.8-17.7 3.1-26.8-1-12.8-5-6.8-11.1-0.4-5.2 5.5-11.1 10.6-18.4 13-3.1 1-7.9 0.3-10.5 1.6-3.2 1.5-4.8 5.4-6.9 8.1 13.7 3.6 37.8 5.4 44.4 20.6 7.3 16.8-7 34.6-14.7 48.4 10.2-4.7 16.2-13 21.2-22.7 1.7-3.2 3.2-8.5 6-11 3.3-3 9.5-3.6 13.9-4.6z"/>
			<path id="&lt;Path&gt;" class="s1" d="m46.2 579c6.2 5.9 8.2 8.5 37.7 35.5 7.1 6.6 12.3 11.4 17.3 19.4 3.7 6 3.4 7.5 9 18 7.4 13.7 9.7 14.7 12.1 21 2.4 6.3 4.1 15.9 0.1 30 17.7-13.7 39.3-35.1 47.8-66.2 9.5-34.7-1.1-66.1 11.5-72.3 10.9-5.3 29.8 10 36.2 15.2 7.3 5.8 8.3 8.6 13.9 15.5 3.3 4.1 7.1 8.7 10.2 11.4 8.3 7.2 20.2 10 30 8.9 6.3-0.7 9.2-2.7 21-9 20.8-11.2 31.2-16.8 35.2-17.3 18.6-2.3 25.2 10.6 47.8 9 5.7-0.4 11.6-1.5 16.1-5 4.5-3.6 46.5-53.1 56.6-72.2 10.1-19.2 12.2-42.9 3.8-62.8-8-19.1-22.6-30.7-38.3-42.6-14.5-11.1-22.5-12.9-25.9-13.5-13.3-2.3-17.8 3.2-27 0.1-9.7-3.2-10.5-11.3-24.1-32.9-11.9-19-20.7-32.7-36.8-39.8-4.3-2-16-7.2-25.5-2.2-7 3.7-9.4 11.1-12.7 21.2-6.6 20.1-14 40-20.8 60.1-6.7 19.8-10.1 29.7-14.7 36.2-8 11.3-8.6 11.6-38.5 31.1-16.2 10.6-30.8 23.6-43.1 38.4-3.4 4-6.6 8.2-11.1 10.8-4.1 2.5-8.9 3.4-13.6 4.2-25 4.5-50.1 6.4-75.1 10.3-27.8 4.3-12.5 26.9 0.9 39.5z"/>
			<g id="&lt;Group&gt;">
				<path id="&lt;Path&gt;" class="s2" d="m162.3 563.2c-2-5.9-2-2.9-14.8-28.9-4.2-8.5-5.2-11.1-4.7-14.5 1.2-6.9 7.6-9.7 19.7-18.4 1.9-1.3 9.7-7.8 25.2-20.8 21.9-18.3 21.8-20 26.9-21 17.7-3.7 35 13.8 39 17.8 10.7 10.9 14.6 22.5 18.1 33 5.5 16.5 11.3 34.1 3.1 45-8.4 11.2-22.3 2.9-33.7 14.2-14.6 14.7-3.4 38.5-15.6 46.3-8.6 5.6-21.1 1.1-25.5-0.7-0.5-0.2-0.8-0.3-1.2-0.5-9.7-4.3-19.6-11.5-24.7-17.3-6.5-7.3-3.6-10.1-11.8-34.2z"/>
				<path id="&lt;Path&gt;" class="s2" d="m436.2 510.1c2.2-0.1 4.4-0.4 6.4 0.5 3.8 1.8 4.5 7.1 3.4 11.1-1.1 4.1-3.5 7.8-3.9 12-0.7 7 4.4 13.6 10.9 16.3 6.5 2.6 26-1.9 28.2-3.6 0 0 3-2.4 5.2-6.1 8-13.8 7.1-39.6 7.1-39.6-1.6-44.4-2-47.9-6.2-51-5.3-3.9-13.2-2.8-29.1-0.5-22 3.1-33.7 5.5-43.3 15.4-19.4 19.8-6.8 47.5 21.3 45.5z"/>
			</g>
			<g id="&lt;Group&gt;">
				<path id="&lt;Path&gt;" class="s3" d="m307 599.4c0.5-4.7 3.1-8.8 5.6-12.8 5.3-8.3 10.8-16.8 18.6-22.8 3.8-2.8 8.1-5.1 12.8-5.5 4.7-0.3 9.8 1.5 12.3 5.5 2.6 4 2.3 9.1 1.8 13.8-1 10.5-2.5 21.6-8.8 30.2-4.4 6-20.5 19.6-28.8 18-7.4-1.6-14.2-19.5-13.5-26.4z"/>
				<path id="&lt;Compound Path&gt;" fill-rule="evenodd" class="s2" d="m360.7 593.3c-5 16.9-20.5 28.1-36.3 35.6-1.9 4.8-3.9 7.9-6.1 8.1-2 0.1-4.7-2.3-7.2-6.5-2.1-2.3-4.3-5.3-6.1-9.2-6.4-14.2-0.6-28.4 1.8-34.3 0.7-1.9 1.5-3.6 2.4-5.3 1.7-3.1 4.3-8.2 8.9-13.7 2.3-2.7 5.8-6.3 10.7-9.8 2.7-1.8 6.7-4.3 12-6.2 5.4-2.1 10.3-4.2 13.3-2.9 12.6 5.4 8.6 44.1 6.6 44.2zm-8-28.4c-7.8 2.1-14.5 3.5-14 12.5 0.4 7 3.8 13.9 0.9 20.8-4.6 10.8-12.2 0.1-20-0.6-3.2-2.7-5.3-2.1-6.4 1.8-1.2 2-1.9 4.1-2.1 6.4-0.2 3.2 1 6.1 2.7 8.7 9.1 13.6 24.6 3.6 32.6-6 10.4-12.2 11.2-28.8 6.3-43.6z"/>
			</g>
			<g id="&lt;Group&gt;">
				<path id="&lt;Path&gt;" class="s3" d="m230.5 696.7c5-3.4 9.2-7.8 13.2-12.2 1.2-1.3 2.5-2.7 2.8-4.4 0.8-3.9-3-7-6.4-9-4.9-2.9-9.9-5.6-15.4-7-5.5-1.3-11.6-1.1-16.5 1.6-3 1.6-5.4 4-8.1 6.1-9.3 7.2-36.7 17.1-15.7 27.8 14.3 7.3 33 6.3 46.1-2.9z"/>
				<path id="&lt;Compound Path&gt;" fill-rule="evenodd" class="s2" d="m253.8 680.2c0.5 5.6-12.7 17.7-17.7 22.5-6.7 6.7-14.8 7.7-23.9 9.9-6.9 1.8-12.4 3.6-18.5 2.8-3.1-0.5-5.2-1.5-7.3-2.4-5.5-2.4-14-6.5-25.1-13.2 1-2.4 2.6-5.8 5.2-9.5 4.6-6.5 9.6-9.4 15.4-14 7-5.5 14.6-13.5 22.7-17.2 8.3-3.7 21.2 1.3 29.4 4.1 6.3 2.2 19.1 9 19.8 17zm-15.1 3.5c0.4-4.7-11.1-12.3-15.5-16.2-0.6 6.5-0.2 13.9-1.9 20.2-0.9 3.2 0.4 3.7-2.4 5.3-2.6 1.4-7.6-1.1-10-2.1-5.1-2.1-9.6-6.3-15.3-6.8-7-0.6-8.8 3.3-13.1 7.8 11.1 10.3 26.2 13.8 40.2 7.1 4.5-2.1 17.4-9.7 18-15.3z"/>
			</g>
			<g id="&lt;Group&gt;">
				<path id="&lt;Compound Path&gt;" class="s4" d="m408.3 721c-13.2 20.1-34.6 23.7-56.3 28.6-4.4 1-10.6 1.6-13.9 4.6-2.8 2.5-4.3 7.8-6 11-5 9.7-11 18-21.2 22.7 7.7-13.8 22-31.6 14.7-48.4-6.6-15.2-30.7-17-44.4-20.6 2.1-2.7 3.7-6.6 6.9-8.1 2.6-1.3 7.4-0.6 10.5-1.6 7.3-2.4 13.2-7.5 18.4-13 6.1-6.4 10.1-12.4 11.1 0.4 0.7 9.1-4.3 17.8-3.1 26.8 4.8 34.4 66.9 2.9 83.3-2.4z"/>
				<path id="&lt;Path&gt;" class="s4" d="m110 620.4q-5.5 6.2-11.1 12.4c-21.9-17.5-43-36.1-63.1-55.7-6.9-6.7-14.3-15.1-13.1-24.6 22.7-2.5 45.4 3.2 67.3 9.5 14.7 4.2 40.5 14.8 27.8 29.5-2.9 3.4-36.4 4.3-6.2 17.1-5.5 3.9-1 11.2-1.6 11.8z"/>
				<path id="&lt;Path&gt;" class="s4" d="m309.6 441.6c2-1 4.3-1.9 6.2-0.8 5.2 2.6 0 13.2 5.4 15.3 7.7-9.9 21.4-14.7 33.6-11.7-17.4-39.9-36-81.5-70.2-108.4 2 36.2 0 72.6-5.9 108.3-6.1 37.1 17.9 3.9 30.9-2.7z"/>
			</g>
			<path id="&lt;Compound Path&gt;" fill-rule="evenodd" class="s2" d="m512.3 1021.7c0.3 21.2-0.6 42.5-0.3 63.8 0.2 20.3 0.5 40.8-8.1 59.7-6.2-12.3-4.4-25.2-4.5-38.9q0-23.2 0-46.3-0.1-20.9 0-41.7c0-10.8 2.6-26.6-2.6-36.6-4.8-9.3-16.9-12.6-25.5-17.3-11.1-6.1-21.7-13.2-31.2-21.6-8.5-7.7-16.4-16.6-22.8-26.1-6.7-9.7-7.4-21.9-14.3-31.4-5.7-7.8-15.1-11.5-19.8-20.2-5.6-10.4-0.1-20.8-3.4-31.2-9.2-28.3-44.7-14.2-64.3-9.6-12.7 3-24.8 7-37.9 4.6-13.7-2.6-27.1-7-40-12-25.5-9.8-46.3-21.6-66.5-39.9-8.4-7.5-18.8-11.9-26.3-20.6-7.2-8.2-11.9-18.3-16.4-28.2-4.8-10.7-9.9-21.8-10.6-33.8-0.7-12.9 0.5-21.2-9.9-30.6-4.8-4.3-5.1-5.7-5.8-12.4-0.5-5.1-0.7-9.1-3.6-13.5-7.2-11.1-20.4-19.9-29.9-28.9-9.9-9.4-19.8-18.8-29.5-28.3-9.2-9-20.9-17.6-25.1-30.2-3.2-9.5 0.4-14 9.6-16.5 14.1-3.8 28.9-5.7 43.3-8.2 25.5-4.5 57.4-2.6 77-21.5 18.3-17.8 36.9-34.8 59.2-47.5 10.6-6 21.2-12.8 26.5-24.4 5.7-12.5 8.2-27 12-40.2 4.2-14.4 8.6-28.9 15.2-42.4 6-12.2 12.8-28.1 23.3-36.9 13.4-11.4 22.8 1.9 31 12.9 9.7 13 18.6 26.8 27.8 40.1 4.8 7 9.3 14.5 14.6 21.1 5.7 7.3 9.7 5.5 18.5 4.9 13.9-1.1 26.5 1.5 38.9 8.1 12 6.6 20.4 16.6 31.4 24.3 11 7.7 25.1 11.4 38.1 13.9 7.8-82.8 5.5-166.3 2.7-249.4-1.4-41.7-4.1-83.4-6.6-125.1-2.3-37.8 9.7-25.4 10.9-5.2 2.1 39.5 5.8 78.9 8.2 118.3 2.4 38.5 3.7 77.4 4.2 116 0.5 40.5-2.1 81-2.3 121.5-0.2 38.5 0.6 77.1 1.7 115.6 1.2 39.7 6.1 79.1 7.2 118.8 2 79.5-0.3 158.8 4.3 238.3 2.5 44.8 0.9 89.7 1.6 134.7zm-16.2-69.8c6.1-18.1 1.6-37.6 0.2-56.1-1.5-22-1.8-44-1.9-66.1-0.2-43.4-0.6-86.7-1.4-130.1-0.9-42.8-4.3-85.4-6.8-128.1-1.3-22.2-2.2-44.4-1.7-66.6 0.2-9.7 1.7-19.7 1-29.4-0.2-3.4-0.5-7.1-2.2-10.2-3-5.6-6.6-5.7-12.3-7.4-19.3-5.7-32.6-12.7-46-27.8-12.4-14-32.3-24.9-50.9-22.8 4.9 9.1 11.2 16.2 16.8 24.7 3.2 4.7 5.4 8.2 1.6 13.2-1.4 1.8-8.2 5.8-10.4 5.3-2.5-0.5-8.2-13-9.7-15.5-5.8-9-11.6-18.1-17.3-27.2-17.9-28.4-35.1-61.9-65.1-79.8-5.4 22-4.1 45.4-4.9 68.1q-0.6 18.4-1.1 36.9c-0.3 7.7 2.3 24.6-2.3 31.5-6.7 10-11.6-2.7-12-8.7-0.8-11.1 0.5-22.7 1.1-33.8 1-20.4 6.4-45.5 0.6-65.4-8.9 8.3-11.9 19.6-16.4 30.9-5.4 13.6-9.9 27.3-13 41.6-5.8 27.4-31 39.7-52.4 54.3-11.8 8-23.3 16.6-34.8 25.2-6.2 4.6-8.8 7.9-12 14.7-2.4 5.1-4.2 7.7-9.4 9.7-12 4.5-27.5 5.4-40.1 7.2-15.5 2.2-31.2 3.1-46.8 4.6 10.2 4.2 18.7 6.7 24.5 8.2 13.6 3.5 20.6 3.5 36.4 8.2 14.3 4.3 17.9 7 20.4 10.2 3.7 4.8 5.5 11.2 5.2 19.9-0.1 3-0.9 7.6-4.3 8.8-3.1 1.1-6.6-3.5-8.5-6.6-2.9-5.1-4.2-9-7.4-12-1.4-1.3-3.3-2.7-7-4-7.8-2.8-32-8.6-64.8-15.4 2.7 3.5 6.7 8.8 12.1 15 3.1 3.6 12.1 13.7 27 26.9 20.7 18.2 30.5 22.7 30.4 32.1 0 3-0.4 7.3 1.8 12.4 0.8 2.1 2.7 4.1 6.9 7.4 3.5 2.6 6.5 4.2 7.7 8 1.4 4.7 0.4 11.6 1.3 16.6 3.1 19.2 11.9 34.7 21.3 51.2 8 14 13.4 24.3 28.1 32.3 15.1 8.4 28.8 19 44.1 27 16.6 8.8 35.2 13 52.6 19.8 17.4 6.7 35.3 0.6 52.5-3.7 20.3-5 42.7-7.8 61.5-17.5 20-10.4 38.8-24.7 57.7-37.1 6.6 12.4-2.9 19.1-12.5 24.9-12.8 7.8-25.9 14.8-38.7 22.3-4.8 2.8-11.8 4.6-9.2 10.3 1.9 4.2 7.2 6.5 9 11.3 4.3 11.6-7.4 20 0.8 31.1 6.9 9.4 20 12.9 25.5 23.1 5.6 10.4 7.1 21.6 14.3 31.5 15.2 21.2 37.9 34 60.9 44.9z"/>
		</g>
	</g>
</svg>