<svg version="1.2" xmlns="http://www.w3.org/2000/svg" viewBox="0 0 1264 1352" width="1264" height="1352">
	<title>AdobeStock_261425763-ai</title>
	<style>
		.s0 { fill: #ffffff } 
		.s1 { fill: #cc8629 } 
		.s2 { fill: #000000 } 
		.s3 { fill: #f9afc7 } 
		.s4 { fill: #d8ff8d } 
	</style>
	<g id="cats">
		<g id="cat 3">
			<g id="&lt;Group&gt;">
				<path id="&lt;Path&gt;" class="s0" d="m1170.4 454.4c1.1-0.7 2.4-0.7 2.8-0.6 4.3 0.2 7.2 6.7 9 10.2 7 13.2 8.7 28.6 14.1 42.4 8.5-22 15.5-44.8 13.5-68.7-1.8-22-5.1-45-12.8-65.8-3.7-10-9.1-19-13.1-28.8-4.3-10.1-9.1-20-14.6-29.6-10.9-18.9-24.1-36.3-38.9-52.3-15.8-17.2-33.3-32.9-51.4-47.7-18.6-15.3-36.3-25-59.6-31.4-23.3-6.3-46.8-10.5-68.3-21.8-9.5-5.1-18.4-11.4-28.1-16.1-10.6-5.2-22.2-8.3-33.5-11.6-48.8-14.5-96.9-31.4-145.2-47.7-23.5-7.9-46.5-14.3-71.5-14.9-23.7-0.5-47.1 5.1-70.8 3.2-11.8-0.9-22.1-6.2-33.5-8-11.1-1.8-24.6 1.9-35.4 4.5-24.5 5.7-48.6 15.5-72.4 23.8-23.4 8.2-46.5 16.9-69.5 26.3-7.4 3-17.8 4.7-18 14.4-0.1 8.2 4.1 20.1 8.7 26.7 6.6 9.7 15 14.7 18.4 26.8 2.1 7.6 2.5 16.5 8.2 22.6 3.4 3.6 8.1 3.8 11.6 6.7 4 3.4 7 9.9 10.1 14.1 7.8 10.7 15.3 21.4 22.2 32.8 6.3 10.5 13.1 20.7 21.3 29.8 7.8 8.7 15.2 17.5 15.4 29.8 0.3 13.6-3.5 28.2-5.6 41.6-1.8 11.1-1.1 26.3-12.5 32.2 1.3-30.5 17-64.9-1.6-92.5-10.5-15.4-22-30.1-32.8-45.2-7.3-10.3-15-26.9-26.9-32.8-2.9-1.4-5.4-1.4-8.4-2-3-0.6-3 0.9-4.7-1.5-0.6-0.9-0.8-3.6-1.1-4.8-1.5-7.1-1.8-14.4-3.5-21.6-1.7-6.4-4.1-12.5-7.9-18-4.2-6-9.8-10.2-13.1-17-6.9-14.5-8.6-31.2-13.1-46.5-4.3-14.5-17.4-17.7-27.3-5.4-10.6 13.1-16.6 30.9-18.5 47.5-2 17.6 0.6 38.8-6.8 55-13.1-15.6 0.5-35.4-4.2-53-7.4 12.9-14.9 25.6-8.6 40.7-19.5 2.8-38.9 2-57.3 10.2-20.5 9.1-37.5 25.5-54.5 39.8-14.7 12.2-30.5 28.3-49.7 32.8-10.4 2.5-20.9-0.1-31.4 0.1-6.2 0.2-12.5 0.6-18.6 1.2-5.3 0.5-6.4 2-10.6 5.2 17.4 4.1 34.8 6.6 52.3 9.8 6.6 1.2 12.4 2.8 17.7 7 2.1 1.8 6 5 6.9 7.7q3.5 2.9-1.2 4.1c-1.3 0.9-12.4-2.1-17.1-4.8-6-3.4-12.7-4.9-19.3-6.1-17.6-3.3-35.3-5.8-53-8.6 8.1 9.2 16.4 17.2 25.9 25.1 10.2 8.6 21.4 20.8 34.7 24.1 8.3 2 15.9 3.6 21.9 10.2 7.3 7.8 7.2 18.1 11.3 27.4 4.7 10.6 8.5 21.2 13 31.9 4.3 10.4 9.5 23.2 17.7 31 6.9 6.6 15.8 9.3 24.8 11.3 13 2.9 25.8 5.9 37.9 11.5 4 1.9 11.6 5.9 20.2 11.3 3.8 2.4 6.8 4.5 9 6 1 1.2 3.9 4.6 9 6 4.1 1.1 7.5 0.4 9 0 4.8 0.5 11.6 1 19.9 0.9 4-0.1 20.4-1.2 43.6-6.9 11.1-2.8 22.9-5.4 32.4-12.3 11-8 14.8-23.2 26.2-29.9 1.1 2.2 3.2 9.6 5.1 10.7 2.2 1.1 12.5-1.4 15.2-1.7 10.5-1.1 20.8-2.8 31-5.3 19-4.7 37.5-9.9 57-12.2 18.1-2.1 35-5 50.3 6.2 14.7 10.9 32.1 18.7 48.4 26.7 18.1 8.9 36.7 17 55.6 24 3.8 1.4 8.1 3.5 12.2 4.3 5.4 1.1 7.3-1.5 12-4.9 8.1-5.7 16.1-11.4 24.6-16.5 7-4.2 14.4-8.4 22.7-8.8 10.2-0.4 21.3 1.6 31.4 3.1 19.7 2.9 38.5 8.7 57.1 15.8 10.2 3.9 20.4 8.5 30.9 11.9 10.3 3.2 21.8 2.4 32.5 2.7 24 0.9 48 1.9 72.1 1.9 0 13.8-14.6 11.3-24.3 11.1-15-0.4-29.9-1.1-44.9-0.6-14.5 0.4-28.4-0.3-42.4-4-13.8-3.6-26.1-10.1-39.2-15.2-24.3-9.6-55.3-21.4-81.6-12.6-12.9 4.3-25.5 15.9-35.8 24.6-8.5 7.1-10 14.6-8.5 25.4 7.2-10 14.3-22.8 28-23-4.8 6.4-16.2 17-15.2 25.9 1.3 10.3 15.8 12.8 23.6 15.5 4.1-12.5 8-24.2 21.8-28.6-2.1 6.1-4 10-7.2 15.5-3.5 6.3-2.3 13.6 1.8 19.3 10 13.8 26.3 6.1 40 5.3 17-1 33 4.3 49.1 8.8 16 4.5 32 9.1 47.7 14.4 15.6 5.2 31.1 10.8 46.4 16.9 15.1 6.1 29.6 15 45.1 19.6 28 8.2 59.6 9 86.5-2.9 7.3-3.2 14.2-7.1 21.2-10.7 5.7-2.9 14.9-5.2 18.7-10.5 4.9-6.9 2.8-17.5 3-25.2 0.1-7.9 2.6-14.5 7.8-20.6 6.8 10.7 5.9 27.3 7.5 39.8 2 15.5 3.9 31 5.6 46.5 3.2 29.8 2.6 59 0.7 88.9-3.8 60.1-7.6 121.5-17.4 181-4.9 29.8-12.1 59.2-19.2 88.6-7.2 29.3-14.1 58.6-23.3 87.5-17.9 56.1-41.5 109.8-60.9 165.2-4.2 12-8.5 24.3-5 37 3.1 11.3 12.4 22.9 23 27.8 20.5 9.6 44.1-22.2 53.8-36.4 14.9-21.9 21.7-48.7 31.3-73.2 10.4-26.9 19.9-53.7 26.8-81.8 28.9-116.6 46.6-235.7 56.3-355.4 2.9-34.9 2.3-69.4 0.8-104.4-1.3-33.2-1.2-66.1-5.4-99.2 0 0-10-33.5-19.1-98.9-0.4-2.9-1.1-9 2-11.1z"/>
				<path id="&lt;Path&gt;" class="s0" d="m218.6 485.7c-5.2 10-5.4 19.5 6.9 22.5 13.9 3.4 27.5-2.7 39.4-9.3-9.1-6-18.2-12.7-27.7-18.1-8.2-4.7-14.1-3.7-18.6 4.9z"/>
				<path id="&lt;Path&gt;" class="s0" d="m183.7 472.5c-6 5.9-7.3 15.9-4.5 23.6 2.8 7.8 12.2 15.5 20.9 11 8.5-4.5 11.3-24 14.2-32.4-9.6-3.4-21.8-10.9-30.6-2.2z"/>
				<path id="&lt;Path&gt;" class="s0" d="m152.7 470.5c-3.3 9.2 2.3 19.5 11.9 21q8.1-14.9 16.2-29.6c-9.9-1.1-23.6-3.9-28.1 8.6z"/>
			</g>
			<g id="&lt;Group&gt;">
				<path id="&lt;Path&gt;" class="s1" d="m1207.1 656.5c-1.9-31.7-3.7-63.5-9.3-94.8-1.9-10.8-3.5-18.9-4.9-25.5-2.5-11.8-4.5-21.1-6.4-29.4-12.5-55.4-13.4-52.6-19.4-81.4-5.5-26.5-5.6-32.9-12-45-7.4-14.1-16.9-23.9-24-30-3.3-1.6-9.9-4.1-18-3-13.2 1.9-24 12.7-27 24-3.5 13.6 6.4 19.8 6 36-0.3 14.4-18.9 61.4-15 81 4.6 22.6 14.2 35.8 21 48 16 28.6 19 59.7 22.3 122 1.7 32.1 0.1 55.8 0.1 94.9 0 27.8 0 55.6-4.1 83-6.3 41.7-21.9 81.4-28.9 123-2.2 13.2-3.5 26.6-6.2 39.8-3.6 17.6-9.7 34.6-15.7 51.6q-35.5 99.5-70.9 198.9c-2.4 6.8-9.5 20-5.2 34.2 6.3 20.7 33.4 36.5 54.6 32.6 22.7-4.1 35-30.1 47.2-59.2 44.3-105.5 66.4-200.1 73.3-233.3q13.2-63.7 26.1-127.5c7.6-37 15-74.2 17.9-111.9 3.4-42.6 0.9-85.4-1.5-128z"/>
				<path id="&lt;Path&gt;" class="s1" d="m1031.1 361.8c11.8-9.8 9.2-28.8 16.9-42.1 2.4-4.1 11.2-11.7 52.5-17.3 17-2.3 40.8-4.3 69.6-3-14.7-23.9-30-41.7-42-54-9.1-9.4-49.9-50.1-87-60-2.5-0.7-10.2-2.6-21-6-11.9-3.8-17.8-6.3-33-12-25.9-9.7-24.4-8.2-33-12-18.3-8-29.8-16.8-36-21-24.9-17-51.4-20.4-84-27-106.8-21.7-115.9-45.3-180-42-22.2 1.1-65.8 3.4-76.8 28.6-5.6 12.8-4.7 35.3 8.2 39 19.6 5.6 36.7-25.1 56-18.4-2.7 8-5.3 16.4-3.8 24.7 1.5 8.3 8.7 16.3 17.1 15.4 6.6-0.7 11.4-6.2 15.9-11.1 20.4-21.8 47.6-37.3 76.8-43.6-3.6 13.2-9 25.8-16.3 37.4 9.3 2 9.4 15.7 4.5 23.9-4.8 8.1-12.6 15.6-12.1 25.1 0.7 12.5 15.8 19.3 28.2 17.8 12.5-1.4 23.7-8 36-10.3 20.6-3.8 43.1 6.2 54.1 24.1-25.2 12.6-51.9 22.1-77.1 34.7-25.2 12.6-49.4 28.7-66.2 51.3-16.8 22.6-25.2 52.8-16.8 79.7 8.4 26.9 36 48.1 63.9 44.3 23.2-3.3 41-21.5 59-36.7 47.7-40.4 116.9-64.8 173.3-37.8 17.2 8.2 38.4 20.5 53.1 8.3z"/>
				<path id="&lt;Path&gt;" class="s1" d="m420.1 224.4c-9-4.7-13-1.1-18-6-6.4-6.3-2-14.5-6-27-3.8-12.1-9.9-10.9-18-24-11.1-18.1-3.4-27.2-15-51-4.6-9.4-9.9-20.5-18-21-3.9-0.2-8 2.1-24 24-12.1 16.6-18.2 25-24 36-14 26.6-8.9 30.7-18 39-12.6 11.6-23.1 4.4-51 15-5.6 2.1-36.3 13.8-38.8 27.8-10.6 5.7-27.8 30.8-56.9 37.8-3.1 0.7-10.2 2.2-18.3 3.4-16.5 2.5-24.7 3.8-33 3-4.5-0.4-8.8-1.2-15 0-2.8 0.6-10.7 2.2-12 6.7-0.8 3.2 2.3 6.2 4.3 9.1q11.6 16.3 23.1 32.5c4.1 5.8 8.4 11.7 14.6 15.2 11.5 6.4 27.3 3.1 37.3 11.6 5.6 4.6 6.4 8.7 9.7 8.4 5-0.5 6.1-10.7 13-26.5 3.7-8.5 7.4-14.7 15-27 14.7-23.9 19.3-23.5 24-36 2.7-6.9 4.3-15.2 4.7-22.4 4.1 2.7 8.9 5.2 13.3 7.4 14.8 7.5 28.4 8.7 33 9 19 1.2 23.2-4.9 39-3 11.8 1.4 15.4 5.5 30 12 22.2 9.8 40.2 11.9 66 15 35.7 4.3 46.2-0.4 51-3 3.4-1.8 17.1-9.3 18-21 0.4-4.7-3.1-10.2-10.2-21.1-8.8-13.6-13.3-20.5-19.8-23.9z"/>
			</g>
			<g id="&lt;Group&gt;">
				<path id="&lt;Path&gt;" class="s2" d="m1073.1 257.1c43.9-78.4-54.3-88.9-108-74.1-18.2 5-43.6 23.3-63.1 20.4-30.7-4.7-18.1-24.1-37.7-37.1-12.6-8.3-57.7-24.5-75.3-27.4-38-6.3-58 7.3-75.5 43.7-12.4 25.5-25.5 55.7-52.9 62.9 10.6-29.6 17-60.7 19.2-92-45.3 50.1-72.4 116.4-75 183.9-0.2 4.2-0.2 8.7 2.2 12.1 3.6 5.1 11.1 5.8 17.1 4.3 22.1-5.4 33.1-29.1 46.4-47.4 13.4-18.3 41.5-32.9 57.1-16.5 7.6 8 4.7 15.7 14.6 25.9 14 14.5 46.6 19.5 64.9 1.6 14.6-14.3 12.4-35.6 12-39 14.5 5.5 36.4 13.6 63.6 22.2 4.5 1.4 22.3 6.2 30.2 9.1 53.9 20 130.8-0.1 160.2-52.6z"/>
				<path id="&lt;Path&gt;" class="s2" d="m531.3 123.8c-3.3-2-7-4.1-8.2-7.7-1.4-4.4 1.4-9 1.2-13.6-0.2-6.6-6.4-11.3-12.4-13.9-21.5-9.3-49 3.4-53.3 5.6-9.1 4.8-27.7 14.5-32.5 34.2-2.6 11 0.2 20.5 0.9 22.6 3.8 12.1 11.5 19.8 14.7 20.9 8.7 2.9 45.2 7.9 51.2 8 6 0.1 11.7-2.6 16.6-6.1 2.4-1.7 4.8-3.7 5.9-6.4 0.8-2 0.9-4.3 1.8-6.2 3.8-7.8 16.4-4.5 23-9.9 4.4-3.6 5.1-10.4 2.8-15.6-2.3-5.2-6.9-8.9-11.7-11.9z"/>
				<path id="&lt;Path&gt;" class="s2" d="m198.1 233.4c-2.6 1-4 2.1-24 18-9.9 7.9-14.9 11.9-15 12-16.5 19.6-13.5 49.7-6 69 3.9 10 8.1 20.5 18 24 13.7 4.8 32.7-5.7 38-19 3.8-9.5-1.6-15.3 4-26 2.8-5.3 4.7-4.9 13.9-14.3 11.2-11.5 17.9-18.3 19.1-27.7 0.5-3.7 0.6-11.1-6-21-23.7-19.2-36.8-16.9-42-15z"/>
				<path id="&lt;Path&gt;" class="s2" d="m1111.7 323.8q5.2 4.1 10.5 8.3c3.1 2.4 6.4 5 10.3 5.4 5.1 0.7 10.5-2.2 15 0.1 5.7 2.9 5.2 11.3 8.7 16.7 4 5.9 12.2 6.9 19.4 6.8q9.2-0.2 18.3-1.5c1.3-0.2 2.7-0.5 3.6-1.5 1.2-1.5 0.6-3.8-0.1-5.6-7-18.6-14-37.2-24.1-54.3-7.8-13-25.2-40.3-42.6-40.6-17.2-0.2-31.5 23.2-33.6 37.8-0.6 3.8-0.7 7.9 0.5 11.6 2.1 7.1 8.2 12.2 14.1 16.8z"/>
				<path id="&lt;Path&gt;" class="s2" d="m1146.5 1071.3c-5.9-12.9-22.5-16.6-36.7-15.8-15 0.9-29.8 5.2-43 12.5-5.1-2.7-4.6 5.6-7.1 10.8-24.3 51.5-45.1 104.6-62.4 158.9-7.1 22-12.9 48.3 1.5 66.6 13.5 17.3 40.7 18.7 60 8.1 19.3-10.5 32-30 41.5-49.8 20.3-41.9 42.6-87.5 38.1-133.9-1.9-19.6 16.4-39.5 8.1-57.4z"/>
				<path id="&lt;Path&gt;" class="s2" d="m1209.6 673c-2.7-35.6-6.2-40.6-9.5-41.3-7.3-1.6-20.1 15.5-24 32.8-3.1 13.6 1.3 16.9-2.3 29.1-2.9 10.2-12 26.2-26.3 26.9-14.7 0.8-24.8-14.7-25.5-15.9q-2.3 25.8-4.6 51.6-1.6 16.7-3.2 33.4-0.3 13.6-0.6 27.2c9.5-17.7 23.8-27.9 34.6-25.1 9.7 2.4 17.2 14.6 17.8 19.9 1 10 0.6 22 8.8 27.9 8.6 6.3 21.7 0.7 27-8.6 6.1-10.5 5.7-22.1 4.7-31.2-5.2-46.9 9.2-47 3.1-126.7z"/>
				<path id="&lt;Path&gt;" class="s2" d="m1134.1 905.4c-22.3 1.9-35.1 18.8-37.1 21.6q-10 52.8-19.9 105.6c1.2-5 3.2-11.2 7.1-17.1 4.9-7.6 15.5-14.9 28.9-15.8 1.9-0.2 18.1-1 30 10.7 9.4 9.2 10.8 20.8 12 33 2.3 22.4-3.7 38.8-3 39 0.7 0.2 6.5-17.1 18.9-70 15-63.8 15.2-75.3 8.1-86-8.8-13.4-26.6-22.5-45-21z"/>
				<path id="&lt;Path&gt;" class="s2" d="m1077.1 1032.6c-0.6 2.6-1 4.8-1.2 6.5q0.6-3.3 1.2-6.5z"/>
			</g>
			<g id="&lt;Group&gt;">
				<path id="&lt;Path&gt;" class="s3" d="m388.3 424.4c-0.9-0.5-3.6 2.5-7.2 7-3.6 4.5-7 6.9-13.2 11.3-4.8 3.3-9.2 6.4-16 8.2q-5.3 1.4-10.9 1.4c-6.5-0.1-12.7-1.7-18.9-3.5-2.5-0.7-9-4-10-5.4-0.6-0.9-1.9-2.6-2.7-5.1-1-3.1-0.7-5.4-0.3-9.9 0.7-7.6 1-11.5 0-12-1.6-0.9-4.3 3.9-12 9-2.3 1.5-6.3 4.2-12 6-6.8 2.2-11.8 1.8-12 3 0 0.6 1.1 1.5 6 3 1.6 0.9 4 2.2 7.1 3.6 2.5 1.2 3.5 1.5 4.9 2.4 1.6 1 4.5 2.9 6 6 3.9 8.1-4.3 18.9-6 21-3 3.9-9.4 8.7-17.4 11.6-3.4 1.2-6.4 1.8-6.6 3.4-0.2 2.1 4.8 4.4 9 6 4.2-1.1 10-4.1 18-12 9.3-9.1 12.1-19.5 12.9-23.7 10.9 4.1 20.4 8 32.2 7 5.1-0.4 19.6-1.1 32.7-11.1 2.5-1.9 11.2-8.9 15.2-20.2 0.3-0.7 2.3-6.4 1.2-7z"/>
				<path id="&lt;Path&gt;" class="s3" d="m342.8 190.9c1.8 0 3.7 0.1 5.1 1.1 2 1.5 2.4 4.4 1.7 6.7-0.7 2.3-2.4 4.3-4 6.1q17 2 34 3.9c1.3 0.2 2.8 0.2 3.6-0.8 0.7-0.7 0.6-1.8 0.6-2.8-0.4-6.7-0.9-13.7-4.8-19-2-2.9-4.9-5.1-7.2-7.7-10.7-11.9-9.6-30.1-16.1-44.7-0.6-1.5-1.3-2.9-2.5-3.9-1.7-1.4-4.1-1.8-6.3-1.7-7.9 0.4-15 5.5-19.6 12-4.6 6.4-7.2 14.1-9.6 21.6-2.1 6.7-11.1 29.4-4.8 35.6 4.4 4.5 22.3-6.2 29.9-6.4z"/>
				<path id="&lt;Path&gt;" class="s3" d="m62 294.8c-5.2 0.3-10.2 1-14.9 1.8 7.2 11.7 17.6 21.2 27.8 30.4 3.5 3.3 7.1 6.5 10.9 9.3 22.5 16.9 48.1 25.3 50.6 21.3 1.4-2.3-5.8-6.9-4.3-13.2 1-4.1 5.3-6.7 8.6-8.2-0.5-2.8-2.4-4.7-4.8-6.3-4.2-2.6-7.9-2.7-8-3.7 0-2.1 17.1-2 19.2-8.8 0.4-1.2 0.2-2.3 0-3-19.9-10.5-49.6-21.9-85.1-19.6z"/>
			</g>
			<g id="&lt;Group&gt;">
				<path id="&lt;Path&gt;" class="s4" d="m191.8 370.4c15-2.7 30.5 0.2 45.5 3.1 1.7 0.4 3.5 0.7 4.8 1.9 1.9 1.6 2.4 4.3 1.9 6.7-0.5 2.3-1.9 4.4-3.2 6.5-4.8 7.7-10.3 15.9-18.9 19-8.6 3.2-18.4 0.4-25.7-4.9-5.8-4.2-15.2-12.7-17.6-19.6-2.9-8.3 5-11.2 13.2-12.7z"/>
				<path id="&lt;Compound Path&gt;" fill-rule="evenodd" class="s2" d="m199.4 364.5c16.5 0.7 38.6-2.2 51.9 9.8-6.5 16.3-13.3 40.1-35.4 39.6-9.6-0.2-17.6-6.5-24-13-3.6-3.6-6.8-7.5-10-11.3-3.1-3.6-2.4-4.1-6.7-3.6-2.8 0.3-5.8 1.8-8.4 2.6-2.7-15.7 20.4-24.7 32.6-24.1zm19 40.4c4.2 2 12.7-7.6 13.4-8.7 3.5-4.8 6-10.7 8-14.8-10-6.1-21.6-6.4-33.1-6.4 1.4 3.9 2.5 7 3.3 9 3.4 9 3.7 8.4 5.4 13.4 1.8 5.6 1.6 6.9 3 7.5zm-13.8-4.8c-2.3-3.3-4.1-6.1-5.3-8-2.4-3.8-3.3-5.6-5.4-8.1-2-2.5-4-4.2-5.3-5.3-0.4 2.1-0.3 3.9 0 5.3 1.9 10.7 14.6 15.6 16 16.1z"/>
			</g>
			<g id="&lt;Group&gt;">
				<path id="&lt;Path&gt;" class="s4" d="m325 312.7c3.6-2.2 7.5-3.8 11.4-5.2q9.7-3.7 19.4-7.4c0.8-0.3 1.6-0.6 2.4-0.5 2 0.3 2.9 2.4 3.5 4.3 1.7 5.3 3 10.8 3.1 16.4 0.4 16.5-11.2 32.6-27 37.5-10.8 3.4-34.2 6.2-34.3-10.5 0-11.6 12.3-28.5 21.5-34.6z"/>
				<path id="&lt;Compound Path&gt;" fill-rule="evenodd" class="s2" d="m363.1 347.6c-12.3 15.5-32.8 21-51.3 14.3-6.4-2.3-12.6-5.6-12.2-13.3 0.5-8.3 6.8-18.2 10.6-25.4 4.9-9.5 14.1-13.7 23.6-17.4 11.2-4.4 21.8-9.4 32.5-14.8 5.6 19.9 11 38.7-3.2 56.6zm-2-33.2c-0.4-1.4-1.7-7.2-3-7.9-1.9-0.9-14.4 4.6-19.3 6.6-0.1 0-0.4 0.1-2 1-1.8 0.8-3.2 1.5-3.4 1.7-4.9 2.5-7.4 3.7-8.1 5.4-0.7 1.7 0.3 3 2.7 8.1 0 0 3.1 6.5 5.4 13.5 0.8 2.5 1.9 6.3 2.6 11.1 18.9-5.4 31-19.3 25.1-39.5zm-35.9 37.6c-2.4-2.2-5.4-5.2-8-9.2-1.4-2.3-2.5-4.4-3.4-6.3-6.3 13.9-4.2 17.2 11.4 15.5zm2-33c0.3-0.2 0.5-0.4 0.8-0.5q-0.4 0.2-0.8 0.5z"/>
			</g>
			<g id="&lt;Group&gt;">
				<path id="&lt;Path&gt;" class="s2" d="m600.3 242.8c-4 9.9-8.6 23-12.2 38.6-2.7 11.9-5.7 25-6 42-0.3 22.8 4.7 27.7 3 45-1.5 16.2-7.5 28.8-12.1 36.7 0-7-1.2-13.7 0.3-20.5 1.8-8.3 3.4-15.4 3-24-1.1-22-5.1-23.8-4.3-48.1 0.4-11.8 2.6-20.2 7.1-37.1 2.4-8.9 4.5-14.8 9-21 4.2-5.7 8.9-9.4 12.2-11.6z"/>
				<path id="&lt;Compound Path&gt;" fill-rule="evenodd" class="s2" d="m1206.2 509.2c-3.6 9.1-6.2 16.8-5.4 26.7 0.7 8.9 3.2 17.7 4.6 26.6 3.4 20.9 5.6 42 6.8 63.1 2.5 41.1 3.9 82.5 4.5 123.7 0.3 19.5-2 38.7-4.4 58.1-2.5 20.2-4 40.4-6.6 60.6-2.6 20.1-7.4 39.6-10.9 59.5-3.5 20.3-5.8 40.7-9.7 60.8-7.8 40.7-15.7 81.4-25.5 121.6-9.2 38.1-19.5 76.3-35.4 112.1-14.6 33-30.1 73.2-61 94.6-13 9-28.9 11.6-44.4 9.7-15.3-1.9-25.6-10.8-32.8-24.3-17.2-32.3 3.9-70.4 16-100.8 15.4-38.2 30.7-76.8 43.1-116.1 12.3-39.1 22.2-78.8 32.8-118.3 21.7-79.9 28.9-162 33.6-244.5 1.1-19.5 2.4-39.2 0.6-58.7-1.6-17.8-3.4-35.6-5.1-53.4-34.4 15.8-66 33.1-105 30.3-18.2-1.3-34.8-6.5-51.5-13.7-17.6-7.5-35.4-14.1-53.3-21-18.5-7.1-36.9-14.5-55.8-20.2-17.9-5.5-37.6-11.7-56.5-11-8.6 0.3-17.1 3.5-25.8 2.6-8.1-0.7-14.6-4.4-21.1-8.9-6.2-4.4-13.2-3-20.2-5.6-7.1-2.7-13.1-7.3-19.1-11.9-5-3.7-11.6-7.1-15.3-12.3-1.9-2.7-2.9-5.8-3.3-9-0.5-4.2 2-9.1 1.3-12.9-1.4-7.8-15.7-11.1-22.5-14.2-9.9-4.4-19.9-8.8-29.7-13.3-17.5-8-34.8-15.7-50.1-27.4-6.6-5-13-10.1-21.3-11.9-8.6-2-18.2-0.6-27-0.2-18.8 1-37.7 2.7-55.9 7.8-9.2 2.6-17.8 7-27 9.4-10.5 2.7-18.6 0.4-29-0.7-15.8-1.7-24.4 15.3-36.4 22.8-13.8 8.7-29.8 12.7-45.7 15.6-18.3 3.3-36.6 1.3-54.9 3.8-17.3 2.5-31.4 14.2-49.4 13.1-4.3-0.2-8.5-1.1-12.5-2.4-5.3-1.9-7.1-4.2-12.2-2.7-7 2-12.9 5.8-20.6 4.4-6.8-1.3-10.7-6-15-11-4.8-5.7-10.3-6.4-16.4-10-10.2-6-14.5-19.6-11-30.6 2.1-6.5 6.5-10.7 11.9-14.6 2.8-2.1 5.5-2.8 5.9-6.4 0.4-4.2-4.5-10.7-6.2-14.6-7.6-17.7-13.2-36-19.9-54.1-2.5-6.7-5.3-12.8-12-16.2-7-3.5-15-4.8-22.1-8.4-14.2-7.2-26-17.9-36.6-29.5-7.9-8.8-28.2-26.8-23.7-40.6 1.4-4.1 15.7-6.1 20.9-6.8 10.5-1.5 21.3-1.9 31.9-2.7 20.2-1.5 36.3-3.2 53.4-14.5 15.7-10.2 31.7-20.4 46-32.4 11.5-9.6 21.9-21.3 36-27.1 8.3-3.3 17.6-4.7 26.2-6.6 6.6-1.4 15.2-1.1 20.1-6.4 5-5.5 6.7-15.1 9.8-21.7 4.2-8.7 8.9-17.2 14-25.4 4.5-7.3 9.2-14.4 14-21.4 4.9-7.2 9.4-16.2 16.2-21.6 4.7-3.8 12.8-9.1 19-8.2 8.3 1.2 13 9.6 15.8 16.6 0.7 1.9 1.2 4.7 2.3 6.5 2.2 3.7-0.7 2.8 4.2 2.9 3.5 0.1 8-2.3 11.2-3.4 10-3.7 20.1-7.5 30.2-11.3 17.2-6.4 33.6-14.2 50.7-20.8 18-7 36.5-13 55.1-18.2 17.1-4.9 38.7-11 56.6-8.6 8.3 1.1 15.9 4.7 24.1 6.1 9.8 1.7 19.8 1.3 29.6 1.1 21.2-0.5 42.4-1.9 63.6-0.4 19.5 1.3 37.9 7.1 56.6 12.3 19.4 5.5 38.5 11.5 57.5 18.1 18.5 6.3 36.7 13 55.4 18.7 19.5 5.9 39.4 10.4 58.6 17.4 8 2.8 16.1 5.9 23.5 9.9 8.1 4.4 13 10.8 19.9 16.4 6.3 5.2 14.3 6.4 22 8 10.7 2.2 21.3 4.5 31.9 6.9 17.8 4.1 37.3 6.8 52.9 17.1 14.4 9.4 26.9 22.2 39.6 33.8 26.3 23.9 50.3 49.1 68.6 79.9 9.2 15.4 16.4 31.9 24.2 48 7.9 16.4 14 33.7 14.4 52.1 0.3 18.7 2.9 38 2.2 56.6-0.8 18.3-7.5 36.7-14.1 53.6zm3.7-71.6c-1.9-21.9-5.2-45-12.9-65.8-3.6-9.9-9-19-13.1-28.8-4.2-10.1-9.1-20-14.5-29.5-10.9-18.9-24.2-36.3-38.9-52.4-15.9-17.2-33.3-32.9-51.4-47.6-18.7-15.3-36.3-25.1-59.7-31.4-23.2-6.4-46.7-10.5-68.2-21.9-9.6-5-18.4-11.4-28.2-16.1-10.5-5.1-22.2-8.2-33.4-11.5-48.9-14.5-97-31.4-145.2-47.7-23.6-8-46.6-14.4-71.6-14.9-23.6-0.6-47.1 5.1-70.7 3.2-11.8-1-22.1-6.2-33.5-8.1-11.2-1.8-24.6 2-35.5 4.5-24.5 5.7-48.6 15.5-72.3 23.9-23.5 8.2-46.6 16.8-69.6 26.2-7.4 3-17.8 4.8-17.9 14.5-0.1 8.1 4.1 20 8.6 26.7 6.6 9.6 15 14.7 18.4 26.7 2.2 7.6 2.5 16.6 8.2 22.6 3.5 3.7 8.2 3.8 11.7 6.8 3.9 3.3 7 9.8 10 14 7.9 10.7 15.4 21.5 22.2 32.9 6.3 10.5 13.1 20.7 21.4 29.8 7.8 8.6 15.2 17.5 15.4 29.8 0.2 13.6-3.5 28.1-5.7 41.5-1.8 11.1-1 26.4-12.5 32.3 1.4-30.6 17-65-1.6-92.5-10.4-15.4-21.9-30.2-32.7-45.3-7.4-10.3-15.1-26.8-27-32.7-2.8-1.4-5.4-1.4-8.4-2-3-0.7-2.9 0.8-4.7-1.5-0.6-0.9-0.8-3.7-1-4.8-1.6-7.1-1.8-14.5-3.6-21.6-1.6-6.5-4.1-12.6-7.9-18-4.2-6.1-9.8-10.3-13-17-7-14.6-8.6-31.2-13.2-46.6-4.3-14.4-17.4-17.6-27.3-5.3-10.6 13.1-16.6 30.8-18.4 47.4-2 17.7 0.5 38.9-6.9 55.1-13.1-15.7 0.5-35.4-4.2-53.1-7.3 13-14.9 25.7-8.6 40.8-19.4 2.8-38.9 1.9-57.2 10.1-20.5 9.2-37.6 25.6-54.6 39.8-14.7 12.2-30.5 28.4-49.7 32.9-10.3 2.4-20.8-0.2-31.3 0.1-6.2 0.1-12.5 0.5-18.7 1.2-5.2 0.5-6.3 2-10.5 5.2 17.3 4.1 34.7 6.6 52.3 9.7 4.1 0.8 10.5 2.6 17.6 7.1 3 1.9 5.3 3.8 6.7 5.1 2.5 0.8 3.8 3.5 3 6-0.8 2.5-3.5 3.8-6 3-3.6-2-8.7-4.6-15.1-7.2-2.7-1-9.1-4.2-19.3-6.1-17.5-3.3-35.3-5.7-52.9-8.6 8.1 9.2 16.4 17.2 25.8 25.2 10.2 8.5 21.4 20.7 34.7 24 8.3 2.1 16 3.7 22 10.2 7.2 7.9 7.2 18.1 11.3 27.4 4.7 10.7 8.5 21.2 12.9 31.9 4.4 10.4 9.6 23.2 17.8 31.1 6.8 6.5 15.8 9.2 24.8 11.2 15 3.3 27.7 7 37.8 11.6 5.3 2.4 11.2 5.3 11.2 5.3 2.6 1.3 4.7 2.3 6 3q9 6 18 12c7.6 1.9 18.6 3.8 31.9 3.8 17.8 0.1 31-3.8 43.6-6.9 11.2-2.7 22.9-5.3 32.4-12.2 11-8 14.8-23.2 26.3-29.9 1 2.1 3.1 9.6 5 10.6 2.2 1.2 12.6-1.3 15.2-1.6 10.5-1.1 20.8-2.8 31.1-5.4 19-4.7 37.5-9.9 57-12.1 18-2.1 35-5.1 50.2 6.2 14.7 10.8 32.1 18.7 48.4 26.6 18.2 8.9 36.7 17 55.7 24 3.8 1.4 8.1 3.6 12.1 4.3 5.5 1.1 7.4-1.5 12.1-4.8 8.1-5.7 16.1-11.5 24.6-16.6 6.9-4.1 14.3-8.4 22.6-8.7 10.3-0.4 21.3 1.6 31.4 3 19.8 2.9 38.5 8.8 57.1 15.9 10.3 3.9 20.4 8.5 30.9 11.8 10.3 3.3 21.8 2.4 32.5 2.8 24 0.8 48.1 1.9 72.2 1.9-0.1 13.7-14.7 11.2-24.4 11-14.9-0.3-29.9-1.1-44.8-0.6-14.5 0.5-28.4-0.2-42.5-3.9-13.7-3.6-26-10.1-39.1-15.3-24.3-9.6-55.4-21.4-81.7-12.5-12.8 4.3-25.4 15.9-35.7 24.5-8.6 7.2-10.1 14.6-8.6 25.5 7.2-10 14.3-22.9 28-23.1-4.8 6.5-16.2 17.1-15.1 25.9 1.2 10.4 15.8 12.8 23.5 15.6 4.1-12.6 8-24.3 21.8-28.7-2 6.2-4 10.1-7.1 15.6-3.5 6.2-2.4 13.5 1.8 19.3 9.9 13.8 26.2 6 39.9 5.2 17-1 33 4.4 49.2 8.9 16 4.5 31.9 9.1 47.7 14.3 15.5 5.2 31.1 10.8 46.3 17 15.1 6.1 29.6 15 45.2 19.6 28 8.2 59.5 9 86.5-3 7.2-3.2 14.1-7 21.1-10.6 5.7-3 15-5.2 18.8-10.6 4.9-6.9 2.8-17.4 2.9-25.1 0.1-8 2.6-14.6 7.9-20.6 6.7 10.6 5.9 27.3 7.5 39.7 1.9 15.5 3.9 31 5.5 46.5 3.2 29.9 2.7 59 0.8 88.9-3.8 60.2-7.7 121.6-17.5 181.1-4.9 29.8-12.1 59.2-19.2 88.5-7.1 29.4-14 58.7-23.2 87.5-17.9 56.1-41.6 109.8-61 165.3-4.2 12-8.4 24.3-4.9 37 3 11.2 12.4 22.8 23 27.8 20.4 9.5 44-22.2 53.7-36.4 14.9-21.9 21.8-48.8 31.3-73.3 10.5-26.8 19.9-53.7 26.8-81.7 28.9-116.6 46.7-235.7 56.4-355.4 2.8-35 2.2-69.4 0.8-104.4-1.4-33.2-1.2-66.2-5.4-99.2-4.3-33.6-12.6-65.8-19.1-98.9-0.9-4-2.4-8.7 2-11.1 5.8-3.2 9.6 5.4 11.8 9.5 6.9 13.3 8.6 28.6 14 42.5 8.6-22 15.6-44.9 13.6-68.8zm-995.6 37.1c-9.6-3.4-21.8-10.9-30.6-2.2-6 5.9-7.3 15.9-4.5 23.6 2.8 7.8 12.2 15.5 20.9 11 8.5-4.5 11.3-24 14.2-32.4zm50.6 24.2c-9.1-6-18.2-12.7-27.7-18.1-8.2-4.7-14.1-3.7-18.6 4.9-5.2 10-5.4 19.5 6.9 22.5 13.9 3.4 27.5-2.7 39.4-9.3zm-84.1-37c-9.9-1.1-23.6-3.9-28.1 8.6-3.3 9.2 2.3 19.5 11.9 21q8.1-14.9 16.2-29.6z"/>
			</g>
		</g>
	</g>
</svg>