<svg version="1.2" xmlns="http://www.w3.org/2000/svg" viewBox="0 0 608 1152" width="608" height="1152">
	<title>AdobeStock_261425763-ai</title>
	<style>
		.s0 { fill: #ffffff } 
		.s1 { fill: #cc8629 } 
		.s2 { fill: #000000 } 
		.s3 { fill: #f9afc6 } 
		.s4 { fill: #ed709d } 
	</style>
	<g id="cats">
		<g id="cat 4">
			<g id="&lt;Group&gt;">
				<path id="&lt;Path&gt;" class="s0" d="m560.8 1028.1c3.9 24.2-6.3 45.9-23.5 62.4-14.7 14-39.5 23-59.3 14.3-22.2-9.9-32.5-38.6-19.6-59 7.8-12.2 22.1-18.5 34-26 7-4.3 22.9-10.5 25.4-20 0.7-2.6-1.6-5-4.2-4.4-8.1 2-13.5 10.1-21 13.9-2.7 1.3-5.7-1.1-5-3.9 0.3-1.4 0.8-2.7 1.7-4 2-2.9 6.1-5.2 8.5-7.9 5-5.6 8.8-12.1 11.9-18.9 5.4-11.5 9.7-23.6 14.3-35.5 1.1-2.7 4.8-3 6.3-0.5 7.4 12.2 10.7 27.9 15.3 41.1 5.5 15.7 12.5 31.9 15.2 48.4z"/>
				<path id="&lt;Path&gt;" class="s0" d="m504.5 205.8c4.4 4.8 3.6 6.3 1.1 12.3-1.8 4.3-4 8.4-6.5 12.2-4.3 6.6-9.5 12.6-15.1 18.2-1.8 1.9-5 1.1-5.8-1.5q-9.8-32.4-19.6-64.9c-0.8-2.8 1.9-5.3 4.7-4.3 15.6 6.2 29.7 15.6 41.2 28z"/>
				<path id="&lt;Compound Path&gt;" class="s0" d="m524.7 825.2q-2.1-34.7-4.9-69.5c-2-22.9-4.5-45.7-4.3-68.8 0.2-22.2 3.4-43.8 5.3-65.8 3.9-43.6-15.2-82.1-23-124-4-21.6-5.8-43.5-9.7-65.1-1.8-10-4.1-18.1-10-26.5-6.9-9.7-14.4-19-21.7-28.4-6.3-8.1-14.3-14.9-15.2-25.5-0.8-10.6-1.9-21.5 1.4-31.9 3.4-11 11.7-19.8 15.9-30.7 3.6-9.3 5.4-19.2 5.2-29.1-0.5-24-11.5-48.2-17.7-71.1-3-11-4.5-23.1-9.4-33.4-2.8-5.9-6.6-11.1-10.7-16.1-2.3-2.9-6.9-0.6-6.1 3 0.5 2.2 0.9 4.3 0.7 6.5-0.4 3.4-1.8 8.1-5.7 5.4-2.9-2.1-3.3-8.9-4.5-12.3-2.7-7.2-6.3-14-9.1-21.1-3.5-8.6-4.1-16.4-5.5-25.3-2.1-13.1-19.4-24.6-30.8-29.3-6.9-2.8-13.5-4.8-20.8-2.1-4.8 1.8-11.3 8.3-16.6 7.9-5.1-0.5-6.7-6-9.7-9.3-5.5-6-16.2-0.7-23 1.6-14.6 5-28.2 12.6-39.6 23-24.2 22.3-41.5 56.8-53.3 87.2-6.8 17.5-11.6 36-15.7 54.4-3.9 18-7.5 38-4.7 56.4 1.2 7.3 4.2 12.4 8.7 18 6.5 8.3 4.8 13.9 2.8 23.7-4 19.3-8 39-15.5 57.4-7.1 17.7-14.5 33.9-24.6 50.1-9.9 15.7-20 29.7-24 48.2-3.6 17-1.9 34.2-3.3 51.4-1.7 20.5-2.9 41-3.1 61.6-0.3 45.2 0.6 90.9 4.2 136 1.6 20.7 2.5 41.9 6.4 62.4 1.6 8.8 4.1 17.5 7.9 25.7 2.2 4.6 6.1 8.8 8 13.4 0.5 1.2 0.7 2.4 0.9 3.6 0.3 3.2-3.4 5.2-5.8 3.1-15.5-13.8-21.2-31.2-23.7-52.2-3.4-29-4.4-58-5.6-87.1-1.1-29.2-2.2-58.4-3.4-87.6-0.6-12.7-1-25.5-1.7-38.2-0.1-2.4 0.4-6.6-0.5-8.9-1.9-4.7-1.8-3.8-4.4 0.1-3.6 5.4-5.1 15.7-6.6 22-6.3 27.1-3.7 56.4-6.4 84-2.8 27.8-6.8 55.5-10.8 83.2-4.1 28.6-10 56.8-13.1 85.6-1.4 13.2-3 26.6-1.9 39.9 1 13 5.4 24.6 9.7 36.8 8.7 24.6 18.1 49.4 38.2 67.2 19 16.9 38.7 32.3 63.8 37.6 2 0.4 3.9-1 4.2-3 2.7-20.9 9.2-41.6 4.9-62.7-4.3-20.8-13-40.3-20.1-60.2-0.8-2.1 0.6-4.3 2.7-4.6 3.1-0.5 6.7-1 7.9-0.2 3.1 2.1 6.3 12.5 7.8 16 4.5 10.3 8.7 20.9 12 31.7 6.9 22.9 3.6 43.6 2.1 66.9-0.7 9-1.2 18.1-5.5 26.3-0.6 1.1-1.2 2.1-1.9 3.1l1.8 0.1c-1.1-0.1-2.2 0.5-2.9 1.4-4.5 5.9-10.5 9.5-17 13.8-15 10.1-4.4 27.2 6.2 36.8 2 1.8 5 0.9 5.7-1.6q3.3-11.4 6.5-22.8c0.9-3.2 5.4-3.5 6.6-0.4 2.8 7.6 1 14.9-3.4 23.9-4 8.4-5.7 14.6 2.2 21 3.7 2.9 10.8 7.6 15.6 8 3.8 0.3 3.3 0.8 5.6-3.4 1.2-2.3 2.2-4.8 3.1-7.2 2.8-7.4 4.8-15.5 9.9-21.4 2.3-2.7 6.8-0.4 6 3-1.7 7.9-10.5 16.7-6.6 24.8 4.3 8.8 20.3 6.9 27.5 3.6 14.3-6.5 20.8-20.3 22.3-24.2 3.2-8 3.5-15.8 4.1-31.3 0.2-5.2 0.1-9.2 0-16.5-0.2-12.8-0.8-21.2-1.1-26.4-0.5-10.6 0.8-21.3 1.1-42.9 0.4-24 1.3-32.9 3.3-42.9 4.2-20.5 12.2-40 14.8-39.4 1.8 0.4 0.5 10.2-1.6 36.1-1.3 16.5-2.2 33-3.3 49.5-5.2 78.2 0.8 56.7-2.8 92.4-1.6 15.3-5.1 27.5 3.3 36.9 7.3 8.3 20.1 18.5 31.9 16 12.3-2.6 18.9-17 19.8-28.4 0.4-6-0.6-12-1.6-17.9-0.5-3-2.1-6.9-0.3-8.9 1.4-1.4 5.4-2.1 7.3-1.4 5.2 1.9 6.2 13.8 6.8 18.6 1 7 0.5 14.3-1.5 21-0.9 2.9-2.1 5.8-3.6 8.4-1.5 2.4-6.4 5.8-7 8.1-0.8 3.2 5.9 10.3 10.6 10.7 10.2 0.9 21.8-15 25.9-22.7 5.9-11.2 6.6-24 3.2-36-0.6-2.1 1.1-4.3 3.3-4.3 8.9-0.2 9.4 5.5 9.8 15.9 0.3 10.9-2.5 18.5-7.4 26.6-1.7 2.8 1 6.3 4.1 5.1 4.7-1.7 8.9-4.4 10.9-9.4 3.4-8.4 3.5-19.8 1.6-28.6-1.9-8.9-6.8-16.6-13.5-22.7-8.1-7.3-19.9-10.1-27-18.1-7-7.9-6.8-19.8-7.1-29.8-0.4-10.9 0.6-22 5.7-31.8 5.6-10.9 16-17.2 23.2-26.8 7.5-10 13-21.7 18.6-32.9 7-14 13.1-28.5 19.5-42.9 3.1-7.1 6.2-14.3 10.3-20.9 2.5-4.3 4.5-6.4 7.2-8 2.9-1.8 6.2 1.2 5 4.3-2 5-4.8 9.4-7.6 14.8-5.1 9.8-9.3 20.1-13.6 30.2-8 18.7-16.7 37.4-27.3 54.7-10.2 16.5-26.4 29.4-28.1 49.6-0.7 8 0 17.5 2.9 25.1 3.5 9.2 14.8 15.5 22.4 21.2 3.7 2.8 7.5 5.5 11.2 8.3 5.9 4.4 6 5.1 9.2-1.5 4-7.9 8-15.3 14-22 11.8-13.1 26.7-24.4 41.8-33.4 17-10.3 22.1-27.5 29.7-45 8.6-19.8 15.7-39.5 17.3-61.2 1.5-21.7-0.3-43.6-1.6-65.3z"/>
			</g>
			<g id="&lt;Group&gt;">
				<path id="&lt;Path&gt;" class="s1" d="m469 780.5c2.8-13.2 5.2-30.7 18.5-33.3 22.3 61.8 14.6 91.6 2.6 107.4-9 11.8-25.3 22-28.5 42.9-2.1 13.4 2.2 25.3 6 33q9 7.5 18 15c1.9 2.3 9 11 9 24-0.1 15.7-10.3 25.4-12 27 4-3.2 9.5-8.2 15-15 13.8-17.2 18.6-35 22.3-52.1 9.6-45 10.6-78.7 10.6-78.7 0-51.2-6.6-56.8-8.7-128.6-0.9-30.4-1.4-45.6-0.2-61.6 3.3-47.8 4.6-50.2 3-72-1.2-15.1-4.6-36.9-15-63-14 26-22.2 50.4-27 72-14.7 65.6 6.9 82.7-14.4 120.8-9.4 16.7-32.3 44.2-30.6 69.3 0.3 3.8 1.1 7.9 3.7 10.7 9.2 10 24.8-4.5 27.7-17.8z"/>
				<path id="&lt;Path&gt;" class="s1" d="m110.6 915.5c-5.8-5.3-11.1-8.5-12-15-0.7-5 1.6-9.5 3-12 3.6-6.9 9.3-10.5 12-12 2.7-2.4 9.8-9.5 12-21 1.7-9.2-0.7-16.6-1.6-19.5-1.8-5.4-3.8-7-7.4-13.5-2.8-4.9-6.4-11.9-9-21-2.3-7.6-2.9-13.6-3-15-1.5-15.3 2-27.1 3-30 4.3-13.4 8.6-12.7 12-24 2.1-7.2-4.5-179.1-9-180-6.2-1.2-16.3 25.1-18 30-8.4 24.2-4.8 36.8-14.9 129.4-4.5 41.8-12.8 74.6-15.1 113.1-2.7 45.1-3.8 68.3 6 96.5 8.5 24.6 21.4 42.6 31.1 54.1 17.5-3.3 29.4-17.9 28.9-33.1-0.4-11.3-16.1-25.2-18-27z"/>
				<path id="&lt;Path&gt;" class="s1" d="m461.4 207.4q6.2 26.3 12.4 52.6c1.4 0.2 2.6-0.9 3.7-1.9q16.4-15.5 32.9-31c4-3.7 8.4-8.7 7-14-0.6-2.2-2.1-4-3.6-5.7-11.7-13.2-26.5-23.2-41.1-33-2.9-2-5.9-3.9-9.3-4.8-10.5-2.5-9.8 4.5-8.1 11.8q3.1 13 6.1 26z"/>
				<path id="&lt;Path&gt;" class="s1" d="m554.6 1035.5c-7.4-10.1-16.6-14.4-24-18-5.6-2.7-12.1-5.7-21-6-7.3-0.3-12.8 1.4-18 3-3.8 1.2-15 4.3-24 12-13.3 11.3-28.6 35-20.6 56.9 4.3 11.6 13.3 17.9 16.9 20.4 25.8 18.1 58.7 4.9 63.2 3.1 4-1.6 11.3-4.6 18.5-11.4 5.9-5.6 9.2-11.3 11.5-15.3 3.3-5.8 5.5-9.6 6.5-14.7 2.6-14-6.3-26.3-9-30z"/>
				<path id="&lt;Path&gt;" class="s1" d="m517.5 988.1c-1.1 2.7-1.6 5.6-2.7 8.4-1.1 2.7-2.9 5.3-5.6 6.5 3.1-1.4 7.6 0 11-0.3 4.5-0.5 8.6-1.8 13.2-1.8 9 0 18 2.5 25.6 7.5 2.6-6.1 0.4-13.6-4.5-18-4.9-4.5-12-6-18.6-5 0-2.3 0.7-4.7 1.9-6.6 0.8-1.2 1.9-2.5 1.5-3.9-0.5-1.9-3.2-2.1-5.1-1.6-7.5 1.8-14 7.5-16.7 14.8z"/>
			</g>
			<g id="&lt;Group&gt;">
				<path id="&lt;Path&gt;" class="s2" d="m515.5 923.2c1.5-0.1 3.1-0.2 4.3-1.1 1.4-0.9 2.1-2.5 2.7-4 7.1-17.1 15.5-41.4 13.2-60.2-2.8-23.3-26 8.3-33.1 16.9-5.1 6.1-10.2 12.4-12.6 20-2.5 7.5-1.7 16.6 3.8 22.3 5.4 5.6 14 6.6 21.7 6.1z"/>
				<path id="&lt;Path&gt;" class="s2" d="m558.5 1060.7q-4.1-5.3-8.1-10.6c-3.1-4-6.3-8.1-10.7-10.5-7.5-4.2-19.5-6.5-25-1.1-5.6 5.6-0.7 15.9-5.1 18-4.5 2.2-10.4-7.7-18-6-4.9 1.1-7.6 6.2-9 9-5.5 10.4-3 23.8 3 33 1.2 1.9 9.4 14.8 21 15 7.2 0.1 17.1-4.8 17.1-4.8 0 0 31-15.1 36.8-33.8 0.3-0.9 0.6-1.9 0.5-2.9 0-2-1.3-3.7-2.5-5.3z"/>
				<path id="&lt;Path&gt;" class="s2" d="m94.4 801.7c-2.2-7.5-2.2-15.5-4.9-22.9-2.6-7.4-9.3-14.3-17.1-13.4q-2.7 11.3-5.4 22.6c-2.5 10.2-4.5 22.2 1.3 30.5l-3.3-4.2q4.5 11.8 9 23.6c3.5 9.3 9.3 20.4 19.4 20.4 7.5 0.1 13.7-6.9 15-14.3 1.3-7.4-1.3-15-4.5-21.8-3.3-6.8-7.4-13.2-9.5-20.5z"/>
			</g>
			<g id="&lt;Group&gt;">
				<path id="&lt;Path&gt;" class="s3" d="m315.6 89.1c5.8-1.4 12.4-1.6 17.3 1.8 3.8 2.6 6 7 8 11.2q8.7 18 17.5 36c4.6 9.6 9.3 19.4 11 30 1.6 10.5-0.3 22.2-7.6 30-4.9 5.4-11.8 8.5-18.5 11.5-7.1 3.1-14.5 6.3-22.3 6.7-9.1 0.4-17.9-3.1-26.1-7-6.5-3.1-12.9-6.5-18-11.6-15.5-15.8-9.1-40.5-4.1-59.5 5.9-22.5 18.5-43.4 42.8-49.1z"/>
				<path id="&lt;Path&gt;" class="s4" d="m270.4 186.8c6.1 11.3 17.1 19.3 28.9 24.3 9.1 4 19.5 6.4 29.1 3.8 1.6-0.4 4.8-2.4 8.1-5 2.7-2.1 6.6-9 5.1-14.4-1.8-6.5-4.6-6.8-9-15-3.1-5.6-2.7-7.3-6-12-0.7-1-2.6-3.6-5.9-6.7-4.1-3.9-17.7-14-36.5-16.4-21-2.8-20.6 29-13.8 41.4z"/>
			</g>
			<g id="&lt;Group&gt;">
				<path id="&lt;Compound Path&gt;" fill-rule="evenodd" class="s2" d="m570.5 1008.1c5.3 18.7 8.5 40.6 0.5 58.9-6.8 15.4-19.8 29.3-34.1 38.1-26.8 16.5-70.1 20.7-89.3-8.9-3.5-5.5-9.8-17.9-8.3-32.1 1-9.4 5.1-17.1 4.1-17.6-1.1-0.5-6.3 7.4-10.6 15.8-5.2 10.6-9.2 16.1-10.4 29.9-0.9 11.3-3 22.4-12 30.2-10 8.7-23.9 8.9-35.1 15.2-7 3.8-14.3 5.9-22.3 4.3-7.9-1.6-13.7-7.7-21.3-9.3-11-2.4-21.5 0-31.5-6.2-4.2-2.6-7.7-6.2-11-9.9-2.3-2.7-3.3-5.4-6.3-5.3-3.8 0.2-10.1 4.5-13.7 6.1-7.1 3.2-14.8 7-22.6 7.9-8 1-16.1-1.3-24-0.9-7.3 0.4-12.5 2.4-19.5-0.7-6.4-2.9-11.9-7.9-17.1-12.6-11.4-10.1-25.5-18.3-29.2-34.2-3.3-14.2 2.7-25.6 10.9-36.4 1.4-1.8 0.6-4.6-1.6-5.4-8-2.7-15-5.3-22.5-10.4-8.9-6.1-17.5-12.4-26.3-18.7-16.3-11.7-30.2-22-39.2-40.5-18.8-38.5-31.9-83.1-25.7-125.9 6.3-44.5 16.4-87.9 20.5-132.7 2-22.4 3.9-44.9 6.7-67.2 1.2-10 0.2-20 1-30.1 1-11.4 3.5-22.6 6.5-33.5 5.8-20.7 15.3-39.2 22.4-59.3 3.2-8.9 2.4-17.9 3.7-27.2 1.4-10.2 4.2-20.1 8.2-29.7 7.7-18.6 20.4-34.4 29.7-52.2 9.3-17.9 17.7-36.3 22.9-55.8 2.6-9.2 4.7-18.9 5.4-28.4 0.7-10.4-4.9-20.1-6.5-30.3-3.5-21.1-0.9-43.1 2.3-64.1 6.2-41 27.5-80.7 47.8-116.4 6.2-10.8 12.4-19.7 20.2-27.5 1.8-1.8 8.2-7.9 18.1-14.4 21.6-14.2 30.1-10.3 56.3-22.2 2.1-1 6.3-2.9 12-3 8.2-0.1 14.3 3.8 18 6 18.5 11.2 18.7 5.8 39 18 12.3 7.4 19.7 12 27 21 3.4 4.3 3.7 5.8 13.3 25.2 14.3 29.1 17.7 32 20.1 35.7 5.9 9.4 14.5 12.2 24.4 16.7 9.5 4.3 18.6 8.8 27 15 7.6 5.5 16.4 12.2 22.2 19.6 7.1 9.2 0.5 17-5.5 24.7-12 15.3-30.9 27.7-38 46.2-3.5 9.3-6.8 18.3-11.6 27-4.9 8.9-10.4 16.9-12.5 27.1-3.7 17.8 2.8 34.9 14.9 48 13.4 14.6 25.2 28.9 30.2 48.5 5.7 22.2 6.1 44.8 10.5 67.2 8.4 42.5 29.7 80.6 24.7 125.2-1.1 10.4-4.3 20.3-6 30.7-1.9 11.5-2 23.2-1.5 34.9 0.7 21.6 0.6 43.3 1.7 64.9 2.5 45.2 9.7 90.2 8.6 135.5-0.3 10.3-2.7 21.3-0.2 31.3 2.8 11.1 7.9 22 11.9 32.7 7.8 20.3 16.7 40.6 22.7 61.5zm-33.2 82.4c17.2-16.5 27.4-38.2 23.5-62.4-2.7-16.5-9.7-32.7-15.2-48.4-4.6-13.2-7.9-28.9-15.3-41.1-1.5-2.5-5.2-2.2-6.3 0.5-4.6 11.9-8.9 24-14.3 35.5-3.1 6.8-6.9 13.3-11.9 18.9-2.4 2.7-6.5 5-8.5 7.9-0.9 1.3-1.4 2.6-1.7 4-0.7 2.8 2.3 5.2 5 3.9 7.5-3.8 12.9-11.9 21-13.9 2.6-0.6 4.9 1.8 4.2 4.4-2.5 9.5-18.4 15.7-25.4 20-11.9 7.5-26.2 13.8-34 26-12.9 20.4-2.6 49.1 19.6 59 19.8 8.7 44.6-0.3 59.3-14.3zm-11-200c1.5-21.7-0.3-43.6-1.6-65.3q-2.1-34.7-4.9-69.5c-2-22.9-4.5-45.7-4.3-68.8 0.2-22.2 3.4-43.8 5.3-65.8 3.9-43.6-15.2-82.1-23-124-4-21.6-5.8-43.5-9.7-65.1-1.8-10-4.1-18.1-10-26.5-6.9-9.7-14.4-19-21.7-28.4-6.3-8.1-14.3-14.9-15.2-25.5-0.8-10.6-1.9-21.5 1.4-31.9 3.4-11 11.7-19.8 15.9-30.7 3.6-9.3 5.4-19.2 5.2-29.1-0.5-24-11.5-48.2-17.7-71.1-3-11-4.5-23.1-9.4-33.4-2.8-5.9-6.6-11.1-10.7-16.1-2.3-2.9-6.9-0.6-6.1 3 0.5 2.2 0.9 4.3 0.7 6.5-0.4 3.4-1.8 8.1-5.7 5.4-2.9-2.1-3.3-8.9-4.5-12.3-2.7-7.2-6.3-14-9.1-21.1-3.5-8.6-4.1-16.4-5.5-25.3-2.1-13.1-19.4-24.6-30.8-29.3-6.9-2.8-13.5-4.8-20.8-2.1-4.8 1.8-11.3 8.3-16.6 7.9-5.1-0.5-6.7-6-9.7-9.3-5.5-6-16.2-0.7-23 1.6-14.6 5-28.2 12.6-39.6 23-24.2 22.3-41.5 56.8-53.3 87.2-6.8 17.5-11.6 36-15.7 54.4-3.9 18-7.5 38-4.7 56.4 1.2 7.3 4.2 12.4 8.7 18 6.5 8.3 4.8 13.9 2.8 23.7-4 19.3-8 39-15.5 57.4-7.1 17.7-14.5 33.9-24.6 50.1-9.9 15.7-20 29.7-24 48.2-3.6 17-1.9 34.2-3.3 51.4-1.7 20.5-2.9 41-3.1 61.6-0.3 45.2 0.6 90.9 4.2 136 1.6 20.7 2.5 41.9 6.4 62.4 1.6 8.8 4.1 17.5 7.9 25.7 2.2 4.6 6.1 8.8 8 13.4 0.5 1.2 0.7 2.4 0.9 3.6 0.3 3.2-3.4 5.2-5.8 3.1-15.5-13.8-21.2-31.2-23.7-52.2-3.4-29-4.4-58-5.6-87.1-1.1-29.2-2.2-58.4-3.4-87.6-0.6-12.7-1-25.5-1.7-38.2-0.1-2.4 0.4-6.6-0.5-8.9-1.9-4.7-1.8-3.8-4.4 0.1-3.6 5.4-5.1 15.7-6.6 22-6.3 27.1-3.7 56.4-6.4 84-2.8 27.8-6.8 55.5-10.8 83.2-4.1 28.6-10 56.8-13.1 85.6-1.4 13.2-3 26.6-1.9 39.9 1 13 5.4 24.6 9.7 36.8 8.7 24.6 18.1 49.4 38.2 67.2 19 16.9 38.7 32.3 63.8 37.6 2 0.4 3.9-1 4.2-3 2.7-20.9 9.2-41.6 4.9-62.7-4.3-20.8-13-40.3-20.1-60.2-0.8-2.1 0.6-4.3 2.7-4.6 3.1-0.5 6.7-1 7.9-0.2 3.1 2.1 6.3 12.5 7.8 16 4.5 10.3 8.7 20.9 12 31.7 6.9 22.9 3.6 43.6 2.1 66.9-0.7 9-1.2 18.1-5.5 26.3-0.6 1.1-1.2 2.1-1.9 3.1-4.6 6.8-11.1 10.6-18.1 15.3-15 10.1-4.4 27.2 6.2 36.8 2 1.8 5 0.9 5.7-1.6q3.3-11.4 6.5-22.8c0.9-3.2 5.4-3.5 6.6-0.4 2.8 7.6 1 14.9-3.4 23.9-4 8.4-5.7 14.6 2.2 21 3.7 2.9 10.8 7.6 15.6 8 3.8 0.3 3.3 0.8 5.6-3.4 1.2-2.3 2.2-4.8 3.1-7.2 2.8-7.4 4.8-15.5 9.9-21.4 2.3-2.7 6.8-0.4 6 3-1.7 7.9-10.5 16.7-6.6 24.8 4.3 8.8 20.3 6.9 27.5 3.6 10.1-4.6 18-14.1 22.3-24.2 5.1-11.9 2.9-23.8 1.9-36.3-0.2-3-0.3-4.8-0.4-6.5-1.7-20.9 0.5-39.5 2.2-57.7 3-33.6 0.6-28.2 3-45 3.2-23.4 10.7-54.4 15.5-53.9 4.6 0.4 5.9 29.5 5.5 47.9-0.4 15.2-1.8 20.4-6 51-4.8 34.3-0.4 9.2-7.2 79.1-1.8 17.6-4.3 28.3 3.3 36.9 7.3 8.3 20.1 18.5 31.9 16 12.3-2.6 18.9-17 19.8-28.4 0.4-6-0.6-12-1.6-17.9-0.5-3-2.1-6.9-0.3-8.9 1.4-1.4 5.4-2.1 7.3-1.4 5.2 1.9 6.2 13.8 6.8 18.6 1 7 0.5 14.3-1.5 21-0.9 2.9-2.1 5.8-3.6 8.4-1.5 2.4-6.4 5.8-7 8.1-0.8 3.2 5.9 10.3 10.6 10.7 10.2 0.9 21.8-15 25.9-22.7 5.9-11.2 6.6-24 3.2-36-0.6-2.1 1.1-4.3 3.3-4.3 8.9-0.2 9.4 5.5 9.8 15.9 0.3 10.9-2.5 18.5-7.4 26.6-1.7 2.8 1 6.3 4.1 5.1 4.7-1.7 8.9-4.4 10.9-9.4 3.4-8.4 3.5-19.8 1.6-28.6-1.9-8.9-6.8-16.6-13.5-22.7-8.1-7.3-19.9-10.1-27-18.1-7-7.9-6.8-19.8-7.1-29.8-0.4-10.9 0.6-22 5.7-31.8 5.6-10.9 16-17.2 23.2-26.8 7.5-10 13-21.7 18.6-32.9 7-14 13.1-28.5 19.5-42.9 3.1-7.1 6.2-14.3 10.3-20.9 2.5-4.3 4.5-6.4 7.2-8 2.9-1.8 6.2 1.2 5 4.3-2 5-4.8 9.4-7.6 14.8-5.1 9.8-9.3 20.1-13.6 30.2-8 18.7-16.7 37.4-27.3 54.7-10.2 16.5-26.4 29.4-28.1 49.6-0.7 8 0 17.5 2.9 25.1 3.5 9.2 14.8 15.5 22.4 21.2 3.7 2.8 7.5 5.5 11.2 8.3 5.9 4.4 6 5.1 9.2-1.5 4-7.9 8-15.3 14-22 11.8-13.1 26.7-24.4 41.8-33.4 17-10.3 22.1-27.5 29.7-45 8.6-19.8 15.7-39.5 17.3-61.2zm-20.7-672.4c2.5-6 3.3-7.5-1.1-12.3-11.5-12.4-25.6-21.8-41.2-28-2.8-1-5.5 1.5-4.7 4.3q9.8 32.5 19.6 64.9c0.8 2.6 4 3.4 5.8 1.5 5.6-5.6 10.8-11.6 15.1-18.2 2.5-3.8 4.7-7.9 6.5-12.2zm-32.5 798.7c3.2-2.5-4.4-1.1-6.6 0-2.8 2-6.6 5.1-9.9 9.9-2 2.9-3.7 6.4-3.3 6.6 0.5 0.4 3.4-4.9 9.9-9.9 3.9-2.9 5.2-2.8 9.9-6.6z"/>
				<path id="&lt;Compound Path&gt;" fill-rule="evenodd" class="s2" d="m374.4 177.5q0.2 0.6 0.1 1.3c-0.9 7.2-5.1 18.6-13.5 26.6-13.2 12.6-33.2 17.1-49.4 14.1-11.4-2.1-21.6-8.1-26.1-10.8-5.8-3.4-8.5-5.8-9.2-6.5-5.8-5.4-9.9-12.1-12.8-20-4.2-12-5.9-21.8-1.3-33.8 4.4-11.6 8.9-23.4 15.6-33.9 12.1-19 40.9-42.2 62.5-23.6 10.8 9.2 16.6 21.9 20.4 35.3 4.8 17 9.1 34.2 13.7 51.3zm-11.6 10.6c2-8.6 0.9-15.9-2.3-25.4-11.8-34.2-8.2-39.4-18.9-54.2-7.5-10.3-13-12.8-16.9-13.8-8-2-15 0.8-19 2.9-18.5 10-27.1 29.2-25.8 37.1 0.2 0.7 0.4 2.3 1.7 3.8 3 3.7 9 3.1 12 3 10.6-0.2 19.5 6.2 24.6 9.9 8.4 6.1 12.2 14.7 17.4 26.1 5 11.3 6.2 19.2 12.8 21.4 0.5 0.2 4.5 1.5 8.2-0.4 1.5-0.8 4.5-2.9 6.2-10.4zm-33 21.9c7.1-5.4 4.6-14.2 2.2-21.4-5.3-15.4-16.2-29.7-31.3-36.6-16.2-7.4-28.9 5.9-29 21.8 0 0.5 0.1 1.1 0.3 1.5 7.1 16.9 17.6 27.8 35.3 34 6.9 2.5 16 5.7 22.5 0.7z"/>
				<path id="&lt;Path&gt;" class="s2" d="m333.3 111.5q0 0.1 0 0.1c-0.1 2.7-3 4.2-5.3 2.8-4.4-2.7-9.1-5.6-13.7-6.2-2.7-0.3-5.3 0.5-7.9 1-3.8 0.7-5.9-4.3-2.6-6.3 3.5-2.2 7.5-3.4 11.8-3 6.4 0.7 11.8 5.9 16.1 8.5 1 0.7 1.7 1.9 1.6 3.1z"/>
			</g>
			<path id="&lt;Path&gt;" class="s3" d="m340.3 55.3c-0.9-2.2-6.3-3-10.6-3.1-1.7 0-3.2-0.1-5.4 0-1.7 0.1-2.6 0.2-2.9 0.4-1.8 1.6-0.6 10 5.2 11.9 4.5 1.5 9.6-0.2 12.3-3.7 0.5-0.6 2.3-3.2 1.4-5.5z"/>
		</g>
	</g>
</svg>