<svg version="1.2" xmlns="http://www.w3.org/2000/svg" viewBox="0 0 894 1125" width="894" height="1125">
	<title>AdobeStock_261425763 (1)-ai</title>
	<style>
		.s0 { fill: #ffffff } 
		.s1 { fill: #cc8629 } 
		.s2 { fill: #1e0c03 } 
		.s3 { fill: #f9afc7 } 
		.s4 { fill: #000000 } 
		.s5 { fill: #d8ff8d } 
	</style>
	<g id="cats">
		<g id="cat 6">
			<g id="&lt;Group&gt;">
				<path id="&lt;Path&gt;" class="s0" d="m810.9 298.7c-7.2 7.6-26 20.7-28.7 30.4-3.6 12.9 4.3 23.3 11.3 37.5-17.7 5.4-33.4-10.1-30.7-30.5 2.5-19.4 37-44.5 50.9-58.9-24.5 10.3-52.4 36.5-76.8 34.6-13.2-1-23.7-6.2-38.5-5.1-17.8 1.3-35.1 5.9-52.7 7.5-39.1 3.7-55.7-4-86.6-27.8-19.6-15.2-48.6-48.7-75.1-48.5 28.4 13.5 47.5 37.3 59.9 65.6 8.7 19.7 16.1 27.2-1.7 39.7-8.6 6.2-24.2 10.6-34.2 5 17.1-9.7 25.4-8.7 24.4-25.8-0.6-10.1-9.7-23-15.3-31.6-11-16.5-39.8-50.9-62.5-36.2-14.4 9.4-6.4 63-2.7 78.5 6.8 27.8 22.5 51.7 18.5 81.8-4.5 34.6-20.9 50.6-13.4 88.1 1.3 6.5 7 41.9 32.1 62.1 5.7 4.6 18.3 13.1 27.9 19.3 17 10.9 24.4 14.1 24 15-0.9 2.1-44.8-2.8-71.1-29-26.1-26-53.8-54.8-23.8-137.4 18.3-50.1-18.2-105.1-13.2-159.2 4.1-43.5 27.3-51.9 54.2-45.9 21.3 4.7 45 18.5 63.3 31.1 23.3 15.9 40.7 40 69 43.4 30.3 3.6 65.6-6.7 95.3-11.8-17.6-23.9-28.8-45-35.7-60.2-10.9-23.7-13.4-36.8-27-54-14.4-18.2-30.5-27.6-39.3-32.8-42.1-24.5-125.6-41.5-200.7-3.2-50.3 25.6-75.8 65.4-93 93-3.7 5.9-82.8 137-39.7 281.6 20.6 69.2 64.1 153.2 92.5 180.9 19.7 19.1 26.5 43.6 39 67.4 15 28.5 27 54.8 36.1 86.1 16.2 55.2 21.1 124 7.3 178.7-5.7 23-3.8 50.3 19.8 62.5 45.2 23.5 25.5-27.9 34.3-40.7 3 15.1 6.3 48 27.9 39.1 15.1-6.2 5.6-30.1 21.1-33.9 1.9 15.3-2.7 27.7 13.3 29.8 14.6 2 15.8-5.6 19.4-15.7 8.7-25.1-11.9-45.7-30.6-47.5-10.8-1-34.2 9-53.2 10.3v0.1c-7.8-0.3-14.6-2.6-18.7-8.5-12.1-17.1 42.4-6.6 52-8.9 21.7-5 23.6-20.7 21.4-38.5-1.2-10.3-3.9-21.4-4.8-31.4-2.7-29.9-5.6-59.9-7.8-89.9-1.6-21.4-12.5-60.7-4.9-80.5 5.2-13.9 42.2-41.5 56.1-40.1-13.4 14.4 12.3 38.2 15.1 54.5 4.3 25.5 3.9 64.3 0 89.5-4.1 25.8-22.8 28.1-34.4 48.6-7 12.5-4.5 22.3-2.8 36.7 0.4 4.1 0.7 7.6 1.1 10.6 1.1 10.7 3.2 14.9 18.6 19.1 35.8 9.7 87.7-58.5 96.3-85.9 7.4-23.9 9.1-54.7 15.9-79.9 7.8-28.7 16-57.3 23.6-86-10.4 0.5-23.1-1.1-33 1.7-10.1 2.8-13.9 9.2-24 13.9-16.7 7.8-36.5 5.7-51.3-5.3 10.9-6.3 19.5-1 30.3-3.8 11.2-3.1 14.7-7.4 23.9-12.3 16.6-8.9 28.5-3.8 46.4-9.9 39.8-13.5 42.4-80.9 42.2-115.3-20.8 9.7-59.7 36-83.8 23 18.7-7 44.9-18.5 73.4-37.1 27.5-18 41.3-26.9 51.7-41.8 33.1-47.6 18.8-117.8 18.1-130.2-0.7-13.9-5.3-18.3-2.5-33.8 2.2-12.2 9.5-25.2 13.3-37.1 2.9-8.9 30.6-79.9 24.8-86.4-14.3-16-41.9 21.4-51.5 31.6z"/>
				<path id="&lt;Path&gt;" class="s0" d="m375.3 725.1c1 4.2 8.4 75.1 8.3 85.1-0.3 20.5-14 84 11.2 91.3 5.9-13.4 2.9-27.4 16-37.5 0 16.5-9 51 14.8 49.8 23.3-1.2 15.6-30.1 11.8-44.8-13.7-52.8-39.4-95-62.1-143.9z"/>
				<path id="&lt;Path&gt;" class="s0" d="m220 341.4c-12.2 3.6-29.3 8.6-51 9-21.3 0.4-25.9-4-65.1-10.8-38.7-6.8-58.2-9.9-66.3-1.8-12 12.1-6.7 41.5 5.7 61.1 27.9 44.3 95 44.4 137.7 44.5 6 0 25.7-0.3 48-9 10.4-4.1 16-6.3 21-12 10.9-12.3 7.3-27.5 9-51 0.9-12.6 3.5-30.2 11.1-51.1-11.9 6.6-28.8 14.8-50.1 21.1z"/>
			</g>
			<g id="&lt;Group&gt;">
				<path id="&lt;Path&gt;" class="s1" d="m723.2 352.3c-0.6-8.2-2.7-33.1-20.4-43.1-10.2-5.8-118.1-3.5-116.8-3.8 0.3-0.1 0.6 0.5 1.1 1.5-12.9 3-24.6 9.6-30.1 14-1.2 0.9-4.6 3.8-10 5.5-4.3 1.3-7.9 1.3-9.8 1.2-18.2-0.5-40.5-10.1-56.6-4.7-16.6 5.6-26.3 27.1-26.6 42.5-0.1 5.5 1.1 3.1 3 18 1.4 10.8 2.2 23.7 6.2 39.1 0.9 3.7 2.1 7 5 9.5 4.4 3.9 11.1 3.2 16.8 1.8 33.6-7.9 63.2-31.5 78.5-62.6 3.1-6.3 9.3-14.3 15.3-10.6 4.6 2.7 3.8 9.6 6.5 14.1 2.7 4.4 8.8 6 13.8 4.7 4.8-1.2 8.7-4.5 12.1-8.1 5.7 12.7 11.4 21.8 19.8 30.1 6.8 6.7 19.5 18.8 39 21 4.8 0.5 22.9 2.6 36-9 9.4-8.4 11.7-19.8 15-36 1.5-7.5 3-15.1 2.2-25.1z"/>
				<path id="&lt;Path&gt;" class="s1" d="m97.4 446.5c5.4 1.9 11.1 3.5 16.7 2.6 5.7-0.9 11.2-4.9 12.1-10.5 0.7-3.6-0.6-7.2-1-10.8-1.4-12.4 8.6-25 21-26.5 1.7-0.2 3.7-0.1 5 1.1 1.3 1.2 1.5 3.1 1.7 4.8 1.3 8.9 6.7 17.6 15.1 20.4 8.5 2.8 19.4-2.4 20.5-11.3 0.5-4.8-1.7-9.5-2.6-14.3-3.1-14.8 5.8-29.4 16-40.5 5.6-6.2 12.4-13.7 9.9-21.7-20-3.9-40.6 5.2-60.8 2.3-10-1.5-19.2-5.9-28.6-9.7-31-12.6-91.3-33.3-100.8 15.4-9.1 46.2 36.8 84.8 75.8 98.7z"/>
				<path id="&lt;Path&gt;" class="s1" d="m625.2 881.5c-0.8 9.6 0.5 20.4 8 26.6 10.2 8.5 25.6 3.5 37.9-1.8-0.9 4.5-1.8 9.4-0.1 13.7 1.8 4.3 7.3 5.7 11.1 5.3 7.8-0.8 12.3-10.9 14.9-16.9 7.9-18.3 17.4-59.7-4.4-74.2-10-6.7-62.2-21.6-67.4 47.3z"/>
				<path id="&lt;Path&gt;" class="s1" d="m718.6 279.9c-25.9-50.7-32.7-67.6-40-82.6-15.2-31.4-43.5-55.6-75.4-69.7-32-14.2-67.5-19-102.5-18.2-28.4 0.6-57.2 5-83 16.9-37.9 17.6-57.7 45-83.4 79.8-19.1 25.8-29.8 50.3-51.3 99.3-3.5 7.9-8 18.7-9 33.4-1.4 20.6 3.8 52.7 24.2 63.3 8.9 4.7 13 2.6 18.9 7.8 9.9 8.7 6.4 24.3 2.6 37.3-0.1 0.2-0.3 0.4-0.4 0.6-14.7 23.9-11.4 53.8-9.8 68.1 2.3 21.7 4.5 42 17.4 53.1 16.1 13.7 40.5 6.5 53.8-9.8 9.9-12.2 11.9-29.4 14.6-62.6q1 0.5 1.9 1.2c9.5 7.3 5.1 21.9 14.2 26.7 9.1 4.8 27.3-4.5 33.6-18.1 4.5-9.7 0.5-16.5 0-30-0.9-23.1 9.8-31.7 15-51 5.2-19.4-2.8-20.9-18-96-5-24.7-8.5-46.2 0-69 5.2-14.1 11.4-18.9 15-21 13.2-7.9 29.5-2.4 45 3 8.6 3 21.4 8.4 48 27 33.9 23.7 30.7 27.2 45 33 20.1 8.2 38.2 6.2 66 3 15.4-1.7 37.4-5.6 63-15-1.3-2.4-3.2-6.1-5.4-10.5z"/>
			</g>
			<g id="&lt;Group&gt;">
				<path id="&lt;Path&gt;" class="s2" d="m486.4 394.6c8.3-4.8 6.1-14.9 12.6-17.2 8.5-3 16 13.5 30 12 0.7-0.1 7.4-0.9 12-6 4.3-4.8 3.4-9.6 6-18 2.3-7.5 5.7-12.4 9.2-17.4 12.4-17.9 25.9-16.7 32.9-33.4 1.6-3.8 2.9-8 2.2-12.1-1.1-7-7.2-11.9-12.9-16.1-9-6.7-18-13.3-27.3-19.7-19.7-13.4-40.7-25.3-63.6-32.1-3.3-0.9-7-2-11.8-1.7-18.5 1.2-30.1 20.4-30.7 21.5-7 12-5.9 24.9-3.5 50.7 0.5 5.2 0.7 6 6.5 39.3 6.1 35.1 7.4 42.9 15 48 6.5 4.4 16.6 6.1 23.4 2.2z"/>
				<path id="&lt;Path&gt;" class="s2" d="m714.7 348.5c2.6 12.8 3 26.6 10 37.7 3.5 5.5 10.8 10.3 16.1 6.6 2-1.3 3.1-3.4 4.8-5 4.6-4.4 12.2-4.1 17.8-1.2 5.6 2.9 9.7 8 13.9 12.8 12.3 14.1 26 26.9 40.9 38.3 3.8 3 9.9 5.6 12.9 1.8 1.6-1.9 1.4-4.7 1.2-7.2-3.6-45.5 15.2-89.4 33.2-131.3 3.1-7.1 6.1-14.4 6.9-22 0.2-2.8 0.3-15.5-6.8-21.4-2.1-1.7-9.4-6.5-39.6 5.8-37.3 15.2-39.6 28.1-64.2 31.1-6.7 0.8-20.7 1.6-31.8 1.9-3.3 0.1-13.8 0.3-27 3-13.8 2.8-14.8 5-15 6-0.7 3.9 9 5.8 16.7 14.7 5.1 6 7 13.5 10 28.4z"/>
				<path id="&lt;Path&gt;" class="s2" d="m616 347.4c5.9 9 15.6 8.9 25.1 18.9 0.6 0.5 1.7 1.9 3.6 2.9 4.8 2.7 10.8 2.7 14.8 2.4 3.7-0.3 10.9-1.3 16.9-5.4 6.4-4.3 7.9-9.6 9.7-16.2 3.3-11.8 0.7-21.2 0-23.5-2.8-9.2-8.3-15.9-12.1-19.8-5.8 1.2-14.1 2.6-24.2 3.6-22.2 2.2-31.1-0.1-34 3.6 0 0.1-0.2 0.4-0.5 1.3-0.4 1-7.6 19.5 0.7 32.2z"/>
				<path id="&lt;Path&gt;" class="s2" d="m497 451.1c2.7-1.8 16.8-10.9 16.5-25.9-0.1-7.8-4.2-16.9-11.5-20.8-6.7-3.6-11-0.1-18-3-4.8-2-10.9-7-15-21q-2.8 19-5.6 37.9-4.7 17.1-9.4 34.1c2.3 1 24.4 10.7 43-1.3z"/>
				<path id="&lt;Path&gt;" class="s2" d="m484.4 185.2c14.8 6.4 13.3 29 24.9 40.2 8.2 8 21.5 8.4 32 3.8 10.4-4.5 18.6-13 26.1-21.6 23.3 40.6 70.6 66.1 117.3 63.4 7.2-0.4 15.5-2.2 18.7-8.8 2.2-4.6 0.9-10.2-0.6-15.1-15.9-51.8-54.1-96.3-102.9-119.9-45.4-21.9-119.6-31.6-165-3.2-16.4 10.3-24.2 32.8-16.2 51.2 15.3 35.4 42.6 0.1 65.7 10z"/>
				<path id="&lt;Path&gt;" class="s2" d="m26.6 356.7c-2.5 12.5-1.9 26.7 4 36.9 6 10.2 18 14.3 25.8 6.7 5-4.9 5-9.6 11.3-22.4 7.3-14.6 18.3-25.7 20.3-24.5 2.3 1.3-9.3 17.1-12 42-1 8.9-3.9 36.3 12 48 7.6 5.6 19.6 7.7 24 3 4.9-5.2-3.5-14.6-6-36-1-8.6-3-26.8 6-42 10.9-18.4 31.4-21.2 30-27-1.1-4.5-13.6-1.7-39-9-7.5-2.1-11.3-3.8-21-6-9.6-2.2-15.8-3.5-24-3-7.1 0.5-14.6 1-21 6-11.1 8.8-10.5 24.7-10.4 27.3z"/>
				<path id="&lt;Path&gt;" class="s2" d="m416.3 345.5c-1.1-2.8-3.2-8.6-8.5-14.1-3.7-3.9-8.4-7.1-13.4-9.5-10.3-11.6-19.7-9.9-22.6-17.5-3.1-7.9 5.9-13.5 11.6-28.6 1.3-3.3 12-33-3.1-51-11.4-13.5-34.1-16.4-49.4-9.1-3.6 1.7-11.7 6.3-30.8 46-7.5 15.7-12.9 29-16.5 38.2-0.4 0.6-8.9 12.1-3.8 24.4 4.1 10.1 15.6 17.4 23.7 14.5 7.4-2.5 13.8-10.8 21.1-8 3.8 1.4 5.9 5.7 6.4 9.7 0.5 4.1-0.2 8.2-0.2 12.3-0.1 8.4 3.2 17 9.6 22.3-0.6 6.9 0.1 12.3 2.9 17.6 5.7 10.9 18.5 20.5 31.5 21.9 1.3 0.8 2.3 1.1 2.8 1.1 2.4 0.4 4.9-0.3 7.2-1.7 12.1-3 18.1-13.9 24.5-25.7 4.4-7.9 13.5-24.4 7-42.8z"/>
			</g>
			<g id="&lt;Group&gt;">
				<path id="&lt;Path&gt;" class="s3" d="m494.2 261.3c27.5 14.6 35.5 40.9 39.5 49 5.2 10.2 8.7 23.6 1.2 32.2-3.8 4.4-9.6 6.4-15.1 8.3-9-5.8-19.7-9.1-30.4-9.6 3 5.4 6.7 10.4 11 14.8q-10.4-0.4-20.7-0.9c2.2 3.7 3.8 7.6 4.8 11.8-3.4 0.3-9 0.5-15.5-1.5-5.4-1.6-9.5-4.1-12-6-5.1-10.5-11.8-26.9-15-48-3.4-21.7-7.3-47.2 6-57 13.9-10.2 38.7 2.9 46.2 6.9z"/>
				<path id="&lt;Path&gt;" class="s3" d="m809 356.4q-3.8 6.3-7.6 12.7 7.4-1.6 14.7-3.2c-1.2 2.6-1 4.1-0.6 5 3.1 6.2 24 0.9 25.5 0.5 4.2-11.2 7.4-19.7 9-24 0 0 5.6-14.8 20-68.8 1.3-4.8 2.5-10.9-0.4-15-4.4-6-13.7-4.2-20.4-1.1-27.7 13.1-47.6 38.2-66.4 62.4-1.5 1.9-3.1 3.9-4 6.3-1.9 4.8 0.2 23 4.7 26.1 4.7 3.2 18.4-2.4 25.5-0.9z"/>
				<path id="&lt;Path&gt;" class="s3" d="m722.9 572.7c-14 0-27.1 5.3-38-2.4-2.3-2.3-3.8-4-4.7-5.4-0.6-0.9-1-1.7-1.4-2.4l0.1-0.1c-0.2-0.2-0.3-0.4-0.4-0.6-0.7-1.4-1-2.2-1.6-2.7-13.9-24.4 15.9-25.4 26.8-41.8-11.3-8.2-19.7 1.5-30.4 4.1-15.4-7.8-27.2-17.7-38.6-1.8 19.8 11.2 42.3 25.3 19.4 47.4-15.6 15.2-43.8-4.4-52.2 14.3 30.3 20.2 38.5-6.3 64.1-8.3 3.4 2.3 6.4 4.1 8.8 5.4 0.5 0.3 2.6 1.4 5.4 2.7 5.4 2.5 10 4.2 13.5 5.4q2.2 0 4.5 0l0.1 0.1c0.3 0 0.5-0.1 0.8-0.1q1.4 0 2.7 0-0.2-0.2-0.4-0.4c8.8-1.6 15.4-6.4 21.5-13.4z"/>
			</g>
			<path id="&lt;Compound Path&gt;" fill-rule="evenodd" class="s4" d="m868 305.4c-7.1 22.4-11.4 33.2-18 54-6.1 19.2-9.9 35.1-12 45 0.4 7.6 1.3 19.1 3 33 1.5 12 2 12.6 3 21 1.5 12 5.4 37.6-3 66-3.4 11.4-8.6 29.3-24 45-13.5 13.8-23 13.7-30 27-5.6 10.6-0.5 15.1-3 39-3.4 32-5.4 50.1-15.7 70.1-4.9 9.6-11.2 19.3-18.1 37.9-1.8 4.9-3.5 10.2-5.1 16.5-6.1 24.7-12.8 49.1-19.2 73.7-11.8 45.7-14.8 80.5-43 119.2-26.2 36-52.6 64.9-99.1 55.7 17.7 19.7 50.5 56.2 19.2 81.4-22.4 18.1-81.2 16.1-108.4 17.1-37.9 1.6-62.7-19.6-58-58.3 2.5-20.3 10.5-38 10.9-58.7 0.4-20.9-1.2-42.6-2.5-63.6-41.7 6.7-84.2-6.6-85.6-54.7-1.5-50.5 7.1-94.9-8.7-144.3-29.6-92.4-93.2-184-97.6-283-69.5 19.4-167.6 34.2-221.7-30.6-18.4-22.2-29.3-59.3-8.4-83.1 30.1-34.2 72.4-13.1 107.3-1.5 45.2 14.8 73.7 6.9 114.7-16.3 37.2-20.9 43.7-40.2 62.5-77.7 35.1-70.3 93.4-121.4 172.6-130.1 71.1-7.9 152.1 5.7 194 69.9 20 30.6 28.5 66.1 50.5 95.9 7.3 9.9 14.8 15 22.4 16.9 23.5 5.8 38.2-21.3 81.7-33.5 13.1-3.7 36.2-10.2 45.3 0.1 7.4 8.4 2.4 24.2-6 51zm-609 66c0.9-12.6 3.5-30.2 11.1-51.1-11.9 6.6-28.8 14.8-50.1 21.1-12.2 3.6-29.3 8.6-51 9-21.3 0.4-25.9-4-65.1-10.8-38.7-6.8-58.2-9.9-66.3-1.8-12 12.1-6.7 41.5 5.7 61.1 27.9 44.3 95 44.4 137.7 44.5 6 0 25.7-0.3 48-9 10.4-4.1 16-6.3 21-12 10.9-12.3 7.3-27.5 9-51zm603.4-104.3c-14.3-16-41.9 21.4-51.5 31.6-7.2 7.6-26 20.7-28.7 30.4-3.6 12.9 4.3 23.3 11.3 37.5-17.7 5.4-33.4-10.1-30.7-30.5 2.5-19.4 37-44.5 50.9-58.9-24.5 10.3-52.4 36.5-76.8 34.6-13.2-1-23.7-6.2-38.5-5.1-17.8 1.3-35.1 5.9-52.7 7.5-39.1 3.7-55.7-4-86.6-27.8-19.6-15.2-48.6-48.7-75.1-48.5 28.4 13.5 47.5 37.3 59.9 65.6 8.7 19.7 16.1 27.2-1.7 39.7-8.6 6.2-24.2 10.6-34.2 5 17.1-9.7 25.4-8.7 24.4-25.8-0.6-10.1-9.7-23-15.3-31.6-11-16.5-39.8-50.9-62.5-36.2-14.4 9.4-6.4 63-2.7 78.5 6.8 27.8 22.5 51.7 18.5 81.8-4.5 34.6-20.9 50.6-13.4 88.1 1.3 6.5 7 41.9 32.1 62.1 5.7 4.6 18.3 13.1 27.9 19.3 17 10.9 24.4 14.1 24 15-0.9 2.1-44.8-2.8-71.1-29-26.1-26-53.8-54.8-23.8-137.4 18.3-50.1-18.2-105.1-13.2-159.2 4.1-43.5 27.3-51.9 54.2-45.9 21.3 4.7 45 18.5 63.3 31.1 23.3 15.9 40.7 40 69 43.4 30.3 3.6 65.6-6.7 95.3-11.8-17.6-23.9-28.8-45-35.7-60.2-10.9-23.7-13.4-36.8-27-54-14.4-18.2-30.5-27.6-39.3-32.8-42.1-24.5-125.6-41.5-200.7-3.2-50.3 25.6-75.8 65.4-93 93-3.7 5.9-82.8 137-39.7 281.6 20.6 69.2 64.1 153.2 92.5 180.9 19.7 19.1 26.5 43.6 39 67.4 15 28.5 27 54.8 36.1 86.1 16.2 55.2 21.1 124 7.3 178.7-5.7 23-3.8 50.3 19.8 62.5 45.2 23.5 25.5-27.9 34.3-40.7 3 15.1 6.3 48 27.9 39.1 15.1-6.2 5.6-30.1 21.1-33.9 1.9 15.3-2.7 27.7 13.3 29.8 14.6 2 15.8-5.6 19.4-15.7 8.7-25.1-11.9-45.7-30.6-47.5-10.8-1-34.2 9-53.2 10.3v0.1c-7.8-0.3-14.6-2.6-18.7-8.5-12.1-17.1 42.4-6.6 52-8.9 21.7-5 23.6-20.7 21.4-38.5-1.2-10.3-3.9-21.4-4.8-31.4-2.7-29.9-5.6-59.9-7.8-89.9-1.6-21.4-12.5-60.7-4.9-80.5 5.2-13.9 42.2-41.5 56.1-40.1-13.4 14.4 12.3 38.2 15.1 54.5 4.3 25.5 3.9 64.3 0 89.5-4.1 25.8-22.8 28.1-34.4 48.6-7 12.5-4.5 22.3-2.8 36.7 0.4 4.1 0.7 7.6 1.1 10.6 1.1 10.7 3.2 14.9 18.6 19.1 35.8 9.7 87.7-58.5 96.3-85.9 7.4-23.9 9.1-54.7 15.9-79.9 7.8-28.7 16-57.3 23.6-86-10.4 0.5-23.1-1.1-33 1.7-10.1 2.8-13.9 9.2-24 13.9-16.7 7.8-36.5 5.7-51.3-5.3 10.9-6.3 19.5-1 30.3-3.8 11.2-3.1 14.7-7.4 23.9-12.3 16.6-8.9 28.5-3.8 46.4-9.9 39.8-13.5 42.4-80.9 42.2-115.3-20.8 9.7-59.7 36-83.8 23 18.7-7 44.9-18.5 73.4-37.1 27.5-18 41.3-26.9 51.7-41.8 33.1-47.6 18.8-117.8 18.1-130.2-0.7-13.9-5.3-18.3-2.5-33.8 2.2-12.2 9.5-25.2 13.3-37.1 2.9-8.9 30.6-79.9 24.8-86.4zm-425 601.9c-13.7-52.8-39.4-95-62.1-143.9 1 4.2 8.4 75.1 8.3 85.1-0.3 20.5-14 84 11.2 91.3 5.9-13.4 2.9-27.4 16-37.5 0 16.5-9 51 14.8 49.8 23.3-1.2 15.6-30.1 11.8-44.8zm146.8-110.2c-11.8 9-19.5 12.8-22.6 26.3-2.5 10.4 2.8 31.3 3.7 41.4q3.7 41 7.4 82.1c30-11.6 26-38.1 25.6-65.1-0.6-34.1 4-54.5-14.1-84.7z"/>
			<g id="&lt;Group&gt;">
				<path id="&lt;Path&gt;" class="s5" d="m558.6 462.6c7.2 7.8 17.6 12.7 28.2 13.2 8.7 0.4 17.8-2.2 24.1-8.2 6.3-6 9.4-15.6 6.5-23.9-2.5-7.3-9.3-12.5-16.5-15.2-7.3-2.6-15.2-3.1-22.9-3.6q-11.8-0.7-23.5-1.4c-2.2-0.1-4.5-0.3-6.7 0.2-19.4 4.7 4.1 31.7 10.8 38.9z"/>
				<path id="&lt;Compound Path&gt;" fill-rule="evenodd" class="s4" d="m528.5 433.7c15.1-35 119.2-18.3 96.8 27.7-7 14.6-31.8 23.9-47.8 21-21.6-4-36.2-33-49-48.7zm18.4 0.4c9.2 12.3 19.5 34.4 35.2 37.3 18.5 3.4 41.7-15.8 19.3-30.7-3.7 10-6.3 22.3-13.4 24.3-4.6 1.3-9.1-2.1-10.1-2.7-7.1-4.8-9-14.3-9.9-18.9-1.3-6.5-0.2-8.7-2.2-10.7-3.7-3.7-12.2-1.2-18.9 1.4z"/>
			</g>
			<g id="&lt;Group&gt;">
				<path id="&lt;Path&gt;" class="s5" d="m751 422.4c4.4 0.1 12.1 0.3 18 6 5.7 5.5 7.6 14.1 6 21-3.9 16.6-27.4 20.6-30 21-10.6 1.7-18.9-1.2-24-3-7.8-2.7-16.8-5.8-18-12-1.4-7.2 8.9-14.5 18-21 8.2-5.8 17.3-12.3 30-12z"/>
				<path id="&lt;Compound Path&gt;" fill-rule="evenodd" class="s4" d="m690.9 457.5c10.2-25.3 75.2-69.3 90.5-24.6 6.5 19-13.6 33.7-29.1 39.5-26.3 10-40.8 0.9-61.4-14.9zm58.3 2.2c-5.5 5.3-8.9 5-10.2 4.7-6.5-1.5-10.6-14.6-9.2-33.1q-12.1 9.4-24.2 18.8c2.4 3.6 7.2 9.9 15.4 14.3 4.1 2.2 17.7 9.5 30 3 8.2-4.4 16.5-15.2 13.2-25-2.4-6.9-9.5-10-11.5-10.9q-1.7 14.1-3.5 28.2z"/>
			</g>
		</g>
	</g>
</svg>