<svg version="1.2" xmlns="http://www.w3.org/2000/svg" viewBox="0 0 1393 1172" width="1393" height="1172">
	<title>AdobeStock_261425763 (1)-ai</title>
	<style>
		.s0 { fill: #ffffff } 
		.s1 { fill: #cc8629 } 
		.s2 { fill: #000000 } 
		.s3 { fill: #f9afc7 } 
		.s4 { fill: #d8ff8d } 
	</style>
	<g id="cats">
		<g id="cat 10">
			<path id="&lt;Compound Path&gt;" fill-rule="evenodd" class="s0" d="m1340.5 298.1c4.2 2.5 3.5 15.6 3.3 19.5-0.5 13.2-5.5 25-10.6 37-5.7 13.5-15 27.5-17.7 42-2.4 13-1.9 27.1-3 40.4-2 24.8-12.2 49.1-24.8 70.6-12.7 21.8-30.9 39.6-54.4 49.2-27 10.9-51.1 5-77.3-4.4 6.2 8.3 14.7 12.5 24.4 15.2 3.4 1 7 1.7 10.5 2.7 5.9 1.7 5.9 3.5 4.6 9.7-2.5 11.7-8.6 23.8-12.7 35.1-3.8 10.5-7.8 20.9-12.2 31.2-4.7 11.1-11 21.4-13.5 33.1-2.3 10.7-5.7 20.9-9.7 31.1-8.6 21.4-18.1 42.1-23.4 64.7-5.4 22.6-6.7 45.5-4.7 68.6 2 23.2 2.6 45.8 14.9 66 6.1 10 10.5 20.8 14.8 31.7 3.2 8.2 5.9 20.2 14.6 24 9.9 4.3 22.5 3.3 32.8 6.6 8.4 2.7 14.9 8.7 19.6 16.1 9.9 15.8 7.3 37-12.3 43.7-20.6 6.9-44.5-0.6-61.1-12.7-9.5-6.8-19.2-14.1-27.2-22.5-6.9-7.1-12.2-15.5-18.6-22.9-6.9-7.9-13.9-13.8-18.2-23.7-4.3-10-6.8-20.9-9.9-31.4-7.3-24.2-14.7-48.5-22.2-72.8-3.7-12-4.8-20 1.1-31.4 5.1-10 10.3-19.9 15.6-29.9 4.2-8 10-16.3 12-25.3 0.7-3 2-9.2-0.3-10.3-3.2-1.4-6.5 1.6-8.3 3.7-6.3 7.7-9.5 20-13.5 29-4.4 9.8-9.1 19.5-13.6 29.2-4.9 10.4-9.7 20.8-15.4 30.7-4.8 8.6-12.9 16.9-16 26.2-6.7 20.4-6.8 44.9-9.1 66.2-2.3 21.7-6.6 47.5 4.8 67.6 9.5 16.7 33.7 8.4 44 23.8 4.2 6.2 3.6 13.8 1.8 20.7-1.3 5.2-3.2 10.1-5 15.1-2.5 7.2-5.2 7.2-12.9 8.4-21.3 3.4-41.5-3.9-61.1-11.1-10.2-3.7-16.6-6.7-22.2-16.2-5.2-8.7-10.2-17.6-15.2-26.5-6-10.4-5.3-22.2-5.7-33.9-0.3-11.5-0.6-23-1.4-34.4-1.7-24.3-5.2-48.8-9.3-72.8-2.3-12.9-5.8-25.2-8.6-38-2.3-10.6 0.5-20.7 3.5-30.9 7.1-24.1 15-48 23-71.8 2.5-7.5 6.1-15.3 6.7-23.3 0.1-1.8 0.5-9.5-0.6-10.7-2.6-2.8-8 0.6-9.8 2.3-7 7-7.6 20.4-11.4 28.9-2.9 6.3-4.6 6-11 6.3-5.1 0.2-10.3 0.9-15.3 1.8-22.1 4.2-42.3 14.1-63.4 21.5-22.4 7.8-45.2 10.1-68.8 9.6-48.6-0.8-96.8-3.7-145.1-9.1-2.3-0.3-8.4-0.1-10.4-1.2-0.9-0.5-1.7-3-2.6-3.8-3-2.8-4.5-6.1-9.1-4.9-8.5 2.4-12.8 15.1-16.2 22-9.2 17.9-22 33.7-36.4 47.6-15.3 14.9-32.4 27.7-48.8 41.3-16.8 13.8-36.8 26.5-49.3 44.6-14.6 21.1-15.4 40.7-4.5 63.8 9.1 19.3 18.4 39.5 32 56.1 12 14.7 27.5 25.8 45.7 31.5 8.8 2.8 20.9 4 27.9 10.7 5.7 5.5 3.5 12.4 0.9 19-8.5-4.8-15.7-9.9-25.9-6.9 4.8 3.9 9.2 7.1 12.9 12.1 4.2 5.7 4.4 6.8 0.4 12.4-4.6 6.4-10.2 11.3-18 13-20.1 4.4-42.6-5.7-60.5-13.6-9.1-3.9-19.4-7.1-25.2-15.8-5.8-8.6-2.8-18.6-6.4-27.9-4.3-11-13.3-20.8-20.2-30.3-7.5-10.3-14.9-20.5-22.1-30.9-12.6-18.3-22.5-37.2-31.1-57.7-7.6-18.3-19.6-43.2-11.4-62.9 8.6-20.7 24.6-38 32.8-59 7.2-18.3 6-42.2 2-61.1-4.5-20.9-16.4-37.1-25-56.2-8.8-19.5-9.7-38.7-10.8-59.7-0.5-9.7 0.7-23.7-2.6-32.7-2.6-7-9.3-5.7-11.3 1.2-2.8 10.3 0.4 24.9 0.9 35.5 0.6 11.1 1.1 22.2 2.4 33.3 2.4 21.2 15.4 37.5 24.1 56.3 9.3 20.2 11.2 39.6 10.1 61.4-0.8 13-0.9 22.2-7.4 34-3.9 7.1-8.2 14.1-13.8 20-11.6 12.4-28.9 17-41.2 29-11.6 11.3-15.9 26.8-17.2 42.6-1.8 20.4-2.4 42.3-0.3 62.7 1 10.4 1.3 22.5 4.4 32.5 2.5 8.2 8.2 11.3 15.5 14.8 15.3 7.2 27.7 17.8 26.7 36.1-12.3-9.5-21-23.9-38.8-18.7 6.6 9.5 20.5 13.2 24.6 24.5 0.9 2.5 2.1 7.5 0.8 10-1.7 3.2-9.4 4.1-13.1 4.7-9.6 1.5-19.3 0.7-28.8-1.1-16.4-3.2-33.9-2.4-38.2-21.5-4.4-19.9-8-38.5-8.5-58.9-0.4-21.1-5.2-40.9-9.6-61.4-4.4-20.2-7.9-40.1-4.9-60.7 2.8-18.8 8-37.3 16.2-54.5 8.5-18.1 21.2-33.5 31.6-50.4 10.1-16.2 23.1-33.7 26.7-52.7 3.8-19.5 7.8-39.6 9.2-59.5 1.4-21 1.3-42.2 2.7-63.3 1.3-20.6 3.1-41.4 9.1-61.3 5.8-19 15.1-37.8 23.2-55.9 4.3-9.7 9.6-18.6 15.2-27.5 2.4-3.8 4.8-7.5 7.2-11.3 1.5-2.2 7.6-8.4 7.5-10.9-0.3-7-17.4-15.1-22.2-18.5-8.1-5.5-16.2-10.9-24.5-16.1-17.5-11.1-36.4-19.7-53.9-30.8-17.2-10.8-34-22.9-49.3-36.2-14.7-12.7-27.3-27.1-40.2-41.5-13.9-15.7-28.6-28.5-38.6-47.4-18.2-34.5-37.5-77-33.9-117 1.3-14.3 11.6-33.7 27.4-35.8 18.2-2.4 24.8 14.2 29.9 28.2 7.3 19.9 15 39.7 22.9 59.5 7.5 19 14.6 37.3 27.2 53.6 11.4 14.7 21.5 28.7 36.5 40 15.3 11.6 31.1 22.8 47 33.6 35.6 24 72 46.9 108.3 69.7 8.3 5.2 16.4 12.2 26.8 10.2 9.4-1.7 19-6.1 28.1-9.2 19.5-6.6 38.2-12.9 59.1-14 42.1-2.3 82 10.1 121.6 22.6 41 12.9 82.5 15.8 124.7 21.3 42.7 5.6 85.5 6.3 128.2 10.9 21.7 2.3 43.2 5.9 64.9 8.1 11.7 1.1 23.3 2.1 35 3.3 8.7 0.8 17.2 1.9 25.4-2.1 7.9-3.9 16.1-8.5 23.8-12.9 6.3-3.6 12.7-7.7 17.8-13.1 6.5-7 6.5-14.3 10.2-22.5 2.7-6 9.1-7.3 14.6-9.8-11.8-31.8-11.7-63.1-5.8-96.2 2.2-12.1 8-31.1 23.8-28.7 13.6 2.1 24.1 16.7 32.8 26.3 9.2 10 14.9 23.5 24.8 32.7 6.9 6.5 15.7 9.6 24.9 10.8 27.7 3.9 55.4-2.5 81.8 9.4 3 1.3 6.5 4.2 9.9 4.3 4.2 0 3.8-0.7 7-3.8 4.3-4.2 8.9-8.1 13.9-11.6 9-6.4 19.1-11.2 29.7-14.5 3.9-1.2 18.2-6.6 21.8-4.5zm-45.9 49.7c9.3-11.6 20.2-22.2 30.3-33.2-13.4 6.9-24.6 16.7-34.4 28-2.3 2.6-4.5 5.3-6.7 8-3.1 3.8-4.6 4.1-3.1 8.5 1.9 5.6 9.5 10.9 14.4 13.5 0-10.9-8.6-14.5-0.5-24.8zm-192.3 5.7c15.9-3.1 43.9-11.5 37.9-32.8-6.1-22.2-18.3-41.2-37.6-53.9 11 15.6 23.3 31 29 49.4 0.9 2.9 4.2 11.6 2.9 14.7-1 2.6-8.7 5.8-10.9 7.1-7.8 4.4-15.4 8.6-21.3 15.5z"/>
			<g id="&lt;Group&gt;">
				<path id="&lt;Path&gt;" class="s1" d="m915.8 456.5c-4.7-2-9.3-5-14.4-5.2-7-0.2-13.2 4.9-16.7 11-3.5 6.1-4.8 13.2-6.7 19.9-3.8 13.3-11.2 26.7-23.9 32-12.6 5.3-30.7-2.5-31-16.2-0.1-3.8 1-7.8-0.4-11.3-1.9-4.6-7.3-6.4-11.6-8.7-11.1-5.8-16.3-17-20.8-27.2-2.4-5.4-12.9-28.7-4.2-37.9 6.1-6.4 17.3-1.5 42 3 24 4.3 17.4 0.4 69 6 41.9 4.6 62.9 7 64 12.5 1.7 9.4-28 29.5-45.3 22.1z"/>
				<path id="&lt;Path&gt;" class="s1" d="m1272.1 484.9c-14.5-9.3-24.7-28.7-24-48 0.6-16.4 8.9-26.6 3-33-2.9-3.1-8.1-4.3-12-3-1.3 0.4-4.9 2-9 12-4.8 11.7-2 14.6-6 24-3.4 8-8.5 13.3-12.1 17.1-1.1 1.1-5.2 5.3-11.9 9.9-11 7.6-27.8 15.2-42 18-37.3 7.2-96.5-11.5-108-51-3.5-11.9-1.8-22.9 0-30 0.5-2.1 1.4-5.3 3-9 2.2-5 4.3-7.9 6.9-12 1.2-1.9 6.2-9.7 8.1-15 3.3-9.2-0.5-16.3-3-27-3.3-13.7-2.2-24.1 0-45 2-19.5 3.3-30.3 12-39 2.4-2.4 9-9 18-9 10.3 0 17.7 8.8 30 24 13.1 16.2 14.4 23.3 27 33 3.5 2.7 8.1 6.2 15 9 12.8 5.1 19.3 2 36 3 18.6 1.1 36.6 6.5 45 9 11.7 3.5 19.3 6.8 27 3 5-2.5 4.7-5.5 10.7-11.8 10.6-11.3 23.9-15 31.1-16.9 12.4-3.5 21.2-5.9 27.2-1.3 9.8 7.6 4.8 28.6 3 36-2.5 10.2-4.9 11.8-15 33-9.1 19.1-13.7 28.9-15 39-1.9 13.6 2 13.5 0 30-1 8-3.7 16.3-9 33-6.3 19.7-9.4 21.9-11.8 23.1-9.3 4.5-21.5-3.3-24.2-5.1z"/>
				<path id="&lt;Path&gt;" class="s1" d="m843.1 547.9c-1.3-9.8-6.8-17.1-12-24-4.7-6.2-9.4-10.4-18-18-2.3-2-7.6-6.7-15-12-7.2-5.2-10.9-7.8-15-9-3.5-1-10.3-2.2-19.8 1.2-0.6-11.4-0.3-22.7 2.1-33.9 1.3-2.8 7.3-17.3 0.3-30.2-3.4-6.3-8.5-9.6-12.6-12.1-10.3-6.4-19.8-7.4-39-9-16.7-1.4-30.1-2.4-39-3-8 3.2-20 8.7-33 18-18.2 13-33.2 23.8-35.9 42.2-1.9 12.6 2.3 28.9 12.8 38.4 10.4 9.6 24.4 14.5 38.3 17.4 3.7 0.8 8 1.9 9.3 5.4 1.1 2.8-0.2 5.9-1.3 8.6-9.1 22-8.3 48.6 5.2 68.1 13.6 19.5 40.9 29.5 62.8 20 2.5-1.1 4.8-2.4 7.1-3.9 8.6 2.7 16.7 2.6 21.7-1.2 11.3-8.7 3-34.1 9-36 4.6-1.5 9.2 13.4 24 18 8.2 2.5 15.5 0.7 18 0 18.6-5 32.3-26.5 30-45z"/>
				<path id="&lt;Path&gt;" class="s1" d="m636.1 388.9c-1.7-4.6-11.1-7.1-30-12-13.4-3.5-26.7-6.8-48-9-20.6-2.1-40.4-4.1-66 0-24 3.8-36 5.8-45 12-2 1.4-7.3 5.4-15 6-6.1 0.5-11-1.3-15-3-12.1-5.1-18.1-7.6-27-15-18.6-15.4-43.2-23-87-51-23.5-15-56.3-38.4-93.7-73.3 3.4 15.8 4.7 34-5.3 43.3-13.4 12.4-38.4 1.3-42 9-2.4 5 5.3 15.6 36 39 31.1 23.7 42.8 27.6 78 51 36.6 24.4 55.2 37 69 57 8.6 12.6 9.9 18.8 20.2 28 4 3.6 8.2 6.6 12.5 9.2-2.4 4.7-4 9.7-3.8 15 0.4 15.3 16.1 26.7 31.4 27.6 15.4 0.9 30-6 43.3-13.6 6.9-3.8 15.8-7.8 22-3 8 6.4 2.5 20.7 9.1 28.5 7.2 8.5 21.9 1.7 26.6-8.4 4.8-10 4-21.8 8.1-32.2 4-10.1 12.2-17.9 18.3-26.9 2.2-3.3 3.7-6.4 4.7-9.4 2.2 8.9 5.5 17.5 11.8 24 8.8 9.1 25.6 11.6 33.5 1.7 5.1-6.5 4.7-13.8 5.7-22.9 4.8-39.7 53.2-55.9 47.6-71.6z"/>
			</g>
			<g id="&lt;Group&gt;">
				<path id="&lt;Path&gt;" class="s2" d="m260 316c1.6 1.9-0.5 10.5-2.2 15.1-0.6 1.5-1.2 3.2-0.8 4.7 1 4.6 7.7 4.3 12 2.4 10.4-4.5 19.8-11.3 27.4-19.8 0.9-1 1.9-2.1 3.2-2.5 2.1-0.6 4.2 0.9 5.9 2.3 8.5 6.7 22.7 16.2 27.6 19.7 2.1 1.5 9.9 7.1 12 12 6.7 15.5-29.6 54-51 48-1.5-0.4-5-2.3-12-6-11.1-5.9-19.2-10.9-21-12-29.3-18.1-43.9-27.1-44.3-33.5-1.1-17.6 39.3-34.8 43.2-30.4z"/>
				<path id="&lt;Path&gt;" class="s2" d="m195.1 211.9c-1.4-12.3-6.9-12.7-18-36-5.2-10.8-9.5-23.2-18-48-8.5-24.8-9.2-29.4-15-32.8-12.1-7.1-31-1.6-42 8.8-13.6 12.9-12.7 32.1-12 51 0.9 23.3 8 39.7 18 63 9.8 22.7 15.5 27.9 18 30 1.3 1.1 25.4 20.5 48 9 17.6-9 22.6-30.7 21-45z"/>
				<path id="&lt;Path&gt;" class="s2" d="m1153.7 330.1c-2.1 6.4-0.7 13.3-0.1 20 0.6 6.6 0.5 13.6 3.8 19.3 2.2 4.1 5.9 7.1 9.5 10.1 4.6 3.7 9.4 7.5 15.2 8.9 7.2 1.7 14.9-0.7 21-4.9 6.1-4.1 11-9.8 15.7-15.5q10.4-12.2 20.7-24.4c1.7-2.1 3.4-4.2 4-6.8 0.7-3.7-1.3-7.5-4.2-9.9-2.9-2.4-6.6-3.6-10.2-4.6-17.6-5-67.1-17.7-75.4 7.8z"/>
				<path id="&lt;Path&gt;" class="s2" d="m563.4 442c0.6 3.6 1.6 7.3 0.4 10.8-0.9 2.7-3 4.8-4.9 6.9-3.4 4.1-6.1 9.2-6 14.5 0 5.3 3.4 10.8 8.6 12.1 2.2 0.5 4.6 0.3 6.7 1.2 3.1 1.3 3.4 5.2 4.7 12.3 1.8 9.9 2.7 14.8 3.8 16.3 4 5.3 12.1 5.5 19.3 5.7 10.2 0.2 18.5-2.3 23.6-4.2 14.7-5.6 23.7-14 35.3-24.6 7.1-6.6 12.4-12.9 22.8-25.4 10.3-12.3 14.7-18.9 16.2-28 0.7-4.5 0.6-8.1 0.3-10.1-1.5-9.7-3.6-20.4-11.3-26.6-4.2-3.4-9.6-4.9-14.9-6.2-36.4-8.6-114.6-16.4-104.6 45.3z"/>
				<path id="&lt;Path&gt;" class="s2" d="m985.3 451.8c-17.4 2.1-14.5 35.8-31.9 37.9-7.5-4.4-14.5-9.5-21-15.3-0.9-17.9-11-39.4-21-47-16.7-12.7-55.4-15.9-70.4 0.6-11.8 13.1-2.3 34.6-8.7 51-1.5 3.8-3.8 7.3-5.2 11.1-4.6 11.9 0.3 26.4 10.6 33.8 10.3 7.4 25 7.7 36 1.3 6.1-3.5 11.1-8.8 16.7-13.1-2.9 30.8-2.3 63.6-22.7 85.3-13.3 14.1-33.1 20.4-47.1 33.8-14 13.3-18.1 41.1-0.5 49.1 12.2 5.6 26.1-2.2 37-9.9 35.1-24.7 68.5-51.7 99.9-80.7 0.1 1.8 1 16.8 13.6 25.2 6.9 4.5 13.9 4.9 17.1 4.8 3.9-1.7 9.3-4.6 14.7-9.2 36.7-31.6 24.5-101.7 2.6-140-2.3-4-11.9-19.6-19.7-18.7z"/>
			</g>
			<g id="&lt;Group&gt;">
				<path id="&lt;Path&gt;" class="s3" d="m1077.1 349.9c2 2.9 5.1 6.5 6 6 0.9-0.5-1.3-5.1 0-6 0.9-0.6 3.4 0.7 9 6-4.3-5.2-4.9-10.3-3-12 1.6-1.5 5.1-0.3 6 0q4.5 4.5 9 9c2.9-1.4 7-3.5 12-6 12.6-6.5 14.4-7.9 16.1-10.1 4.9-6.4 4.7-14.1 4.5-16-0.8-5.6-3.3-10.9-5.9-16-15.4-29.9-30.6-46.2-40.5-43.3-2.4 0.8-4 3-7.2 7.4-3 4.1-6.2 10-9 24-3.2 15.7-3.1 27.5-3 30 0.2 16.6 3.4 23.2 6 27z"/>
				<path id="&lt;Path&gt;" class="s3" d="m1311.1 364.9c1 0.6 1.2 8.2 0.9 8.8 5-5.7 11.8-14.6 17.1-26.8 6.2-14.2 11.6-35.9 6-39-1-0.5-2.7-0.7-24.2 17.6 0 0-24 20.6-24.6 32.7q0 1 0.1 1.7c0.5 4.1 2.8 9.9 6.7 11 6 1.6 13.4-8.6 18-6z"/>
				<path id="&lt;Path&gt;" class="s3" d="m1258.7 535.2c-4.6 1.3-8.8 2.6-13.4 0.9-2.5-1-4.8-2.9-7-4.5-1.9-1.4-3.7-2.9-5.6-4.4-3.3-2.7-2.8-3.1-7.2-2.2-17.7 3.6-32.4 19-43-3.1 7.1 2.4 13.9 6.7 21.5 6.1 6.7-0.5 15.4-4 20.3-8.6 10.1-9.5 1.2-15.9-3.2-25.5 9.2 5.4 14.3 4.2 24.9 3-3.9 8.3-14.4 6.4-10.7 18.6 3.6 11.8 12.7 15.5 23.4 19.7z"/>
			</g>
			<g id="&lt;Group&gt;">
				<path id="&lt;Path&gt;" class="s4" d="m1280.3 433.8c9.5 0.1 18.4 8.2 18.6 17.6 0 2.2-0.4 4.4-1.6 6.3-1.7 2.6-4.7 3.9-7.7 4.7-8 2-26.2-0.3-29.5-9.8-3.5-9.8 11.9-18.9 20.2-18.8z"/>
				<path id="&lt;Compound Path&gt;" fill-rule="evenodd" class="s2" d="m1303.9 443.2c7.7 14.9-2 21.3-15.5 22.3-13.3 1.1-25.4-4.2-35.1-13.5 7.3-9.9 13.3-21.2 26.4-22.3 9.7-0.8 19.5 4.4 24.2 13.5zm-21.4 15.3c4.8 1.7 9.9-0.2 12.1-4.1 2.2-3.9 0.7-8.2 0.5-8.8-0.6-0.1-1.4-0.2-2.1-0.2 0 0-1.1 0.1-2.1 0.8-1.5 0.8-4.8 5.4-8.4 12.3zm-7.8-19.1c-1.1-0.3-6.2 7.3-7.1 8.9-1.4 2.3-1.5 2.9-1.3 3.4 0.5 1.3 4.9 3 6.5 2.7 1.8-0.4 3-14.6 1.9-15z"/>
			</g>
			<g id="&lt;Group&gt;">
				<path id="&lt;Path&gt;" class="s4" d="m1167.3 441.9c5.1 1.4 10.5 1.2 15.8 0.5 7.4-1.1 14.7-3.1 21.6-6.1 1.2-4.2-0.7-8.8-3.8-11.9-3.1-3-7.2-4.9-11.2-6.6-8.3-3.6-16.8-6.8-25.8-8-2.9-0.4-5.8-0.6-8.7 0.2-18.2 4.9 1.8 29.1 12.1 31.9z"/>
				<path id="&lt;Compound Path&gt;" fill-rule="evenodd" class="s2" d="m1206.3 443.6c-1.7 2.1-4.2 2.7-6.1 3-29 3.8-41-6.3-41-6.3-5.3-4.4-8.3-8.9-10.2-13.5-3-6.9-7.5-13.8 0.3-18.5 10.5-6.3 28.7-1.3 38.9 3.2 9.2 4.1 13.3 9.2 15.5 13.1 2.1 3.7 2.7 5.6 2.7 7 0.5 1.4 3.1 8-0.1 12zm-34.4-28.8c-2.3-2.1-5.6-3-8.7-3-2.3 0-11.6 1.9-12.4 4.6-1.1 3.6 5.1 11.5 7.7 13.8 4.6 4.3 11 6 17.2 6.3-0.5-7.2 2.6-16.2-3.8-21.7zm28.4 22.8c-0.5-0.9-0.1-0.8-1.1-4.8-0.2-0.7-0.5-1.6-0.9-2.7-0.2-0.5-0.5-1-0.9-1.5-1.2-1.8-3.3-4-7.4-5.6q-1.6 3.7-3.2 7.4-1.6 3.7-3.2 7.4c1.6 0.4 3 0.6 3.9 0.7 5 0.4 8.2-0.9 12.8-0.9z"/>
			</g>
			<g id="&lt;Group&gt;">
				<path id="&lt;Compound Path&gt;" fill-rule="evenodd" class="s2" d="m1333.5 290.5c31.9-0.8 14.1 54.8 7.5 70.1-6.8 16.1-17 28.1-17.2 46.3-0.2 18.6-2.9 36-9 53.5-6.2 17.3-12.2 37.6-21.8 53.2-8.8 14.3-22 26.7-34.8 37.3-6.2 5.2-12.7 10.6-20.2 13.9-6.7 3.1-14.4 2.6-20.9 5.9-5.7 2.9-9.4 7.9-12.9 12.9-5.1 7.3-5.9 12.8-7.6 21.5-3.4 17.6-10.7 34-16.5 50.9-5.9 17.2-10.1 34.8-16.6 51.8-6.7 17.4-17 33.5-22.2 51.4-5.2 18.2-7.6 37.4-8.7 56.3-1.2 20.5-0.4 41 1.7 61.4 1.9 17.3 13.3 31.6 21.3 46.6 7.9 14.8 11.7 27.9 28.7 33.7 14.5 4.9 29.2 6.6 40.1 18.5 8.6 9.4 14.4 25.2 11.2 38-2.1 8.8-11 16.9-17.5 22.7-9.5 8.7-23.8 9.4-36.2 9.2-16.4-0.2-31.3-5.6-44.5-15.2-26.6-19.3-61.3-43-73.7-74.8-13.3-34.2-21-71.2-30.4-106.6-23.5 21.7-21 56.4-21.2 85.8-0.2 15.7-4 33.5 2.1 48.4 2.2 5.4 5.2 12.9 9.9 16.6 5.2 4 12.3 2.9 18.3 4.8 10.7 3.3 18 12.5 21.1 23.1 3.5 12.3-0.3 34-8.8 43.9-8.7 10.1-27.5 7.9-39.4 7.3-16.5-0.9-33.4-4.4-49.3-8.8-29.4-8.1-43.8-40.3-49.4-68.1-3.4-16.3-3.4-33.2-4.8-49.7-1.5-17.5-3.4-35.1-5.8-52.5-2.4-17.4-5.5-34.8-9-52-3.3-16.1-0.9-30.4 3.3-46 2.1-8 4.6-15.8 6.9-23.7 1.6-5.4 7.4-17.3 6.4-23.1-1.9-11.5-33-0.7-39.8 1.5-33.1 10.7-64.4 25.2-99.6 26.2-35.2 1-70.9-1.3-105.9-3.6-16.5-1-32.5-4.2-48.8-6.8-9.3-1.4-19.6-3.6-26.9 3.7-8.7 8.9-13 21.9-21.4 31.3-10.7 12.2-24.4 21.8-36.9 32-13.5 11.2-27.1 22.4-40.7 33.4-12.5 10-26.2 19-35.8 32-8.2 11.1-17.5 25.4-14.2 39.8 3.5 15.4 12.8 30.6 20 44.5 13.3 25.4 32.2 48.7 59.7 59.6 12.2 4.9 28.5 6.2 35.8 18.8 7.9 13.6-4 22.2-7.4 34.4-3.5 12.3-8.3 18.7-20.8 23.2-14.4 5-30 5.8-44.9 2.4-15.5-3.6-31.1-10.8-45.7-17.1-13.4-5.9-19.4-14-23.4-27.8-4.1-14-9.6-26.2-20.1-36.3-10.5-10.2-17.8-24-26.1-36.1-18.3-26.7-33.8-53.6-44.5-84.3-2.5-7-4.6-14.2-5.8-21.5-1.2-7.6-0.2-15.3-2.7-22.5-13.4 6.2-18 28.5-19.2 41.6-1.6 19.2-2.8 37.4-1.5 56.8 0.9 14.4-2.5 35.8 11.7 43.9 14.3 8 27.9 15.3 32.9 32.1 5.3 17.1-0.9 26.1-15.4 35.2-13.1 8.4-29.5 14.4-45 10.8-9.3-2.1-18.5-4.6-27.9-6.4-7.3-1.4-14.5-2.4-20.6-7.1-11.9-9-12.3-25.1-14.3-38.6-2.9-20.1-5.1-40.3-8.2-60.4-2.8-18.9-7.4-37.4-10-56.4-5.2-38.2-0.5-73.3 17.5-107.6 16.8-31.9 41.5-60.3 52.3-95 5.6-17.7 5.9-35.3 7.5-53.6 1.6-19 3.2-37.9 4.4-56.9 1.3-19.6 2.4-39.2 4.1-58.7 1.6-19.1 10.2-37.1 17.5-54.6 7.1-16.9 14.6-34.4 24.2-50.1 2-3.1 4.1-6.1 6.2-9.1 4.1-5.9 4-5.7-1.6-10.4-6.8-5.6-13.9-11-21.1-16.1-29.6-20.8-63-34.8-91.4-57.5-27-21.5-51.5-47.1-74.6-72.8-24.2-26.9-36.4-58.5-47.9-92.3-9.5-28.4-23-70.5 0.6-95.8 8.4-9 21.4-17.9 34.3-16.2 16.2 2.2 23.5 14.9 29 28.7 13.7 34.4 26.5 69.5 44.1 102.1 7.6 14.1 16.6 27.6 28.1 38.8 12.6 12.4 28.4 21.6 43 31.4 30.3 20 59.8 40.7 90.8 59.8 14.4 8.8 28.8 21.9 44.6 27.8 15.8 5.8 30.9 1.4 45.7-5.1 34.6-14.9 70.1-10.9 106.7-7.2 19.3 2 38.6 9 57.2 14.3 18.5 5.2 36.5 10.9 55.4 14.7 38.2 7.5 77.1 11.3 115.9 15.3 38.1 4 76.3 5.4 114.4 9.4 19.8 2.1 39.6 3.8 59.3 6.3 14 1.8 33.6 7.8 46-2 11.8-9.5 26.5-12.2 34-26.7 3.3-6.3 5.9-12.1 10.1-17.8 5.5-7.4 4.7-13.3 4-22.2-1.6-18.6-3.6-37.4-1.1-55.9 1.3-9.3 3.5-18.4 6.1-27.4 2.2-7.7 3.9-16.2 9.9-21.8 26.3-24.6 59.2 24.5 73.1 41.4q4.1 4.8 8.1 9.8c3.2 3.8 4.6 5.6 9.3 7 8.8 2.6 19.9 2.1 29.1 3.1 18.2 2 36.3 4.2 54.4 7 7 1.2 16.6 4.8 23.5 1.8 6.3-2.8 10.8-10.3 16.6-14.2 11.9-7.9 29.6-14.2 44-14.5zm10.3 27.1c0.2-3.9 0.9-17-3.3-19.5-3.6-2.1-17.9 3.3-21.8 4.5-10.6 3.3-20.7 8.1-29.7 14.5-5 3.5-9.6 7.4-13.9 11.6-3.2 3.1-2.8 3.8-7 3.8-3.4-0.1-6.9-3-9.9-4.3-26.4-11.9-54.1-5.5-81.8-9.4-9.2-1.2-18-4.3-24.9-10.8-9.9-9.2-15.6-22.7-24.8-32.7-8.7-9.6-19.2-24.2-32.8-26.3-15.8-2.4-21.6 16.6-23.8 28.7-5.9 33.1-6 64.4 5.8 96.2-5.5 2.5-11.9 3.8-14.6 9.8-3.7 8.2-3.7 15.5-10.2 22.5-5.1 5.4-11.5 9.5-17.8 13.1-7.7 4.4-15.9 9-23.8 12.9-8.2 4-16.7 2.9-25.4 2.1-11.7-1.2-23.3-2.2-35-3.3-21.7-2.2-43.2-5.8-64.9-8.1-42.7-4.6-85.5-5.3-128.2-10.9-42.2-5.5-83.7-8.4-124.7-21.3-39.6-12.5-79.5-24.9-121.6-22.6-20.9 1.1-39.6 7.4-59.1 14-9.1 3.1-18.7 7.5-28.1 9.2-10.4 2-18.5-5-26.8-10.2-36.3-22.8-72.7-45.7-108.3-69.7-15.9-10.8-31.7-22-47-33.6-15-11.3-25.1-25.3-36.5-40-12.6-16.3-19.7-34.6-27.2-53.6-7.9-19.8-15.6-39.6-22.9-59.5-5.1-14-11.7-30.6-29.9-28.2-15.8 2.1-26.1 21.5-27.4 35.8-3.6 40 15.7 82.5 33.9 117 10 18.9 24.7 31.7 38.6 47.4 12.9 14.4 25.5 28.8 40.2 41.5 15.3 13.3 32.1 25.4 49.3 36.2 17.5 11.1 36.4 19.7 53.9 30.8 8.3 5.2 16.4 10.6 24.5 16.1 4.8 3.4 21.9 11.5 22.2 18.5 0.1 2.5-6 8.7-7.5 10.9-2.4 3.8-4.8 7.5-7.2 11.3-5.6 8.9-10.9 17.8-15.2 27.5-8.1 18.1-17.4 36.9-23.2 55.9-6 19.9-7.8 40.7-9.1 61.3-1.4 21.1-1.3 42.3-2.7 63.3-1.4 19.9-5.4 40-9.2 59.5-3.6 19-16.6 36.5-26.7 52.7-10.4 16.9-23.1 32.3-31.6 50.4-8.2 17.2-13.4 35.7-16.2 54.5-3 20.6 0.5 40.5 4.9 60.7 4.4 20.5 9.2 40.3 9.6 61.4 0.5 20.4 4.1 39 8.5 58.9 4.3 19.1 21.8 18.3 38.2 21.5 9.5 1.8 19.2 2.6 28.8 1.1 3.7-0.6 11.4-1.5 13.1-4.7 1.3-2.5 0.1-7.5-0.8-10-4.1-11.3-18-15-24.6-24.5 17.8-5.2 26.5 9.2 38.8 18.7 1-18.3-11.4-28.9-26.7-36.1-7.3-3.5-13-6.6-15.5-14.8-3.1-10-3.4-22.1-4.4-32.5-2.1-20.4-1.5-42.3 0.3-62.7 1.3-15.8 5.6-31.3 17.2-42.6 12.3-12 29.6-16.6 41.2-29 5.6-5.9 9.9-12.9 13.8-20 6.5-11.8 6.6-21 7.4-34 1.1-21.8-0.8-41.2-10.1-61.4-8.7-18.8-21.7-35.1-24.1-56.3-1.3-11.1-1.8-22.2-2.4-33.3-0.5-10.6-3.7-25.2-0.9-35.5 2-6.9 8.7-8.2 11.3-1.2 3.3 9 2.1 23 2.6 32.7 1.1 21 2 40.2 10.8 59.7 8.6 19.1 20.5 35.3 25 56.2 4 18.9 5.2 42.8-2 61.1-8.2 21-24.2 38.3-32.8 59-8.2 19.7 3.8 44.6 11.4 62.9 8.6 20.5 18.5 39.4 31.1 57.7 7.2 10.4 14.6 20.6 22.1 30.9 6.9 9.5 15.9 19.3 20.2 30.3 3.6 9.3 0.6 19.3 6.4 27.9 5.8 8.7 16.1 11.9 25.2 15.8 17.9 7.9 40.4 18 60.5 13.6 7.8-1.7 13.4-6.6 18-13 4-5.6 3.8-6.7-0.4-12.4-3.7-5-8.1-8.2-12.9-12.1 10.2-3 17.4 2.1 25.9 6.9 2.6-6.6 4.8-13.5-0.9-19-7-6.7-19.1-7.9-27.9-10.7-18.2-5.7-33.7-16.8-45.7-31.5-13.6-16.6-22.9-36.8-32-56.1-10.9-23.1-10.1-42.7 4.5-63.8 12.5-18.1 32.5-30.8 49.3-44.6 16.4-13.6 33.5-26.4 48.8-41.3 14.4-13.9 27.2-29.7 36.4-47.6 3.4-6.9 7.7-19.6 16.2-22 4.6-1.2 6.1 2.1 9.1 4.9 0.9 0.8 1.7 3.3 2.6 3.8 2 1.1 8.1 0.9 10.4 1.2 48.3 5.4 96.5 8.3 145.1 9.1 23.6 0.5 46.4-1.8 68.8-9.6 21.1-7.4 41.3-17.3 63.4-21.5 5-0.9 10.2-1.6 15.3-1.8 6.4-0.3 8.1 0 11-6.3 3.8-8.5 4.4-21.9 11.4-28.9 1.8-1.7 7.2-5.1 9.8-2.3 1.1 1.2 0.7 8.9 0.6 10.7-0.6 8-4.2 15.8-6.7 23.3-8 23.8-15.9 47.7-23 71.8-3 10.2-5.8 20.3-3.5 30.9 2.8 12.8 6.3 25.1 8.6 38 4.1 24 7.6 48.5 9.3 72.8 0.8 11.4 1.1 22.9 1.4 34.4 0.4 11.7-0.3 23.5 5.7 33.9 5 8.9 10 17.8 15.2 26.5 5.6 9.5 12 12.5 22.2 16.2 19.6 7.2 39.8 14.5 61.1 11.1 7.7-1.2 10.4-1.2 12.9-8.4 1.8-5 3.7-9.9 5-15.1 1.8-6.9 2.4-14.5-1.8-20.7-10.3-15.4-34.5-7.1-44-23.8-11.4-20.1-7.1-45.9-4.8-67.6 2.3-21.3 2.4-45.8 9.1-66.2 3.1-9.3 11.2-17.6 16-26.2 5.7-9.9 10.5-20.3 15.4-30.7 4.5-9.7 9.2-19.4 13.6-29.2 4-9 7.2-21.3 13.5-29 1.8-2.1 5.1-5.1 8.3-3.7 2.3 1.1 1 7.3 0.3 10.3-2 9-7.8 17.3-12 25.3-5.3 10-10.5 19.9-15.6 29.9-5.9 11.4-4.8 19.4-1.1 31.4 7.5 24.3 14.9 48.6 22.2 72.8 3.1 10.5 5.6 21.4 9.9 31.4 4.3 9.9 11.3 15.8 18.2 23.7 6.4 7.4 11.7 15.8 18.6 22.9 8 8.4 17.7 15.7 27.2 22.5 16.6 12.1 40.5 19.6 61.1 12.7 19.6-6.7 22.2-27.9 12.3-43.7-4.7-7.4-11.2-13.4-19.6-16.1-10.3-3.3-22.9-2.3-32.8-6.6-8.7-3.8-11.4-15.8-14.6-24-4.3-10.9-8.7-21.7-14.8-31.7-12.3-20.2-12.9-42.8-14.9-66-2-23.1-0.7-46 4.7-68.6 5.3-22.6 14.8-43.3 23.4-64.7 4-10.2 7.4-20.4 9.7-31.1 2.5-11.7 8.8-22 13.5-33.1 4.4-10.3 8.4-20.7 12.2-31.2 4.1-11.3 10.2-23.4 12.7-35.1 1.3-6.2 1.3-8-4.6-9.7-3.5-1-7.1-1.7-10.5-2.7-9.7-2.7-18.2-6.9-24.4-15.2 26.2 9.4 50.3 15.3 77.3 4.4 23.5-9.6 41.7-27.4 54.4-49.2 12.6-21.5 22.8-45.8 24.8-70.6 1.1-13.3 0.6-27.4 3-40.4 2.7-14.5 12-28.5 17.7-42 5.1-12 10.1-23.8 10.6-37z"/>
				<path id="&lt;Path&gt;" class="s2" d="m1140.2 320.7c6 21.3-22 29.7-37.9 32.8 5.9-6.9 13.5-11.1 21.3-15.5 2.2-1.3 9.9-4.5 10.9-7.1 1.3-3.1-2-11.8-2.9-14.7-5.7-18.4-18-33.8-29-49.4 19.3 12.7 31.5 31.7 37.6 53.9z"/>
				<path id="&lt;Path&gt;" class="s2" d="m1324.9 314.6c-10.1 11-21 21.6-30.3 33.2-8.1 10.3 0.5 13.9 0.5 24.8-4.9-2.6-12.5-7.9-14.4-13.5-1.5-4.4 0-4.7 3.1-8.5 2.2-2.7 4.4-5.4 6.7-8 9.8-11.3 21-21.1 34.4-28z"/>
			</g>
		</g>
	</g>
</svg>